<?xml version="1.0" encoding="UTF-8" standalone="no"?><svg xmlns="http://www.w3.org/2000/svg" xmlns:xlink="http://www.w3.org/1999/xlink" contentScriptType="application/ecmascript" contentStyleType="text/css" height="1056px" preserveAspectRatio="none" style="width:1184px;height:1056px;" version="1.1" viewBox="0 0 1184 1056" width="1184px" zoomAndPan="magnify"><defs><filter height="300%" id="fo6sfj0bh7zeh" width="300%" x="-1" y="-1"><feGaussianBlur result="blurOut" stdDeviation="2.0"/><feColorMatrix in="blurOut" result="blurOut2" type="matrix" values="0 0 0 0 0 0 0 0 0 0 0 0 0 0 0 0 0 0 .4 0"/><feOffset dx="4.0" dy="4.0" in="blurOut2" result="blurOut3"/><feBlend in="SourceGraphic" in2="blurOut3" mode="normal"/></filter></defs><g><!--cluster laplacian--><polygon fill="#FFFFFF" filter="url(#fo6sfj0bh7zeh)" points="225,77.5,295,77.5,302,99.9883,552,99.9883,552,798.5,225,798.5,225,77.5" style="stroke: #000000; stroke-width: 1.5;"/><line style="stroke: #000000; stroke-width: 1.5;" x1="225" x2="302" y1="99.9883" y2="99.9883"/><text fill="#000000" font-family="sans-serif" font-size="14" font-weight="bold" lengthAdjust="spacingAndGlyphs" textLength="64" x="229" y="93.0352">laplacian</text><!--entity common-model--><rect fill="#FEFECE" filter="url(#fo6sfj0bh7zeh)" height="52.9766" style="stroke: #A80036; stroke-width: 1.5;" width="137" x="320" y="113"/><rect fill="#FEFECE" height="5" style="stroke: #A80036; stroke-width: 1.5;" width="10" x="315" y="118"/><rect fill="#FEFECE" height="5" style="stroke: #A80036; stroke-width: 1.5;" width="10" x="315" y="155.9766"/><text fill="#000000" font-family="sans-serif" font-size="14" font-style="italic" lengthAdjust="spacingAndGlyphs" textLength="117" x="330" y="136.5352">«domain-model»</text><text fill="#000000" font-family="sans-serif" font-size="14" lengthAdjust="spacingAndGlyphs" textLength="111" x="333" y="153.0234">common-model</text><!--entity domain-model-plugin.project-template--><rect fill="#FEFECE" filter="url(#fo6sfj0bh7zeh)" height="52.9766" style="stroke: #A80036; stroke-width: 1.5;" width="295" x="241" y="553"/><rect fill="#FEFECE" height="5" style="stroke: #A80036; stroke-width: 1.5;" width="10" x="236" y="558"/><rect fill="#FEFECE" height="5" style="stroke: #A80036; stroke-width: 1.5;" width="10" x="236" y="595.9766"/><text fill="#000000" font-family="sans-serif" font-size="14" font-style="italic" lengthAdjust="spacingAndGlyphs" textLength="74" x="351.5" y="576.5352">«template»</text><text fill="#000000" font-family="sans-serif" font-size="14" lengthAdjust="spacingAndGlyphs" textLength="275" x="251" y="593.0234">domain-model-plugin.project-template</text><!--entity domain-model.project-template--><rect fill="#FEFECE" filter="url(#fo6sfj0bh7zeh)" height="52.9766" style="stroke: #A80036; stroke-width: 1.5;" width="243" x="267" y="465"/><rect fill="#FEFECE" height="5" style="stroke: #A80036; stroke-width: 1.5;" width="10" x="262" y="470"/><rect fill="#FEFECE" height="5" style="stroke: #A80036; stroke-width: 1.5;" width="10" x="262" y="507.9766"/><text fill="#000000" font-family="sans-serif" font-size="14" font-style="italic" lengthAdjust="spacingAndGlyphs" textLength="74" x="351.5" y="488.5352">«template»</text><text fill="#000000" font-family="sans-serif" font-size="14" lengthAdjust="spacingAndGlyphs" textLength="223" x="277" y="505.0234">domain-model.project-template</text><!--entity generator.project-template--><rect fill="#FEFECE" filter="url(#fo6sfj0bh7zeh)" height="52.9766" style="stroke: #A80036; stroke-width: 1.5;" width="208" x="284.5" y="377"/><rect fill="#FEFECE" height="5" style="stroke: #A80036; stroke-width: 1.5;" width="10" x="279.5" y="382"/><rect fill="#FEFECE" height="5" style="stroke: #A80036; stroke-width: 1.5;" width="10" x="279.5" y="419.9766"/><text fill="#000000" font-family="sans-serif" font-size="14" font-style="italic" lengthAdjust="spacingAndGlyphs" textLength="74" x="351.5" y="400.5352">«template»</text><text fill="#000000" font-family="sans-serif" font-size="14" lengthAdjust="spacingAndGlyphs" textLength="188" x="294.5" y="417.0234">generator.project-template</text><!--entity metamodel--><rect fill="#FEFECE" filter="url(#fo6sfj0bh7zeh)" height="52.9766" style="stroke: #A80036; stroke-width: 1.5;" width="137" x="320" y="641"/><rect fill="#FEFECE" height="5" style="stroke: #A80036; stroke-width: 1.5;" width="10" x="315" y="646"/><rect fill="#FEFECE" height="5" style="stroke: #A80036; stroke-width: 1.5;" width="10" x="315" y="683.9766"/><text fill="#000000" font-family="sans-serif" font-size="14" font-style="italic" lengthAdjust="spacingAndGlyphs" textLength="117" x="330" y="664.5352">«domain-model»</text><text fill="#000000" font-family="sans-serif" font-size="14" lengthAdjust="spacingAndGlyphs" textLength="77" x="350" y="681.0234">metamodel</text><!--entity project-group.project-template--><rect fill="#FEFECE" filter="url(#fo6sfj0bh7zeh)" height="52.9766" style="stroke: #A80036; stroke-width: 1.5;" width="238" x="269.5" y="729"/><rect fill="#FEFECE" height="5" style="stroke: #A80036; stroke-width: 1.5;" width="10" x="264.5" y="734"/><rect fill="#FEFECE" height="5" style="stroke: #A80036; stroke-width: 1.5;" width="10" x="264.5" y="771.9766"/><text fill="#000000" font-family="sans-serif" font-size="14" font-style="italic" lengthAdjust="spacingAndGlyphs" textLength="112" x="332.5" y="752.5352">«project-group»</text><text fill="#000000" font-family="sans-serif" font-size="14" lengthAdjust="spacingAndGlyphs" textLength="218" x="279.5" y="769.0234">project-group.project-template</text><!--entity project.domain-model--><rect fill="#FEFECE" filter="url(#fo6sfj0bh7zeh)" height="52.9766" style="stroke: #A80036; stroke-width: 1.5;" width="175" x="301" y="201"/><rect fill="#FEFECE" height="5" style="stroke: #A80036; stroke-width: 1.5;" width="10" x="296" y="206"/><rect fill="#FEFECE" height="5" style="stroke: #A80036; stroke-width: 1.5;" width="10" x="296" y="243.9766"/><text fill="#000000" font-family="sans-serif" font-size="14" font-style="italic" lengthAdjust="spacingAndGlyphs" textLength="117" x="330" y="224.5352">«domain-model»</text><text fill="#000000" font-family="sans-serif" font-size="14" lengthAdjust="spacingAndGlyphs" textLength="155" x="311" y="241.0234">project.domain-model</text><!--entity project.project-types--><rect fill="#FEFECE" filter="url(#fo6sfj0bh7zeh)" height="52.9766" style="stroke: #A80036; stroke-width: 1.5;" width="164" x="306.5" y="289"/><rect fill="#FEFECE" height="5" style="stroke: #A80036; stroke-width: 1.5;" width="10" x="301.5" y="294"/><rect fill="#FEFECE" height="5" style="stroke: #A80036; stroke-width: 1.5;" width="10" x="301.5" y="331.9766"/><text fill="#000000" font-family="sans-serif" font-size="14" font-style="italic" lengthAdjust="spacingAndGlyphs" textLength="106" x="335.5" y="312.5352">«project-types»</text><text fill="#000000" font-family="sans-serif" font-size="14" lengthAdjust="spacingAndGlyphs" textLength="144" x="316.5" y="329.0234">project.project-types</text><!--entity domain-model-plugin--><rect fill="#FEFECE" filter="url(#fo6sfj0bh7zeh)" height="52.9766" style="stroke: #A80036; stroke-width: 1.5;" width="175" x="6" y="553"/><rect fill="#FEFECE" height="5" style="stroke: #A80036; stroke-width: 1.5;" width="10" x="1" y="558"/><rect fill="#FEFECE" height="5" style="stroke: #A80036; stroke-width: 1.5;" width="10" x="1" y="595.9766"/><text fill="#000000" font-family="sans-serif" font-size="14" font-style="italic" lengthAdjust="spacingAndGlyphs" textLength="95" x="46" y="576.5352">«project type»</text><text fill="#000000" font-family="sans-serif" font-size="14" lengthAdjust="spacingAndGlyphs" textLength="155" x="16" y="593.0234">domain-model-plugin</text><!--entity domain-model--><rect fill="#FEFECE" filter="url(#fo6sfj0bh7zeh)" height="52.9766" style="stroke: #A80036; stroke-width: 1.5;" width="123" x="327" y="817"/><rect fill="#FEFECE" height="5" style="stroke: #A80036; stroke-width: 1.5;" width="10" x="322" y="822"/><rect fill="#FEFECE" height="5" style="stroke: #A80036; stroke-width: 1.5;" width="10" x="322" y="859.9766"/><text fill="#000000" font-family="sans-serif" font-size="14" font-style="italic" lengthAdjust="spacingAndGlyphs" textLength="95" x="341" y="840.5352">«project type»</text><text fill="#000000" font-family="sans-serif" font-size="14" lengthAdjust="spacingAndGlyphs" textLength="103" x="337" y="857.0234">domain-model</text><!--entity generator--><rect fill="#FEFECE" filter="url(#fo6sfj0bh7zeh)" height="52.9766" style="stroke: #A80036; stroke-width: 1.5;" width="115" x="771" y="289"/><rect fill="#FEFECE" height="5" style="stroke: #A80036; stroke-width: 1.5;" width="10" x="766" y="294"/><rect fill="#FEFECE" height="5" style="stroke: #A80036; stroke-width: 1.5;" width="10" x="766" y="331.9766"/><text fill="#000000" font-family="sans-serif" font-size="14" font-style="italic" lengthAdjust="spacingAndGlyphs" textLength="95" x="781" y="312.5352">«project type»</text><text fill="#000000" font-family="sans-serif" font-size="14" lengthAdjust="spacingAndGlyphs" textLength="68" x="794.5" y="329.0234">generator</text><!--entity model--><rect fill="#FEFECE" filter="url(#fo6sfj0bh7zeh)" height="52.9766" style="stroke: #A80036; stroke-width: 1.5;" width="115" x="596" y="861"/><rect fill="#FEFECE" height="5" style="stroke: #A80036; stroke-width: 1.5;" width="10" x="591" y="866"/><rect fill="#FEFECE" height="5" style="stroke: #A80036; stroke-width: 1.5;" width="10" x="591" y="903.9766"/><text fill="#000000" font-family="sans-serif" font-size="14" font-style="italic" lengthAdjust="spacingAndGlyphs" textLength="95" x="606" y="884.5352">«project type»</text><text fill="#000000" font-family="sans-serif" font-size="14" lengthAdjust="spacingAndGlyphs" textLength="43" x="632" y="901.0234">model</text><!--entity plugin--><rect fill="#FEFECE" filter="url(#fo6sfj0bh7zeh)" height="52.9766" style="stroke: #A80036; stroke-width: 1.5;" width="115" x="331" y="8"/><rect fill="#FEFECE" height="5" style="stroke: #A80036; stroke-width: 1.5;" width="10" x="326" y="13"/><rect fill="#FEFECE" height="5" style="stroke: #A80036; stroke-width: 1.5;" width="10" x="326" y="50.9766"/><text fill="#000000" font-family="sans-serif" font-size="14" font-style="italic" lengthAdjust="spacingAndGlyphs" textLength="95" x="341" y="31.5352">«project type»</text><text fill="#000000" font-family="sans-serif" font-size="14" lengthAdjust="spacingAndGlyphs" textLength="44" x="366.5" y="48.0234">plugin</text><!--entity project-group--><rect fill="#FEFECE" filter="url(#fo6sfj0bh7zeh)" height="52.9766" style="stroke: #A80036; stroke-width: 1.5;" width="118" x="329.5" y="905"/><rect fill="#FEFECE" height="5" style="stroke: #A80036; stroke-width: 1.5;" width="10" x="324.5" y="910"/><rect fill="#FEFECE" height="5" style="stroke: #A80036; stroke-width: 1.5;" width="10" x="324.5" y="947.9766"/><text fill="#000000" font-family="sans-serif" font-size="14" font-style="italic" lengthAdjust="spacingAndGlyphs" textLength="95" x="341" y="928.5352">«project type»</text><text fill="#000000" font-family="sans-serif" font-size="14" lengthAdjust="spacingAndGlyphs" textLength="98" x="339.5" y="945.0234">project-group</text><!--entity project-types--><rect fill="#FEFECE" filter="url(#fo6sfj0bh7zeh)" height="52.9766" style="stroke: #A80036; stroke-width: 1.5;" width="115" x="331" y="993"/><rect fill="#FEFECE" height="5" style="stroke: #A80036; stroke-width: 1.5;" width="10" x="326" y="998"/><rect fill="#FEFECE" height="5" style="stroke: #A80036; stroke-width: 1.5;" width="10" x="326" y="1035.9766"/><text fill="#000000" font-family="sans-serif" font-size="14" font-style="italic" lengthAdjust="spacingAndGlyphs" textLength="95" x="341" y="1016.5352">«project type»</text><text fill="#000000" font-family="sans-serif" font-size="14" lengthAdjust="spacingAndGlyphs" textLength="92" x="342.5" y="1033.0234">project-types</text><!--entity template--><rect fill="#FEFECE" filter="url(#fo6sfj0bh7zeh)" height="52.9766" style="stroke: #A80036; stroke-width: 1.5;" width="115" x="596" y="461"/><rect fill="#FEFECE" height="5" style="stroke: #A80036; stroke-width: 1.5;" width="10" x="591" y="466"/><rect fill="#FEFECE" height="5" style="stroke: #A80036; stroke-width: 1.5;" width="10" x="591" y="503.9766"/><text fill="#000000" font-family="sans-serif" font-size="14" font-style="italic" lengthAdjust="spacingAndGlyphs" textLength="95" x="606" y="484.5352">«project type»</text><text fill="#000000" font-family="sans-serif" font-size="14" lengthAdjust="spacingAndGlyphs" textLength="60" x="623.5" y="501.0234">template</text><!--entity metamodel-plugin--><rect fill="#FEFECE" filter="url(#fo6sfj0bh7zeh)" height="36.4883" style="stroke: #A80036; stroke-width: 1.5;" width="149" x="985" y="226.5"/><rect fill="#FEFECE" height="5" style="stroke: #A80036; stroke-width: 1.5;" width="10" x="980" y="231.5"/><rect fill="#FEFECE" height="5" style="stroke: #A80036; stroke-width: 1.5;" width="10" x="980" y="252.9883"/><text fill="#000000" font-family="sans-serif" font-size="14" lengthAdjust="spacingAndGlyphs" textLength="129" x="995" y="250.0352">metamodel-plugin</text><!--entity project.domain-model-plugin--><rect fill="#FEFECE" filter="url(#fo6sfj0bh7zeh)" height="36.4883" style="stroke: #A80036; stroke-width: 1.5;" width="227" x="946" y="297.5"/><rect fill="#FEFECE" height="5" style="stroke: #A80036; stroke-width: 1.5;" width="10" x="941" y="302.5"/><rect fill="#FEFECE" height="5" style="stroke: #A80036; stroke-width: 1.5;" width="10" x="941" y="323.9883"/><text fill="#000000" font-family="sans-serif" font-size="14" lengthAdjust="spacingAndGlyphs" textLength="207" x="956" y="321.0352">project.domain-model-plugin</text><!--entity common-model-plugin--><rect fill="#FEFECE" filter="url(#fo6sfj0bh7zeh)" height="36.4883" style="stroke: #A80036; stroke-width: 1.5;" width="183" x="968" y="368.5"/><rect fill="#FEFECE" height="5" style="stroke: #A80036; stroke-width: 1.5;" width="10" x="963" y="373.5"/><rect fill="#FEFECE" height="5" style="stroke: #A80036; stroke-width: 1.5;" width="10" x="963" y="394.9883"/><text fill="#000000" font-family="sans-serif" font-size="14" lengthAdjust="spacingAndGlyphs" textLength="163" x="978" y="392.0352">common-model-plugin</text><!--link domain-model-plugin to plugin--><path d="M97.95,552.88 C110.21,462.01 154.33,165.8 217,96.5 C244.79,65.77 289.03,50.25 325.48,42.43 " fill="none" id="domain-model-plugin-plugin" style="stroke: #A80036; stroke-width: 1.0;"/><polygon fill="#A80036" points="330.8,41.33,321.1748,39.2429,325.9044,42.3463,322.801,47.0759,330.8,41.33" style="stroke: #A80036; stroke-width: 1.0;"/><!--link domain-model to model--><path d="M450.17,853.65 C492.3,860.7 548.25,870.06 590.64,877.15 " fill="none" id="domain-model-model" style="stroke: #A80036; stroke-width: 1.0;"/><polygon fill="#A80036" points="595.74,878,587.5124,872.5864,590.8069,877.185,586.2083,880.4794,595.74,878" style="stroke: #A80036; stroke-width: 1.0;"/><!--link model to generator--><path d="M662.61,860.68 C691.19,766.19 787.12,449.02 817.9,347.23 " fill="none" id="model-generator" style="stroke: #A80036; stroke-width: 1.0;"/><polygon fill="#A80036" points="819.41,342.26,812.962,349.7047,817.9536,347.0432,820.6151,352.0349,819.41,342.26" style="stroke: #A80036; stroke-width: 1.0;"/><!--link plugin to generator--><path d="M446.27,51.2 C480.16,62.12 523.56,77.82 560,96.5 C632.29,133.56 648.39,147.73 711,199.5 C743.36,226.26 777.01,260.58 799.77,284.92 " fill="none" id="plugin-generator" style="stroke: #A80036; stroke-width: 1.0;"/><polygon fill="#A80036" points="803.33,288.74,800.1121,279.4317,799.9179,285.0852,794.2644,284.891,803.33,288.74" style="stroke: #A80036; stroke-width: 1.0;"/><!--link project-group to model--><path d="M447.54,921.79 C490.07,914.67 547.7,905.03 591.02,897.79 " fill="none" id="project-group-model" style="stroke: #A80036; stroke-width: 1.0;"/><polygon fill="#A80036" points="595.96,896.96,586.4214,894.5075,591.0292,897.7889,587.7477,902.3967,595.96,896.96" style="stroke: #A80036; stroke-width: 1.0;"/><!--link project-types to model--><path d="M446.31,1012.24 C480.82,1006.08 524.85,995 560,975.5 C586.17,960.98 610.46,937.31 627.58,918.16 " fill="none" id="project-types-model" style="stroke: #A80036; stroke-width: 1.0;"/><polygon fill="#A80036" points="630.9,914.4,621.9388,918.4862,627.5853,918.1433,627.9282,923.7898,630.9,914.4" style="stroke: #A80036; stroke-width: 1.0;"/><!--link template to generator--><path d="M681.53,460.62 C712.76,429.57 764.04,378.59 796.76,346.06 " fill="none" id="template-generator" style="stroke: #A80036; stroke-width: 1.0;"/><polygon fill="#A80036" points="800.66,342.19,791.4605,345.707,797.1173,345.7184,797.1059,351.3752,800.66,342.19" style="stroke: #A80036; stroke-width: 1.0;"/><!--link common-model to domain-model--><path d="M319.63,138.38 C273.54,141.98 217.98,156.08 199,201 C186.46,230.68 186.46,751.32 199,781 C218.32,826.72 275.37,840.84 321.87,844.41 " fill="none" id="common-model-domain-model" style="stroke: #A80036; stroke-width: 1.0;"/><polygon fill="#A80036" points="326.91,844.76,318.2056,840.152,321.9218,844.417,317.6568,848.1331,326.91,844.76" style="stroke: #A80036; stroke-width: 1.0;"/><!--link domain-model-plugin.project-template to template--><path d="M507.08,552.89 C525.02,547.76 543.16,541.95 560,535.5 C573.97,530.15 588.56,523.26 601.91,516.37 " fill="none" id="domain-model-plugin.project-template-template" style="stroke: #A80036; stroke-width: 1.0;"/><polygon fill="#A80036" points="606.39,514.03,596.5609,514.6533,601.9586,516.3458,600.2661,521.7435,606.39,514.03" style="stroke: #A80036; stroke-width: 1.0;"/><!--link domain-model.project-template to template--><path d="M510.22,489.66 C538.08,489.24 566.6,488.81 590.71,488.44 " fill="none" id="domain-model.project-template-template" style="stroke: #A80036; stroke-width: 1.0;"/><polygon fill="#A80036" points="595.78,488.36,586.7238,484.489,590.7805,488.4314,586.8381,492.4882,595.78,488.36" style="stroke: #A80036; stroke-width: 1.0;"/><!--link generator.project-template to template--><path d="M492.6,427.35 C515.01,433.3 538.46,440.11 560,447.5 C570.19,450.99 580.83,455.12 591.11,459.38 " fill="none" id="generator.project-template-template" style="stroke: #A80036; stroke-width: 1.0;"/><polygon fill="#A80036" points="595.81,461.34,589.0486,454.1787,591.1967,459.4119,585.9636,461.56,595.81,461.34" style="stroke: #A80036; stroke-width: 1.0;"/><!--link metamodel to domain-model--><path d="M319.63,666.38 C273.54,669.98 217.98,684.08 199,729 C186.58,758.39 189.21,782.81 217,798.5 C249.06,816.6 288.6,827.61 321.63,834.2 " fill="none" id="metamodel-domain-model" style="stroke: #A80036; stroke-width: 1.0;"/><polygon fill="#A80036" points="326.87,835.22,318.8007,829.5732,321.9622,834.2641,317.2713,837.4256,326.87,835.22" style="stroke: #A80036; stroke-width: 1.0;"/><!--link domain-model to metamodel--><path d="M326.87,835.22 C292.85,828.77 250.77,817.57 217,798.5 C189.21,782.81 186.58,758.39 199,729 C217.28,685.74 269.47,671.07 314.46,666.83 " fill="none" id="domain-model-metamodel" style="stroke: #A80036; stroke-width: 1.0; stroke-dasharray: 7.0,7.0;"/><polygon fill="#A80036" points="319.63,666.38,310.3205,663.1655,314.6484,666.8082,311.0056,671.1361,319.63,666.38" style="stroke: #A80036; stroke-width: 1.0;"/><!--link project-group.project-template to project-group--><path d="M269.13,777.51 C251.05,783.27 233.09,790.48 217,799.5 C188.8,815.32 186.41,840.21 199,870 C218.61,916.42 277.28,929.92 324.19,932.94 " fill="none" id="project-group.project-template-project-group" style="stroke: #A80036; stroke-width: 1.0;"/><polygon fill="#A80036" points="329.27,933.23,320.5136,928.7216,324.2782,932.9439,320.0559,936.7085,329.27,933.23" style="stroke: #A80036; stroke-width: 1.0;"/><!--link project-group to project-group.project-template--><path d="M329.27,933.23 C281.6,930.86 219.33,918.11 199,870 C186.41,840.21 188.8,815.32 217,799.5 C231.58,791.32 247.7,784.63 264.05,779.17 " fill="none" id="project-group-project-group.project-template" style="stroke: #A80036; stroke-width: 1.0; stroke-dasharray: 7.0,7.0;"/><polygon fill="#A80036" points="269.13,777.51,259.335,776.4817,264.3739,779.0525,261.803,784.0914,269.13,777.51" style="stroke: #A80036; stroke-width: 1.0;"/><!--link project.domain-model to domain-model--><path d="M300.85,228.42 C259.41,234.27 215.46,250.05 199,289 C177.72,339.36 177.72,730.64 199,781 C218.32,826.72 275.37,840.84 321.87,844.41 " fill="none" id="project.domain-model-domain-model" style="stroke: #A80036; stroke-width: 1.0;"/><polygon fill="#A80036" points="326.91,844.76,318.2056,840.152,321.9218,844.417,317.6568,848.1331,326.91,844.76" style="stroke: #A80036; stroke-width: 1.0;"/><!--link project.project-types to project-types--><path d="M306.42,315.69 C263.42,320.9 216.2,336.3 199,377 C186.44,406.73 186.44,928.27 199,958 C218.81,1004.88 278.45,1018.19 325.59,1021.03 " fill="none" id="project.project-types-project-types" style="stroke: #A80036; stroke-width: 1.0;"/><polygon fill="#A80036" points="330.69,1021.3,321.9208,1016.8167,325.6974,1021.0282,321.4859,1024.8048,330.69,1021.3" style="stroke: #A80036; stroke-width: 1.0;"/><!--link domain-model-plugin to metamodel--><path d="M165.06,606.1 C181.97,612.12 200.05,618.28 217,623.5 C248.76,633.28 284.29,642.69 314.67,650.28 " fill="none" id="domain-model-plugin-metamodel" style="stroke: #A80036; stroke-width: 1.0; stroke-dasharray: 7.0,7.0;"/><polygon fill="#A80036" points="319.89,651.58,312.1289,645.5166,315.0393,650.3673,310.1886,653.2777,319.89,651.58" style="stroke: #A80036; stroke-width: 1.0;"/><!--link domain-model-plugin to domain-model-plugin.project-template--><path d="M181.22,579.5 C198.42,579.5 216.94,579.5 235.59,579.5 " fill="none" id="domain-model-plugin-domain-model-plugin.project-template" style="stroke: #A80036; stroke-width: 1.0; stroke-dasharray: 7.0,7.0;"/><polygon fill="#A80036" points="240.85,579.5,231.85,575.5,235.85,579.5,231.85,583.5,240.85,579.5" style="stroke: #A80036; stroke-width: 1.0;"/><!--link domain-model to domain-model.project-template--><path d="M326.91,844.76 C279.58,841.83 219.02,828.39 199,781 C179.28,734.33 179.28,599.67 199,553 C210.26,526.34 234.4,510.54 261.8,501.35 " fill="none" id="domain-model-domain-model.project-template" style="stroke: #A80036; stroke-width: 1.0; stroke-dasharray: 7.0,7.0;"/><polygon fill="#A80036" points="266.58,499.82,256.7917,498.7299,261.8142,501.3325,259.2116,506.3551,266.58,499.82" style="stroke: #A80036; stroke-width: 1.0;"/><!--link generator to project.project-types--><path d="M770.88,315.5 C695.96,315.5 563.21,315.5 475.77,315.5 " fill="none" id="generator-project.project-types" style="stroke: #A80036; stroke-width: 1.0; stroke-dasharray: 7.0,7.0;"/><polygon fill="#A80036" points="470.6,315.5,479.6,319.5,475.6,315.5,479.6,311.5,470.6,315.5" style="stroke: #A80036; stroke-width: 1.0;"/><!--link generator to project.domain-model--><path d="M770.98,302.54 C751.95,298.27 730.58,293.57 711,289.5 C633.71,273.43 545.66,256.54 481.27,244.46 " fill="none" id="generator-project.domain-model" style="stroke: #A80036; stroke-width: 1.0; stroke-dasharray: 7.0,7.0;"/><polygon fill="#A80036" points="476.28,243.53,484.3965,249.1087,481.1957,244.4445,485.8598,241.2437,476.28,243.53" style="stroke: #A80036; stroke-width: 1.0;"/><!--link generator to common-model--><path d="M779.98,288.87 C759.01,277.36 733.95,263.93 711,252.5 C644.96,219.6 629.55,208.15 560,183.5 C528.41,172.3 492.61,162.63 461.99,155.22 " fill="none" id="generator-common-model" style="stroke: #A80036; stroke-width: 1.0; stroke-dasharray: 7.0,7.0;"/><polygon fill="#A80036" points="457.12,154.05,464.948,160.0268,461.9839,155.2087,466.802,152.2446,457.12,154.05" style="stroke: #A80036; stroke-width: 1.0;"/><!--link generator to generator.project-template--><path d="M770.82,326.89 C701.97,340.72 584.33,364.36 497.87,381.73 " fill="none" id="generator-generator.project-template" style="stroke: #A80036; stroke-width: 1.0; stroke-dasharray: 7.0,7.0;"/><polygon fill="#A80036" points="492.75,382.76,502.3621,384.9065,497.6518,381.7739,500.7844,377.0636,492.75,382.76" style="stroke: #A80036; stroke-width: 1.0;"/><!--link generator to metamodel-plugin--><path d="M886.11,297.95 C919.18,287.69 961,274.73 995.17,264.14 " fill="none" id="generator-metamodel-plugin" style="stroke: #A80036; stroke-width: 1.0; stroke-dasharray: 7.0,7.0;"/><polygon fill="#A80036" points="1000.15,262.59,990.3677,261.4465,995.3761,264.0765,992.7461,269.0848,1000.15,262.59" style="stroke: #A80036; stroke-width: 1.0;"/><!--link generator to project.domain-model-plugin--><path d="M886.11,315.5 C902.69,315.5 921.48,315.5 940.39,315.5 " fill="none" id="generator-project.domain-model-plugin" style="stroke: #A80036; stroke-width: 1.0; stroke-dasharray: 7.0,7.0;"/><polygon fill="#A80036" points="945.73,315.5,936.73,311.5,940.73,315.5,936.73,319.5,945.73,315.5" style="stroke: #A80036; stroke-width: 1.0;"/><!--link generator to common-model-plugin--><path d="M886.11,333.05 C919.18,343.31 961,356.27 995.17,366.86 " fill="none" id="generator-common-model-plugin" style="stroke: #A80036; stroke-width: 1.0; stroke-dasharray: 7.0,7.0;"/><polygon fill="#A80036" points="1000.15,368.41,992.7461,361.9152,995.3761,366.9235,990.3677,369.5535,1000.15,368.41" style="stroke: #A80036; stroke-width: 1.0;"/><!--
@startuml
left to right direction

[domain-model-plugin] <<project type>>
[domain-model] <<project type>>
[generator] <<project type>>
[model] <<project type>>
[plugin] <<project type>>
[project-group] <<project type>>
[project-types] <<project type>>
[template] <<project type>>


[domain-model-plugin] - -> [plugin]
[domain-model] - -> [model]
[model] - -> [generator]
[plugin] - -> [generator]
[project-group] - -> [model]
[project-types] - -> [model]
[template] - -> [generator]


package "laplacian" {
  [common-model] <<domain-model>>
  [common-model] - -> [domain-model]
  [domain-model-plugin.project-template] <<template>>
  [domain-model-plugin.project-template] - -> [template]
  [domain-model.project-template] <<template>>
  [domain-model.project-template] - -> [template]
  [generator.project-template] <<template>>
  [generator.project-template] - -> [template]
  [metamodel] <<domain-model>>
  [metamodel] - -> [domain-model]
  [project-group.project-template] <<project-group>>
  [project-group.project-template] - -> [project-group]
  [project.domain-model] <<domain-model>>
  [project.domain-model] - -> [domain-model]
  [project.project-types] <<project-types>>
  [project.project-types] - -> [project-types]
}



  [domain-model-plugin] ..> [metamodel]
  [domain-model-plugin] ..> [domain-model-plugin.project-template]

  [domain-model] ..> [metamodel]
  [domain-model] ..> [domain-model.project-template]

  [generator] ..> [project.project-types]
  [generator] ..> [project.domain-model]
  [generator] ..> [common-model]
  [generator] ..> [generator.project-template]
  [generator] ..> [metamodel-plugin]
  [generator] ..> [project.domain-model-plugin]
  [generator] ..> [common-model-plugin]



  [project-group] ..> [project-group.project-template]




@enduml

PlantUML version 1.2019.05(Sun Apr 21 01:45:36 JST 2019)
(GPL source distribution)
Java Runtime: OpenJDK Runtime Environment
JVM: OpenJDK 64-Bit Server VM
Java Version: 1.8.0_222-b10
Operating System: Mac OS X
OS Version: 10.15.4
Default Encoding: UTF-8
Language: en
Country: JP
--></g></svg>