<?xml version="1.0" encoding="UTF-8" standalone="no"?><svg xmlns="http://www.w3.org/2000/svg" xmlns:xlink="http://www.w3.org/1999/xlink" contentScriptType="application/ecmascript" contentStyleType="text/css" height="1824px" preserveAspectRatio="none" style="width:1354px;height:1824px;" version="1.1" viewBox="0 0 1354 1824" width="1354px" zoomAndPan="magnify"><defs><filter height="300%" id="fwybz8ykse2lt" width="300%" x="-1" y="-1"><feGaussianBlur result="blurOut" stdDeviation="2.0"/><feColorMatrix in="blurOut" result="blurOut2" type="matrix" values="0 0 0 0 0 0 0 0 0 0 0 0 0 0 0 0 0 0 .4 0"/><feOffset dx="4.0" dy="4.0" in="blurOut2" result="blurOut3"/><feBlend in="SourceGraphic" in2="blurOut3" mode="normal"/></filter></defs><g><!--cluster laplacian--><polygon fill="#FFFFFF" filter="url(#fwybz8ykse2lt)" points="225,204,295,204,302,226.4883,552,226.4883,552,925,225,925,225,204" style="stroke: #000000; stroke-width: 1.5;"/><line style="stroke: #000000; stroke-width: 1.5;" x1="225" x2="302" y1="226.4883" y2="226.4883"/><text fill="#000000" font-family="sans-serif" font-size="14" font-weight="bold" lengthAdjust="spacingAndGlyphs" textLength="64" x="229" y="219.5352">laplacian</text><!--entity common-model--><rect fill="#FEFECE" filter="url(#fwybz8ykse2lt)" height="52.9766" style="stroke: #A80036; stroke-width: 1.5;" width="137" x="320" y="767.5"/><rect fill="#FEFECE" height="5" style="stroke: #A80036; stroke-width: 1.5;" width="10" x="315" y="772.5"/><rect fill="#FEFECE" height="5" style="stroke: #A80036; stroke-width: 1.5;" width="10" x="315" y="810.4766"/><text fill="#000000" font-family="sans-serif" font-size="14" font-style="italic" lengthAdjust="spacingAndGlyphs" textLength="117" x="330" y="791.0352">«domain-model»</text><text fill="#000000" font-family="sans-serif" font-size="14" lengthAdjust="spacingAndGlyphs" textLength="111" x="333" y="807.5234">common-model</text><!--entity domain-model-plugin.project-template--><rect fill="#FEFECE" filter="url(#fwybz8ykse2lt)" height="52.9766" style="stroke: #A80036; stroke-width: 1.5;" width="295" x="241" y="415.5"/><rect fill="#FEFECE" height="5" style="stroke: #A80036; stroke-width: 1.5;" width="10" x="236" y="420.5"/><rect fill="#FEFECE" height="5" style="stroke: #A80036; stroke-width: 1.5;" width="10" x="236" y="458.4766"/><text fill="#000000" font-family="sans-serif" font-size="14" font-style="italic" lengthAdjust="spacingAndGlyphs" textLength="74" x="351.5" y="439.0352">«template»</text><text fill="#000000" font-family="sans-serif" font-size="14" lengthAdjust="spacingAndGlyphs" textLength="275" x="251" y="455.5234">domain-model-plugin.project-template</text><!--entity domain-model.project-template--><rect fill="#FEFECE" filter="url(#fwybz8ykse2lt)" height="52.9766" style="stroke: #A80036; stroke-width: 1.5;" width="243" x="267" y="327.5"/><rect fill="#FEFECE" height="5" style="stroke: #A80036; stroke-width: 1.5;" width="10" x="262" y="332.5"/><rect fill="#FEFECE" height="5" style="stroke: #A80036; stroke-width: 1.5;" width="10" x="262" y="370.4766"/><text fill="#000000" font-family="sans-serif" font-size="14" font-style="italic" lengthAdjust="spacingAndGlyphs" textLength="74" x="351.5" y="351.0352">«template»</text><text fill="#000000" font-family="sans-serif" font-size="14" lengthAdjust="spacingAndGlyphs" textLength="223" x="277" y="367.5234">domain-model.project-template</text><!--entity generator.project-template--><rect fill="#FEFECE" filter="url(#fwybz8ykse2lt)" height="52.9766" style="stroke: #A80036; stroke-width: 1.5;" width="208" x="284.5" y="239.5"/><rect fill="#FEFECE" height="5" style="stroke: #A80036; stroke-width: 1.5;" width="10" x="279.5" y="244.5"/><rect fill="#FEFECE" height="5" style="stroke: #A80036; stroke-width: 1.5;" width="10" x="279.5" y="282.4766"/><text fill="#000000" font-family="sans-serif" font-size="14" font-style="italic" lengthAdjust="spacingAndGlyphs" textLength="74" x="351.5" y="263.0352">«template»</text><text fill="#000000" font-family="sans-serif" font-size="14" lengthAdjust="spacingAndGlyphs" textLength="188" x="294.5" y="279.5234">generator.project-template</text><!--entity metamodel--><rect fill="#FEFECE" filter="url(#fwybz8ykse2lt)" height="52.9766" style="stroke: #A80036; stroke-width: 1.5;" width="137" x="320" y="855.5"/><rect fill="#FEFECE" height="5" style="stroke: #A80036; stroke-width: 1.5;" width="10" x="315" y="860.5"/><rect fill="#FEFECE" height="5" style="stroke: #A80036; stroke-width: 1.5;" width="10" x="315" y="898.4766"/><text fill="#000000" font-family="sans-serif" font-size="14" font-style="italic" lengthAdjust="spacingAndGlyphs" textLength="117" x="330" y="879.0352">«domain-model»</text><text fill="#000000" font-family="sans-serif" font-size="14" lengthAdjust="spacingAndGlyphs" textLength="77" x="350" y="895.5234">metamodel</text><!--entity project-group.project-template--><rect fill="#FEFECE" filter="url(#fwybz8ykse2lt)" height="52.9766" style="stroke: #A80036; stroke-width: 1.5;" width="238" x="269.5" y="679.5"/><rect fill="#FEFECE" height="5" style="stroke: #A80036; stroke-width: 1.5;" width="10" x="264.5" y="684.5"/><rect fill="#FEFECE" height="5" style="stroke: #A80036; stroke-width: 1.5;" width="10" x="264.5" y="722.4766"/><text fill="#000000" font-family="sans-serif" font-size="14" font-style="italic" lengthAdjust="spacingAndGlyphs" textLength="112" x="332.5" y="703.0352">«project-group»</text><text fill="#000000" font-family="sans-serif" font-size="14" lengthAdjust="spacingAndGlyphs" textLength="218" x="279.5" y="719.5234">project-group.project-template</text><!--entity project.domain-model--><rect fill="#FEFECE" filter="url(#fwybz8ykse2lt)" height="52.9766" style="stroke: #A80036; stroke-width: 1.5;" width="175" x="301" y="591.5"/><rect fill="#FEFECE" height="5" style="stroke: #A80036; stroke-width: 1.5;" width="10" x="296" y="596.5"/><rect fill="#FEFECE" height="5" style="stroke: #A80036; stroke-width: 1.5;" width="10" x="296" y="634.4766"/><text fill="#000000" font-family="sans-serif" font-size="14" font-style="italic" lengthAdjust="spacingAndGlyphs" textLength="117" x="330" y="615.0352">«domain-model»</text><text fill="#000000" font-family="sans-serif" font-size="14" lengthAdjust="spacingAndGlyphs" textLength="155" x="311" y="631.5234">project.domain-model</text><!--entity project.project-types--><rect fill="#FEFECE" filter="url(#fwybz8ykse2lt)" height="52.9766" style="stroke: #A80036; stroke-width: 1.5;" width="164" x="306.5" y="503.5"/><rect fill="#FEFECE" height="5" style="stroke: #A80036; stroke-width: 1.5;" width="10" x="301.5" y="508.5"/><rect fill="#FEFECE" height="5" style="stroke: #A80036; stroke-width: 1.5;" width="10" x="301.5" y="546.4766"/><text fill="#000000" font-family="sans-serif" font-size="14" font-style="italic" lengthAdjust="spacingAndGlyphs" textLength="57" x="360" y="527.0352">«model»</text><text fill="#000000" font-family="sans-serif" font-size="14" lengthAdjust="spacingAndGlyphs" textLength="144" x="316.5" y="543.5234">project.project-types</text><!--entity arch-model--><rect fill="#FEFECE" filter="url(#fwybz8ykse2lt)" height="52.9766" style="stroke: #A80036; stroke-width: 1.5;" width="115" x="331" y="1547.5"/><rect fill="#FEFECE" height="5" style="stroke: #A80036; stroke-width: 1.5;" width="10" x="326" y="1552.5"/><rect fill="#FEFECE" height="5" style="stroke: #A80036; stroke-width: 1.5;" width="10" x="326" y="1590.4766"/><text fill="#000000" font-family="sans-serif" font-size="14" font-style="italic" lengthAdjust="spacingAndGlyphs" textLength="95" x="341" y="1571.0352">«project type»</text><text fill="#000000" font-family="sans-serif" font-size="14" lengthAdjust="spacingAndGlyphs" textLength="81" x="348" y="1587.5234">arch-model</text><!--entity domain-model-plugin--><rect fill="#FEFECE" filter="url(#fwybz8ykse2lt)" height="52.9766" style="stroke: #A80036; stroke-width: 1.5;" width="175" x="6" y="591.5"/><rect fill="#FEFECE" height="5" style="stroke: #A80036; stroke-width: 1.5;" width="10" x="1" y="596.5"/><rect fill="#FEFECE" height="5" style="stroke: #A80036; stroke-width: 1.5;" width="10" x="1" y="634.4766"/><text fill="#000000" font-family="sans-serif" font-size="14" font-style="italic" lengthAdjust="spacingAndGlyphs" textLength="95" x="46" y="615.0352">«project type»</text><text fill="#000000" font-family="sans-serif" font-size="14" lengthAdjust="spacingAndGlyphs" textLength="155" x="16" y="631.5234">domain-model-plugin</text><!--entity domain-model--><rect fill="#FEFECE" filter="url(#fwybz8ykse2lt)" height="52.9766" style="stroke: #A80036; stroke-width: 1.5;" width="123" x="327" y="1228.5"/><rect fill="#FEFECE" height="5" style="stroke: #A80036; stroke-width: 1.5;" width="10" x="322" y="1233.5"/><rect fill="#FEFECE" height="5" style="stroke: #A80036; stroke-width: 1.5;" width="10" x="322" y="1271.4766"/><text fill="#000000" font-family="sans-serif" font-size="14" font-style="italic" lengthAdjust="spacingAndGlyphs" textLength="95" x="341" y="1252.0352">«project type»</text><text fill="#000000" font-family="sans-serif" font-size="14" lengthAdjust="spacingAndGlyphs" textLength="103" x="337" y="1268.5234">domain-model</text><!--entity generator--><rect fill="#FEFECE" filter="url(#fwybz8ykse2lt)" height="52.9766" style="stroke: #A80036; stroke-width: 1.5;" width="115" x="941" y="327.5"/><rect fill="#FEFECE" height="5" style="stroke: #A80036; stroke-width: 1.5;" width="10" x="936" y="332.5"/><rect fill="#FEFECE" height="5" style="stroke: #A80036; stroke-width: 1.5;" width="10" x="936" y="370.4766"/><text fill="#000000" font-family="sans-serif" font-size="14" font-style="italic" lengthAdjust="spacingAndGlyphs" textLength="95" x="951" y="351.0352">«project type»</text><text fill="#000000" font-family="sans-serif" font-size="14" lengthAdjust="spacingAndGlyphs" textLength="68" x="964.5" y="367.5234">generator</text><!--entity model--><rect fill="#FEFECE" filter="url(#fwybz8ykse2lt)" height="52.9766" style="stroke: #A80036; stroke-width: 1.5;" width="115" x="681" y="1272.5"/><rect fill="#FEFECE" height="5" style="stroke: #A80036; stroke-width: 1.5;" width="10" x="676" y="1277.5"/><rect fill="#FEFECE" height="5" style="stroke: #A80036; stroke-width: 1.5;" width="10" x="676" y="1315.4766"/><text fill="#000000" font-family="sans-serif" font-size="14" font-style="italic" lengthAdjust="spacingAndGlyphs" textLength="95" x="691" y="1296.0352">«project type»</text><text fill="#000000" font-family="sans-serif" font-size="14" lengthAdjust="spacingAndGlyphs" textLength="43" x="717" y="1312.5234">model</text><!--entity plugin--><rect fill="#FEFECE" filter="url(#fwybz8ykse2lt)" height="52.9766" style="stroke: #A80036; stroke-width: 1.5;" width="115" x="331" y="134.5"/><rect fill="#FEFECE" height="5" style="stroke: #A80036; stroke-width: 1.5;" width="10" x="326" y="139.5"/><rect fill="#FEFECE" height="5" style="stroke: #A80036; stroke-width: 1.5;" width="10" x="326" y="177.4766"/><text fill="#000000" font-family="sans-serif" font-size="14" font-style="italic" lengthAdjust="spacingAndGlyphs" textLength="95" x="341" y="158.0352">«project type»</text><text fill="#000000" font-family="sans-serif" font-size="14" lengthAdjust="spacingAndGlyphs" textLength="44" x="366.5" y="174.5234">plugin</text><!--entity project-group--><rect fill="#FEFECE" filter="url(#fwybz8ykse2lt)" height="52.9766" style="stroke: #A80036; stroke-width: 1.5;" width="118" x="329.5" y="1316.5"/><rect fill="#FEFECE" height="5" style="stroke: #A80036; stroke-width: 1.5;" width="10" x="324.5" y="1321.5"/><rect fill="#FEFECE" height="5" style="stroke: #A80036; stroke-width: 1.5;" width="10" x="324.5" y="1359.4766"/><text fill="#000000" font-family="sans-serif" font-size="14" font-style="italic" lengthAdjust="spacingAndGlyphs" textLength="95" x="341" y="1340.0352">«project type»</text><text fill="#000000" font-family="sans-serif" font-size="14" lengthAdjust="spacingAndGlyphs" textLength="98" x="339.5" y="1356.5234">project-group</text><!--entity schema-model--><rect fill="#FEFECE" filter="url(#fwybz8ykse2lt)" height="52.9766" style="stroke: #A80036; stroke-width: 1.5;" width="123" x="32" y="1272.5"/><rect fill="#FEFECE" height="5" style="stroke: #A80036; stroke-width: 1.5;" width="10" x="27" y="1277.5"/><rect fill="#FEFECE" height="5" style="stroke: #A80036; stroke-width: 1.5;" width="10" x="27" y="1315.4766"/><text fill="#000000" font-family="sans-serif" font-size="14" font-style="italic" lengthAdjust="spacingAndGlyphs" textLength="95" x="46" y="1296.0352">«project type»</text><text fill="#000000" font-family="sans-serif" font-size="14" lengthAdjust="spacingAndGlyphs" textLength="103" x="42" y="1312.5234">schema-model</text><!--entity schema-plugin--><rect fill="#FEFECE" filter="url(#fwybz8ykse2lt)" height="52.9766" style="stroke: #A80036; stroke-width: 1.5;" width="124" x="31.5" y="931.5"/><rect fill="#FEFECE" height="5" style="stroke: #A80036; stroke-width: 1.5;" width="10" x="26.5" y="936.5"/><rect fill="#FEFECE" height="5" style="stroke: #A80036; stroke-width: 1.5;" width="10" x="26.5" y="974.4766"/><text fill="#000000" font-family="sans-serif" font-size="14" font-style="italic" lengthAdjust="spacingAndGlyphs" textLength="95" x="46" y="955.0352">«project type»</text><text fill="#000000" font-family="sans-serif" font-size="14" lengthAdjust="spacingAndGlyphs" textLength="104" x="41.5" y="971.5234">schema-plugin</text><!--entity service-generator--><rect fill="#FEFECE" filter="url(#fwybz8ykse2lt)" height="52.9766" style="stroke: #A80036; stroke-width: 1.5;" width="143" x="317" y="1635.5"/><rect fill="#FEFECE" height="5" style="stroke: #A80036; stroke-width: 1.5;" width="10" x="312" y="1640.5"/><rect fill="#FEFECE" height="5" style="stroke: #A80036; stroke-width: 1.5;" width="10" x="312" y="1678.4766"/><text fill="#000000" font-family="sans-serif" font-size="14" font-style="italic" lengthAdjust="spacingAndGlyphs" textLength="95" x="341" y="1659.0352">«project type»</text><text fill="#000000" font-family="sans-serif" font-size="14" lengthAdjust="spacingAndGlyphs" textLength="123" x="327" y="1675.5234">service-generator</text><!--entity template--><rect fill="#FEFECE" filter="url(#fwybz8ykse2lt)" height="52.9766" style="stroke: #A80036; stroke-width: 1.5;" width="115" x="681" y="327.5"/><rect fill="#FEFECE" height="5" style="stroke: #A80036; stroke-width: 1.5;" width="10" x="676" y="332.5"/><rect fill="#FEFECE" height="5" style="stroke: #A80036; stroke-width: 1.5;" width="10" x="676" y="370.4766"/><text fill="#000000" font-family="sans-serif" font-size="14" font-style="italic" lengthAdjust="spacingAndGlyphs" textLength="95" x="691" y="351.0352">«project type»</text><text fill="#000000" font-family="sans-serif" font-size="14" lengthAdjust="spacingAndGlyphs" textLength="60" x="708.5" y="367.5234">template</text><!--entity datasource.schema-plugin--><rect fill="#FEFECE" filter="url(#fwybz8ykse2lt)" height="36.4883" style="stroke: #A80036; stroke-width: 1.5;" width="204" x="636.5" y="1493"/><rect fill="#FEFECE" height="5" style="stroke: #A80036; stroke-width: 1.5;" width="10" x="631.5" y="1498"/><rect fill="#FEFECE" height="5" style="stroke: #A80036; stroke-width: 1.5;" width="10" x="631.5" y="1519.4883"/><text fill="#000000" font-family="sans-serif" font-size="14" lengthAdjust="spacingAndGlyphs" textLength="184" x="646.5" y="1516.5352">datasource.schema-plugin</text><!--entity service-api.schema-plugin--><rect fill="#FEFECE" filter="url(#fwybz8ykse2lt)" height="36.4883" style="stroke: #A80036; stroke-width: 1.5;" width="204" x="636.5" y="1564"/><rect fill="#FEFECE" height="5" style="stroke: #A80036; stroke-width: 1.5;" width="10" x="631.5" y="1569"/><rect fill="#FEFECE" height="5" style="stroke: #A80036; stroke-width: 1.5;" width="10" x="631.5" y="1590.4883"/><text fill="#000000" font-family="sans-serif" font-size="14" lengthAdjust="spacingAndGlyphs" textLength="184" x="646.5" y="1587.5352">service-api.schema-plugin</text><!--entity metamodel-plugin--><rect fill="#FEFECE" filter="url(#fwybz8ykse2lt)" height="36.4883" style="stroke: #A80036; stroke-width: 1.5;" width="149" x="664" y="1157"/><rect fill="#FEFECE" height="5" style="stroke: #A80036; stroke-width: 1.5;" width="10" x="659" y="1162"/><rect fill="#FEFECE" height="5" style="stroke: #A80036; stroke-width: 1.5;" width="10" x="659" y="1183.4883"/><text fill="#000000" font-family="sans-serif" font-size="14" lengthAdjust="spacingAndGlyphs" textLength="129" x="674" y="1180.5352">metamodel-plugin</text><!--entity common-model-plugin--><rect fill="#FEFECE" filter="url(#fwybz8ykse2lt)" height="36.4883" style="stroke: #A80036; stroke-width: 1.5;" width="183" x="1138" y="164"/><rect fill="#FEFECE" height="5" style="stroke: #A80036; stroke-width: 1.5;" width="10" x="1133" y="169"/><rect fill="#FEFECE" height="5" style="stroke: #A80036; stroke-width: 1.5;" width="10" x="1133" y="190.4883"/><text fill="#000000" font-family="sans-serif" font-size="14" lengthAdjust="spacingAndGlyphs" textLength="163" x="1148" y="187.5352">common-model-plugin</text><!--entity project.domain-model-plugin--><rect fill="#FEFECE" filter="url(#fwybz8ykse2lt)" height="36.4883" style="stroke: #A80036; stroke-width: 1.5;" width="227" x="1116" y="336"/><rect fill="#FEFECE" height="5" style="stroke: #A80036; stroke-width: 1.5;" width="10" x="1111" y="341"/><rect fill="#FEFECE" height="5" style="stroke: #A80036; stroke-width: 1.5;" width="10" x="1111" y="362.4883"/><text fill="#000000" font-family="sans-serif" font-size="14" lengthAdjust="spacingAndGlyphs" textLength="207" x="1126" y="359.5352">project.domain-model-plugin</text><!--entity schema.document-template--><rect fill="#FEFECE" filter="url(#fwybz8ykse2lt)" height="36.4883" style="stroke: #A80036; stroke-width: 1.5;" width="213" x="282" y="1476"/><rect fill="#FEFECE" height="5" style="stroke: #A80036; stroke-width: 1.5;" width="10" x="277" y="1481"/><rect fill="#FEFECE" height="5" style="stroke: #A80036; stroke-width: 1.5;" width="10" x="277" y="1502.4883"/><text fill="#000000" font-family="sans-serif" font-size="14" lengthAdjust="spacingAndGlyphs" textLength="193" x="292" y="1499.5352">schema.document-template</text><!--entity schema.plugin-template--><rect fill="#FEFECE" filter="url(#fwybz8ykse2lt)" height="36.4883" style="stroke: #A80036; stroke-width: 1.5;" width="188" x="294.5" y="1086"/><rect fill="#FEFECE" height="5" style="stroke: #A80036; stroke-width: 1.5;" width="10" x="289.5" y="1091"/><rect fill="#FEFECE" height="5" style="stroke: #A80036; stroke-width: 1.5;" width="10" x="289.5" y="1112.4883"/><text fill="#000000" font-family="sans-serif" font-size="14" lengthAdjust="spacingAndGlyphs" textLength="168" x="304.5" y="1109.5352">schema.plugin-template</text><!--entity datasource.flyway-migration-template--><rect fill="#FEFECE" filter="url(#fwybz8ykse2lt)" height="36.4883" style="stroke: #A80036; stroke-width: 1.5;" width="285" x="596" y="1706"/><rect fill="#FEFECE" height="5" style="stroke: #A80036; stroke-width: 1.5;" width="10" x="591" y="1711"/><rect fill="#FEFECE" height="5" style="stroke: #A80036; stroke-width: 1.5;" width="10" x="591" y="1732.4883"/><text fill="#000000" font-family="sans-serif" font-size="14" lengthAdjust="spacingAndGlyphs" textLength="265" x="606" y="1729.5352">datasource.flyway-migration-template</text><!--entity service-api.springboot2-template--><rect fill="#FEFECE" filter="url(#fwybz8ykse2lt)" height="36.4883" style="stroke: #A80036; stroke-width: 1.5;" width="253" x="612" y="1777"/><rect fill="#FEFECE" height="5" style="stroke: #A80036; stroke-width: 1.5;" width="10" x="607" y="1782"/><rect fill="#FEFECE" height="5" style="stroke: #A80036; stroke-width: 1.5;" width="10" x="607" y="1803.4883"/><text fill="#000000" font-family="sans-serif" font-size="14" lengthAdjust="spacingAndGlyphs" textLength="233" x="622" y="1800.5352">service-api.springboot2-template</text><!--link arch-model to model--><path d="M446.01,1569.71 C481.46,1564.67 526.6,1553.72 560,1530 C583.51,1513.3 578.98,1499.29 596,1476 C634.48,1423.35 682.46,1364.67 711.49,1329.85 " fill="none" id="arch-model-model" style="stroke: #A80036; stroke-width: 1.0;"/><polygon fill="#A80036" points="714.94,1325.72,706.107,1330.0765,711.7405,1329.5623,712.2547,1335.1957,714.94,1325.72" style="stroke: #A80036; stroke-width: 1.0;"/><!--link domain-model-plugin to plugin--><path d="M95,591.44 C97.74,521.52 114.71,330.33 217,223 C245.48,193.12 289.48,177.58 325.65,169.54 " fill="none" id="domain-model-plugin-plugin" style="stroke: #A80036; stroke-width: 1.0;"/><polygon fill="#A80036" points="330.93,168.4,321.2876,166.3938,326.0431,169.4574,322.9795,174.2129,330.93,168.4" style="stroke: #A80036; stroke-width: 1.0;"/><!--link domain-model to model--><path d="M450.12,1262.66 C513.29,1270.65 611.77,1283.1 675.46,1291.16 " fill="none" id="domain-model-model" style="stroke: #A80036; stroke-width: 1.0;"/><polygon fill="#A80036" points="680.75,1291.82,672.3247,1286.7196,675.7897,1291.191,671.3183,1294.6561,680.75,1291.82" style="stroke: #A80036; stroke-width: 1.0;"/><!--link model to generator--><path d="M796.22,1277.81 C826.32,1263.56 861.11,1241.72 881,1211 C972.07,1070.4 992.89,523.84 996.74,385.8 " fill="none" id="model-generator" style="stroke: #A80036; stroke-width: 1.0;"/><polygon fill="#A80036" points="996.88,380.68,992.6246,389.5621,996.7372,385.678,1000.6213,389.7906,996.88,380.68" style="stroke: #A80036; stroke-width: 1.0;"/><!--link plugin to generator--><path d="M446.16,165.09 C540.3,173.61 733.19,198.45 881,266 C912.6,280.44 943.76,304.65 965.89,324.02 " fill="none" id="plugin-generator" style="stroke: #A80036; stroke-width: 1.0;"/><polygon fill="#A80036" points="969.64,327.33,965.5538,318.3688,965.8967,324.0153,960.2502,324.3582,969.64,327.33" style="stroke: #A80036; stroke-width: 1.0;"/><!--link project-group to model--><path d="M447.75,1335.64 C510.92,1327.65 611.35,1314.95 675.83,1306.8 " fill="none" id="project-group-model" style="stroke: #A80036; stroke-width: 1.0;"/><polygon fill="#A80036" points="680.8,1306.17,671.3683,1303.3339,675.8397,1306.799,672.3747,1311.2704,680.8,1306.17" style="stroke: #A80036; stroke-width: 1.0;"/><!--link schema-model to model--><path d="M120.88,1325.58 C143.98,1346.82 179.61,1374.96 217,1387 C362.11,1433.72 411.57,1421.77 560,1387 C608.23,1375.7 658.38,1349.26 693.02,1328.29 " fill="none" id="schema-model-model" style="stroke: #A80036; stroke-width: 1.0;"/><polygon fill="#A80036" points="697.59,1325.5,687.8224,1326.7627,693.319,1328.0997,691.982,1333.5963,697.59,1325.5" style="stroke: #A80036; stroke-width: 1.0;"/><!--link schema-plugin to plugin--><path d="M104.36,931.1 C122.78,879.64 162.24,763.34 181,662 C198.82,565.75 157.61,300.81 217,223 C242.6,189.45 288.11,174.04 325.67,166.97 " fill="none" id="schema-plugin-plugin" style="stroke: #A80036; stroke-width: 1.0;"/><polygon fill="#A80036" points="330.68,166.06,321.1132,163.7198,325.7593,166.9469,322.5322,171.5929,330.68,166.06" style="stroke: #A80036; stroke-width: 1.0;"/><!--link service-generator to generator--><path d="M460.13,1666.24 C581.82,1671.89 823.53,1675.32 881,1618 C971.05,1528.19 993.43,572.61 996.95,385.63 " fill="none" id="service-generator-generator" style="stroke: #A80036; stroke-width: 1.0;"/><polygon fill="#A80036" points="997.05,380.58,992.8963,389.5101,996.9643,385.5793,1000.8951,389.6472,997.05,380.58" style="stroke: #A80036; stroke-width: 1.0;"/><!--link template to generator--><path d="M796.12,354 C837.31,354 893.07,354 935.47,354 " fill="none" id="template-generator" style="stroke: #A80036; stroke-width: 1.0;"/><polygon fill="#A80036" points="940.57,354,931.57,350,935.57,354,931.57,358,940.57,354" style="stroke: #A80036; stroke-width: 1.0;"/><!--link common-model to domain-model--><path d="M319.63,792.88 C273.54,796.48 217.98,810.58 199,855.5 C175.91,910.16 175.91,1067.84 199,1122.5 C221.13,1174.88 276.78,1209.85 322.08,1230.65 " fill="none" id="common-model-domain-model" style="stroke: #A80036; stroke-width: 1.0;"/><polygon fill="#A80036" points="326.71,1232.75,320.1719,1225.3843,322.1582,1230.681,316.8615,1232.6672,326.71,1232.75" style="stroke: #A80036; stroke-width: 1.0;"/><!--link domain-model to common-model--><path d="M326.71,1232.75 C280.64,1212.24 221.89,1176.67 199,1122.5 C175.91,1067.84 175.91,910.16 199,855.5 C217.28,812.24 269.47,797.57 314.46,793.33 " fill="none" id="domain-model-common-model" style="stroke: #A80036; stroke-width: 1.0; stroke-dasharray: 7.0,7.0;"/><polygon fill="#A80036" points="319.63,792.88,310.3205,789.6655,314.6484,793.3082,311.0056,797.6361,319.63,792.88" style="stroke: #A80036; stroke-width: 1.0;"/><!--link domain-model-plugin.project-template to template--><path d="M494.38,415.48 C553.59,400.51 625.54,382.31 675.75,369.62 " fill="none" id="domain-model-plugin.project-template-template" style="stroke: #A80036; stroke-width: 1.0;"/><polygon fill="#A80036" points="680.84,368.33,671.1374,366.639,675.9901,369.546,673.0831,374.3988,680.84,368.33" style="stroke: #A80036; stroke-width: 1.0;"/><!--link domain-model.project-template to template--><path d="M510.24,354 C566,354 629.84,354 675.63,354 " fill="none" id="domain-model.project-template-template" style="stroke: #A80036; stroke-width: 1.0;"/><polygon fill="#A80036" points="680.84,354,671.84,350,675.84,354,671.84,358,680.84,354" style="stroke: #A80036; stroke-width: 1.0;"/><!--link generator.project-template to template--><path d="M492.97,292.16 C552.44,307.2 625.13,325.59 675.74,338.38 " fill="none" id="generator.project-template-template" style="stroke: #A80036; stroke-width: 1.0;"/><polygon fill="#A80036" points="680.87,339.68,673.1299,333.5897,676.0235,338.4505,671.1627,341.3441,680.87,339.68" style="stroke: #A80036; stroke-width: 1.0;"/><!--link metamodel to domain-model--><path d="M319.82,884.67 C273.82,890.78 218.3,907.83 199,953.5 C184.38,988.09 184.38,1087.91 199,1122.5 C221.13,1174.88 276.78,1209.85 322.08,1230.65 " fill="none" id="metamodel-domain-model" style="stroke: #A80036; stroke-width: 1.0;"/><polygon fill="#A80036" points="326.71,1232.75,320.1719,1225.3843,322.1582,1230.681,316.8615,1232.6672,326.71,1232.75" style="stroke: #A80036; stroke-width: 1.0;"/><!--link domain-model to metamodel--><path d="M326.71,1232.75 C280.64,1212.24 221.89,1176.67 199,1122.5 C184.38,1087.91 184.38,988.09 199,953.5 C217.58,909.52 269.75,892.08 314.66,885.4 " fill="none" id="domain-model-metamodel" style="stroke: #A80036; stroke-width: 1.0; stroke-dasharray: 7.0,7.0;"/><polygon fill="#A80036" points="319.82,884.67,310.348,881.9715,314.8694,885.3711,311.4698,889.8925,319.82,884.67" style="stroke: #A80036; stroke-width: 1.0;"/><!--link project-group.project-template to project-group--><path d="M269.33,713.51 C238.89,722.27 211.28,738.43 199,767.5 C176.77,820.11 176.77,1228.89 199,1281.5 C218.61,1327.92 277.28,1341.42 324.19,1344.44 " fill="none" id="project-group.project-template-project-group" style="stroke: #A80036; stroke-width: 1.0;"/><polygon fill="#A80036" points="329.27,1344.73,320.5136,1340.2216,324.2782,1344.4439,320.0559,1348.2085,329.27,1344.73" style="stroke: #A80036; stroke-width: 1.0;"/><!--link project-group to project-group.project-template--><path d="M329.27,1344.73 C281.6,1342.36 219.33,1329.61 199,1281.5 C176.77,1228.89 176.77,820.11 199,767.5 C210.61,740.02 235.91,724.07 264.36,715.01 " fill="none" id="project-group-project-group.project-template" style="stroke: #A80036; stroke-width: 1.0; stroke-dasharray: 7.0,7.0;"/><polygon fill="#A80036" points="269.33,713.51,259.5585,712.2782,264.5428,714.9533,261.8677,719.9377,269.33,713.51" style="stroke: #A80036; stroke-width: 1.0;"/><!--link project.domain-model to domain-model--><path d="M300.85,618.92 C259.41,624.77 215.46,640.55 199,679.5 C179.84,724.84 179.84,1077.16 199,1122.5 C221.13,1174.88 276.78,1209.85 322.08,1230.65 " fill="none" id="project.domain-model-domain-model" style="stroke: #A80036; stroke-width: 1.0;"/><polygon fill="#A80036" points="326.71,1232.75,320.1719,1225.3843,322.1582,1230.681,316.8615,1232.6672,326.71,1232.75" style="stroke: #A80036; stroke-width: 1.0;"/><!--link project.project-types to model--><path d="M470.91,531.11 C503.56,536.02 538.47,547.77 560,574 C649.96,683.59 523.66,1089.06 596,1211 C613.93,1241.23 646.72,1262.59 676.22,1276.68 " fill="none" id="project.project-types-model" style="stroke: #A80036; stroke-width: 1.0;"/><polygon fill="#A80036" points="680.92,1278.89,674.4572,1271.4582,676.3894,1276.7748,671.0728,1278.7071,680.92,1278.89" style="stroke: #A80036; stroke-width: 1.0;"/><!--link arch-model to datasource.schema-plugin--><path d="M446.19,1563.74 C496.58,1554.62 571.54,1541.04 632.81,1529.95 " fill="none" id="arch-model-datasource.schema-plugin" style="stroke: #A80036; stroke-width: 1.0; stroke-dasharray: 7.0,7.0;"/><polygon fill="#A80036" points="637.94,1529.02,628.3744,1526.675,633.0188,1529.9044,629.7894,1534.5488,637.94,1529.02" style="stroke: #A80036; stroke-width: 1.0;"/><!--link arch-model to service-api.schema-plugin--><path d="M446.19,1575.3 C496.11,1576.45 570.15,1578.15 631.09,1579.55 " fill="none" id="arch-model-service-api.schema-plugin" style="stroke: #A80036; stroke-width: 1.0; stroke-dasharray: 7.0,7.0;"/><polygon fill="#A80036" points="636.2,1579.67,627.2938,1575.4654,631.2013,1579.5557,627.1109,1583.4633,636.2,1579.67" style="stroke: #A80036; stroke-width: 1.0;"/><!--link domain-model-plugin to metamodel--><path d="M101.73,644.57 C115.81,691.14 151.44,787.36 217,838 C244.79,859.46 281.96,870.52 314.51,876.2 " fill="none" id="domain-model-plugin-metamodel" style="stroke: #A80036; stroke-width: 1.0; stroke-dasharray: 7.0,7.0;"/><polygon fill="#A80036" points="319.69,877.06,311.4624,871.6464,314.7569,876.245,310.1583,879.5394,319.69,877.06" style="stroke: #A80036; stroke-width: 1.0;"/><!--link domain-model-plugin to common-model--><path d="M111.98,644.53 C133.23,674.66 171.89,723.1 217,750 C246.54,767.61 283.03,778.24 314.67,784.62 " fill="none" id="domain-model-plugin-common-model" style="stroke: #A80036; stroke-width: 1.0; stroke-dasharray: 7.0,7.0;"/><polygon fill="#A80036" points="319.71,785.61,311.6597,779.9362,314.8055,784.6377,310.104,787.7834,319.71,785.61" style="stroke: #A80036; stroke-width: 1.0;"/><!--link domain-model-plugin to domain-model-plugin.project-template--><path d="M111.98,591.47 C133.23,561.34 171.89,512.9 217,486 C226.99,480.04 237.79,474.88 248.92,470.42 " fill="none" id="domain-model-plugin-domain-model-plugin.project-template" style="stroke: #A80036; stroke-width: 1.0; stroke-dasharray: 7.0,7.0;"/><polygon fill="#A80036" points="253.71,468.54,243.8707,468.106,249.0559,470.3674,246.7945,475.5526,253.71,468.54" style="stroke: #A80036; stroke-width: 1.0;"/><!--link domain-model-plugin to metamodel-plugin--><path d="M96.93,644.51 C103.89,704.32 129.44,850.35 217,925 C335.89,1026.36 422.64,927.55 560,1002 C630.71,1040.33 692.78,1114.9 721.14,1152.37 " fill="none" id="domain-model-plugin-metamodel-plugin" style="stroke: #A80036; stroke-width: 1.0; stroke-dasharray: 7.0,7.0;"/><polygon fill="#A80036" points="724.43,1156.75,722.23,1147.15,721.43,1152.75,715.83,1151.95,724.43,1156.75" style="stroke: #A80036; stroke-width: 1.0;"/><!--link domain-model-plugin to common-model-plugin--><path d="M96.78,591.49 C105.54,496.72 140.4,177.12 217,117 C517.57,-118.93 1035.98,92.14 1186.44,161.65 " fill="none" id="domain-model-plugin-common-model-plugin" style="stroke: #A80036; stroke-width: 1.0; stroke-dasharray: 7.0,7.0;"/><polygon fill="#A80036" points="1191.21,163.87,1184.7472,156.4382,1186.6794,161.7548,1181.3628,163.6871,1191.21,163.87" style="stroke: #A80036; stroke-width: 1.0;"/><!--link domain-model to domain-model.project-template--><path d="M326.71,1232.75 C280.64,1212.24 221.89,1176.67 199,1122.5 C183.71,1086.32 183.71,451.68 199,415.5 C210.26,388.84 234.4,373.04 261.8,363.85 " fill="none" id="domain-model-domain-model.project-template" style="stroke: #A80036; stroke-width: 1.0; stroke-dasharray: 7.0,7.0;"/><polygon fill="#A80036" points="266.58,362.32,256.7917,361.2299,261.8142,363.8325,259.2116,368.8551,266.58,362.32" style="stroke: #A80036; stroke-width: 1.0;"/><!--link domain-model to metamodel-plugin--><path d="M450.12,1241.07 C508.1,1227.74 595.83,1207.57 659.1,1193.02 " fill="none" id="domain-model-metamodel-plugin" style="stroke: #A80036; stroke-width: 1.0; stroke-dasharray: 7.0,7.0;"/><polygon fill="#A80036" points="664,1191.9,654.3294,1190.0345,659.129,1193.0285,656.135,1197.828,664,1191.9" style="stroke: #A80036; stroke-width: 1.0;"/><!--link generator to project.project-types--><path d="M940.99,376.56 C922.06,383.79 900.74,391.58 881,398 C740.74,443.6 574.41,485.86 475.65,509.74 " fill="none" id="generator-project.project-types" style="stroke: #A80036; stroke-width: 1.0; stroke-dasharray: 7.0,7.0;"/><polygon fill="#A80036" points="470.71,510.94,480.397,512.7184,475.5706,509.7677,478.5213,504.9414,470.71,510.94" style="stroke: #A80036; stroke-width: 1.0;"/><!--link generator to generator.project-template--><path d="M940.98,329.12 C922.23,321.83 901.02,314.59 881,310 C751.45,280.32 598.43,270.46 497.95,267.29 " fill="none" id="generator-generator.project-template" style="stroke: #A80036; stroke-width: 1.0; stroke-dasharray: 7.0,7.0;"/><polygon fill="#A80036" points="492.91,267.13,501.7799,271.4107,497.9075,267.2871,502.0312,263.4147,492.91,267.13" style="stroke: #A80036; stroke-width: 1.0;"/><!--link generator to project.domain-model-plugin--><path d="M1056.11,354 C1072.69,354 1091.48,354 1110.39,354 " fill="none" id="generator-project.domain-model-plugin" style="stroke: #A80036; stroke-width: 1.0; stroke-dasharray: 7.0,7.0;"/><polygon fill="#A80036" points="1115.73,354,1106.73,350,1110.73,354,1106.73,358,1115.73,354" style="stroke: #A80036; stroke-width: 1.0;"/><!--link generator to common-model-plugin--><path d="M1035.28,327.12 C1080.89,292.87 1158.79,234.36 1200.38,203.12 " fill="none" id="generator-common-model-plugin" style="stroke: #A80036; stroke-width: 1.0; stroke-dasharray: 7.0,7.0;"/><polygon fill="#A80036" points="1204.53,200,1194.935,202.2219,1200.5369,203.0091,1199.7496,208.6109,1204.53,200" style="stroke: #A80036; stroke-width: 1.0;"/><!--link schema-model to metamodel--><path d="M106.09,1272.24 C125.81,1228.02 168.5,1137.76 217,1069 C259.27,1009.07 318.9,947.79 355.29,912.4 " fill="none" id="schema-model-metamodel" style="stroke: #A80036; stroke-width: 1.0; stroke-dasharray: 7.0,7.0;"/><polygon fill="#A80036" points="359.17,908.64,349.9218,912.0268,355.5779,912.1181,355.4867,917.7742,359.17,908.64" style="stroke: #A80036; stroke-width: 1.0;"/><!--link schema-model to schema.document-template--><path d="M109.01,1325.56 C128.9,1359.42 167.81,1417.33 217,1449 C234.99,1460.58 255.87,1469.2 276.72,1475.6 " fill="none" id="schema-model-schema.document-template" style="stroke: #A80036; stroke-width: 1.0; stroke-dasharray: 7.0,7.0;"/><polygon fill="#A80036" points="281.73,1477.09,274.2502,1470.6828,276.9389,1475.6598,271.9619,1478.3486,281.73,1477.09" style="stroke: #A80036; stroke-width: 1.0;"/><!--link schema-model to metamodel-plugin--><path d="M122.04,1272.25 C145.3,1251.5 180.54,1224.14 217,1211 C365.95,1157.3 554.16,1160.15 658.58,1167.36 " fill="none" id="schema-model-metamodel-plugin" style="stroke: #A80036; stroke-width: 1.0; stroke-dasharray: 7.0,7.0;"/><polygon fill="#A80036" points="663.79,1167.73,655.0988,1163.0972,658.8028,1167.3727,654.5272,1171.0767,663.79,1167.73" style="stroke: #A80036; stroke-width: 1.0;"/><!--link schema-plugin to metamodel--><path d="M155.57,942.16 C201.94,930.13 265.87,913.55 314.87,900.84 " fill="none" id="schema-plugin-metamodel" style="stroke: #A80036; stroke-width: 1.0; stroke-dasharray: 7.0,7.0;"/><polygon fill="#A80036" points="319.86,899.54,310.1425,897.9366,315.0213,900.7998,312.1582,905.6786,319.86,899.54" style="stroke: #A80036; stroke-width: 1.0;"/><!--link schema-plugin to schema.plugin-template--><path d="M119.81,984.55 C143.05,1007.44 179.47,1039.76 217,1059 C239.35,1070.46 264.88,1079.19 289.26,1085.77 " fill="none" id="schema-plugin-schema.plugin-template" style="stroke: #A80036; stroke-width: 1.0; stroke-dasharray: 7.0,7.0;"/><polygon fill="#A80036" points="294.12,1087.06,286.4523,1080.8789,289.2884,1085.7735,284.3938,1088.6096,294.12,1087.06" style="stroke: #A80036; stroke-width: 1.0;"/><!--link schema-plugin to metamodel-plugin--><path d="M155.54,973.05 C175.16,977.86 196.99,983.19 217,988 C369.29,1024.63 414.84,1010.16 560,1069 C615.71,1091.58 674.5,1129.99 708.49,1153.84 " fill="none" id="schema-plugin-metamodel-plugin" style="stroke: #A80036; stroke-width: 1.0; stroke-dasharray: 7.0,7.0;"/><polygon fill="#A80036" points="712.92,1156.97,707.8763,1148.5106,708.836,1154.0855,703.2611,1155.0451,712.92,1156.97" style="stroke: #A80036; stroke-width: 1.0;"/><!--link service-generator to datasource.flyway-migration-template--><path d="M460.34,1674.62 C509.53,1683.39 575.94,1695.22 631.42,1705.1 " fill="none" id="service-generator-datasource.flyway-migration-template" style="stroke: #A80036; stroke-width: 1.0; stroke-dasharray: 7.0,7.0;"/><polygon fill="#A80036" points="636.41,1705.99,628.2594,1700.4612,631.4888,1705.1056,626.8444,1708.335,636.41,1705.99" style="stroke: #A80036; stroke-width: 1.0;"/><!--link service-generator to service-api.springboot2-template--><path d="M438.38,1688.63 C479.49,1710.19 540.31,1740.13 596,1760 C612.45,1765.87 630.31,1771.12 647.63,1775.65 " fill="none" id="service-generator-service-api.springboot2-template" style="stroke: #A80036; stroke-width: 1.0; stroke-dasharray: 7.0,7.0;"/><polygon fill="#A80036" points="652.5,1776.91,644.7938,1770.777,647.6604,1775.6537,642.7837,1778.5203,652.5,1776.91" style="stroke: #A80036; stroke-width: 1.0;"/><!--link service-generator to metamodel-plugin--><path d="M460.36,1661.78 C495.54,1657.73 535.63,1646.44 560,1618 C612.75,1556.45 551.74,1322.91 596,1255 C614.35,1226.83 646.27,1207.56 675.15,1195 " fill="none" id="service-generator-metamodel-plugin" style="stroke: #A80036; stroke-width: 1.0; stroke-dasharray: 7.0,7.0;"/><polygon fill="#A80036" points="679.75,1193.04,669.9024,1192.8828,675.1491,1194.9975,673.0344,1200.2442,679.75,1193.04" style="stroke: #A80036; stroke-width: 1.0;"/><!--link service-generator to datasource.schema-plugin--><path d="M460.21,1657.13 C493.46,1651.71 531.88,1640.6 560,1618 C587.58,1595.83 568.39,1569.12 596,1547 C606.48,1538.6 618.69,1532.14 631.46,1527.17 " fill="none" id="service-generator-datasource.schema-plugin" style="stroke: #A80036; stroke-width: 1.0; stroke-dasharray: 7.0,7.0;"/><polygon fill="#A80036" points="636.19,1525.4,626.3601,1524.7885,631.5037,1527.1431,629.1491,1532.2866,636.19,1525.4" style="stroke: #A80036; stroke-width: 1.0;"/><!--link service-generator to service-api.schema-plugin--><path d="M460.34,1645.71 C516.5,1632.81 595.08,1614.74 654.24,1601.14 " fill="none" id="service-generator-service-api.schema-plugin" style="stroke: #A80036; stroke-width: 1.0; stroke-dasharray: 7.0,7.0;"/><polygon fill="#A80036" points="659.18,1600,649.5094,1598.1345,654.309,1601.1285,651.315,1605.928,659.18,1600" style="stroke: #A80036; stroke-width: 1.0;"/><!--
@startuml
left to right direction

[arch-model] <<project type>>
[domain-model-plugin] <<project type>>
[domain-model] <<project type>>
[generator] <<project type>>
[model] <<project type>>
[plugin] <<project type>>
[project-group] <<project type>>
[schema-model] <<project type>>
[schema-plugin] <<project type>>
[service-generator] <<project type>>
[template] <<project type>>


[arch-model] - -> [model]
[domain-model-plugin] - -> [plugin]
[domain-model] - -> [model]
[model] - -> [generator]
[plugin] - -> [generator]
[project-group] - -> [model]
[schema-model] - -> [model]
[schema-plugin] - -> [plugin]
[service-generator] - -> [generator]
[template] - -> [generator]


package "laplacian" {
  [common-model] <<domain-model>>
  [common-model] - -> [domain-model]
  [domain-model-plugin.project-template] <<template>>
  [domain-model-plugin.project-template] - -> [template]
  [domain-model.project-template] <<template>>
  [domain-model.project-template] - -> [template]
  [generator.project-template] <<template>>
  [generator.project-template] - -> [template]
  [metamodel] <<domain-model>>
  [metamodel] - -> [domain-model]
  [project-group.project-template] <<project-group>>
  [project-group.project-template] - -> [project-group]
  [project.domain-model] <<domain-model>>
  [project.domain-model] - -> [domain-model]
  [project.project-types] <<model>>
  [project.project-types] - -> [model]
}



  [arch-model] ..> [datasource.schema-plugin]
  [arch-model] ..> [service-api.schema-plugin]

  [domain-model-plugin] ..> [metamodel]
  [domain-model-plugin] ..> [common-model]
  [domain-model-plugin] ..> [domain-model-plugin.project-template]
  [domain-model-plugin] ..> [metamodel-plugin]
  [domain-model-plugin] ..> [common-model-plugin]

  [domain-model] ..> [metamodel]
  [domain-model] ..> [common-model]
  [domain-model] ..> [domain-model.project-template]
  [domain-model] ..> [metamodel-plugin]

  [generator] ..> [project.project-types]
  [generator] ..> [generator.project-template]
  [generator] ..> [project.domain-model-plugin]
  [generator] ..> [common-model-plugin]



  [project-group] ..> [project-group.project-template]

  [schema-model] ..> [metamodel]
  [schema-model] ..> [schema.document-template]
  [schema-model] ..> [metamodel-plugin]

  [schema-plugin] ..> [metamodel]
  [schema-plugin] ..> [schema.plugin-template]
  [schema-plugin] ..> [metamodel-plugin]

  [service-generator] ..> [datasource.flyway-migration-template]
  [service-generator] ..> [service-api.springboot2-template]
  [service-generator] ..> [metamodel-plugin]
  [service-generator] ..> [datasource.schema-plugin]
  [service-generator] ..> [service-api.schema-plugin]



@enduml

PlantUML version 1.2019.05(Sun Apr 21 01:45:36 JST 2019)
(GPL source distribution)
Java Runtime: OpenJDK Runtime Environment
JVM: OpenJDK 64-Bit Server VM
Java Version: 1.8.0_222-b10
Operating System: Mac OS X
OS Version: 10.15.4
Default Encoding: UTF-8
Language: en
Country: JP
--></g></svg>