<?xml version="1.0" encoding="UTF-8" standalone="no"?><svg xmlns="http://www.w3.org/2000/svg" xmlns:xlink="http://www.w3.org/1999/xlink" contentScriptType="application/ecmascript" contentStyleType="text/css" height="1198px" preserveAspectRatio="none" style="width:1184px;height:1198px;" version="1.1" viewBox="0 0 1184 1198" width="1184px" zoomAndPan="magnify"><defs><filter height="300%" id="f1bc73aky575gr" width="300%" x="-1" y="-1"><feGaussianBlur result="blurOut" stdDeviation="2.0"/><feColorMatrix in="blurOut" result="blurOut2" type="matrix" values="0 0 0 0 0 0 0 0 0 0 0 0 0 0 0 0 0 0 .4 0"/><feOffset dx="4.0" dy="4.0" in="blurOut2" result="blurOut3"/><feBlend in="SourceGraphic" in2="blurOut3" mode="normal"/></filter></defs><g><!--cluster laplacian--><polygon fill="#FFFFFF" filter="url(#f1bc73aky575gr)" points="251,325.7,321,325.7,328,348.1883,526,348.1883,526,1134.7,251,1134.7,251,325.7" style="stroke: #000000; stroke-width: 1.5;"/><line style="stroke: #000000; stroke-width: 1.5;" x1="251" x2="328" y1="348.1883" y2="348.1883"/><text fill="#000000" font-family="sans-serif" font-size="14" font-weight="bold" lengthAdjust="spacingAndGlyphs" textLength="64" x="255" y="341.2352">laplacian</text><!--entity common-model--><rect fill="#FEFECE" filter="url(#f1bc73aky575gr)" height="52.9766" style="stroke: #A80036; stroke-width: 1.5;" width="137" x="320" y="361.2"/><rect fill="#FEFECE" height="5" style="stroke: #A80036; stroke-width: 1.5;" width="10" x="315" y="366.2"/><rect fill="#FEFECE" height="5" style="stroke: #A80036; stroke-width: 1.5;" width="10" x="315" y="404.1766"/><text fill="#000000" font-family="sans-serif" font-size="14" font-style="italic" lengthAdjust="spacingAndGlyphs" textLength="117" x="330" y="384.7352">«domain-model»</text><text fill="#000000" font-family="sans-serif" font-size="14" lengthAdjust="spacingAndGlyphs" textLength="111" x="333" y="401.2234">common-model</text><!--entity domain-model.project-template--><rect fill="#FEFECE" filter="url(#f1bc73aky575gr)" height="52.9766" style="stroke: #A80036; stroke-width: 1.5;" width="243" x="267" y="1065.2"/><rect fill="#FEFECE" height="5" style="stroke: #A80036; stroke-width: 1.5;" width="10" x="262" y="1070.2"/><rect fill="#FEFECE" height="5" style="stroke: #A80036; stroke-width: 1.5;" width="10" x="262" y="1108.1766"/><text fill="#000000" font-family="sans-serif" font-size="14" font-style="italic" lengthAdjust="spacingAndGlyphs" textLength="74" x="351.5" y="1088.7352">«template»</text><text fill="#000000" font-family="sans-serif" font-size="14" lengthAdjust="spacingAndGlyphs" textLength="223" x="277" y="1105.2234">domain-model.project-template</text><!--entity generator.project-template--><rect fill="#FEFECE" filter="url(#f1bc73aky575gr)" height="52.9766" style="stroke: #A80036; stroke-width: 1.5;" width="208" x="284.5" y="801.2"/><rect fill="#FEFECE" height="5" style="stroke: #A80036; stroke-width: 1.5;" width="10" x="279.5" y="806.2"/><rect fill="#FEFECE" height="5" style="stroke: #A80036; stroke-width: 1.5;" width="10" x="279.5" y="844.1766"/><text fill="#000000" font-family="sans-serif" font-size="14" font-style="italic" lengthAdjust="spacingAndGlyphs" textLength="74" x="351.5" y="824.7352">«template»</text><text fill="#000000" font-family="sans-serif" font-size="14" lengthAdjust="spacingAndGlyphs" textLength="188" x="294.5" y="841.2234">generator.project-template</text><!--entity metamodel--><rect fill="#FEFECE" filter="url(#f1bc73aky575gr)" height="52.9766" style="stroke: #A80036; stroke-width: 1.5;" width="137" x="320" y="625.2"/><rect fill="#FEFECE" height="5" style="stroke: #A80036; stroke-width: 1.5;" width="10" x="315" y="630.2"/><rect fill="#FEFECE" height="5" style="stroke: #A80036; stroke-width: 1.5;" width="10" x="315" y="668.1766"/><text fill="#000000" font-family="sans-serif" font-size="14" font-style="italic" lengthAdjust="spacingAndGlyphs" textLength="117" x="330" y="648.7352">«domain-model»</text><text fill="#000000" font-family="sans-serif" font-size="14" lengthAdjust="spacingAndGlyphs" textLength="77" x="350" y="665.2234">metamodel</text><!--entity model.project-template--><rect fill="#FEFECE" filter="url(#f1bc73aky575gr)" height="52.9766" style="stroke: #A80036; stroke-width: 1.5;" width="183" x="297" y="449.2"/><rect fill="#FEFECE" height="5" style="stroke: #A80036; stroke-width: 1.5;" width="10" x="292" y="454.2"/><rect fill="#FEFECE" height="5" style="stroke: #A80036; stroke-width: 1.5;" width="10" x="292" y="492.1766"/><text fill="#000000" font-family="sans-serif" font-size="14" font-style="italic" lengthAdjust="spacingAndGlyphs" textLength="74" x="351.5" y="472.7352">«template»</text><text fill="#000000" font-family="sans-serif" font-size="14" lengthAdjust="spacingAndGlyphs" textLength="163" x="307" y="489.2234">model.project-template</text><!--entity project-group.project-template--><rect fill="#FEFECE" filter="url(#f1bc73aky575gr)" height="52.9766" style="stroke: #A80036; stroke-width: 1.5;" width="238" x="269.5" y="889.2"/><rect fill="#FEFECE" height="5" style="stroke: #A80036; stroke-width: 1.5;" width="10" x="264.5" y="894.2"/><rect fill="#FEFECE" height="5" style="stroke: #A80036; stroke-width: 1.5;" width="10" x="264.5" y="932.1766"/><text fill="#000000" font-family="sans-serif" font-size="14" font-style="italic" lengthAdjust="spacingAndGlyphs" textLength="74" x="351.5" y="912.7352">«template»</text><text fill="#000000" font-family="sans-serif" font-size="14" lengthAdjust="spacingAndGlyphs" textLength="218" x="279.5" y="929.2234">project-group.project-template</text><!--entity project.domain-model--><rect fill="#FEFECE" filter="url(#f1bc73aky575gr)" height="52.9766" style="stroke: #A80036; stroke-width: 1.5;" width="175" x="301" y="537.2"/><rect fill="#FEFECE" height="5" style="stroke: #A80036; stroke-width: 1.5;" width="10" x="296" y="542.2"/><rect fill="#FEFECE" height="5" style="stroke: #A80036; stroke-width: 1.5;" width="10" x="296" y="580.1766"/><text fill="#000000" font-family="sans-serif" font-size="14" font-style="italic" lengthAdjust="spacingAndGlyphs" textLength="117" x="330" y="560.7352">«domain-model»</text><text fill="#000000" font-family="sans-serif" font-size="14" lengthAdjust="spacingAndGlyphs" textLength="155" x="311" y="577.2234">project.domain-model</text><!--entity project.project-types--><rect fill="#FEFECE" filter="url(#f1bc73aky575gr)" height="52.9766" style="stroke: #A80036; stroke-width: 1.5;" width="164" x="306.5" y="713.2"/><rect fill="#FEFECE" height="5" style="stroke: #A80036; stroke-width: 1.5;" width="10" x="301.5" y="718.2"/><rect fill="#FEFECE" height="5" style="stroke: #A80036; stroke-width: 1.5;" width="10" x="301.5" y="756.1766"/><text fill="#000000" font-family="sans-serif" font-size="14" font-style="italic" lengthAdjust="spacingAndGlyphs" textLength="106" x="335.5" y="736.7352">«project-types»</text><text fill="#000000" font-family="sans-serif" font-size="14" lengthAdjust="spacingAndGlyphs" textLength="144" x="316.5" y="753.2234">project.project-types</text><!--entity template.project-template--><rect fill="#FEFECE" filter="url(#f1bc73aky575gr)" height="52.9766" style="stroke: #A80036; stroke-width: 1.5;" width="200" x="288.5" y="977.2"/><rect fill="#FEFECE" height="5" style="stroke: #A80036; stroke-width: 1.5;" width="10" x="283.5" y="982.2"/><rect fill="#FEFECE" height="5" style="stroke: #A80036; stroke-width: 1.5;" width="10" x="283.5" y="1020.1766"/><text fill="#000000" font-family="sans-serif" font-size="14" font-style="italic" lengthAdjust="spacingAndGlyphs" textLength="74" x="351.5" y="1000.7352">«template»</text><text fill="#000000" font-family="sans-serif" font-size="14" lengthAdjust="spacingAndGlyphs" textLength="180" x="298.5" y="1017.2234">template.project-template</text><!--entity domain-model-plugin--><rect fill="#FEFECE" filter="url(#f1bc73aky575gr)" height="52.9766" style="stroke: #A80036; stroke-width: 1.5;" width="175" x="6" y="88.2"/><rect fill="#FEFECE" height="5" style="stroke: #A80036; stroke-width: 1.5;" width="10" x="1" y="93.2"/><rect fill="#FEFECE" height="5" style="stroke: #A80036; stroke-width: 1.5;" width="10" x="1" y="131.1766"/><text fill="#000000" font-family="sans-serif" font-size="14" font-style="italic" lengthAdjust="spacingAndGlyphs" textLength="95" x="46" y="111.7352">«project type»</text><text fill="#000000" font-family="sans-serif" font-size="14" lengthAdjust="spacingAndGlyphs" textLength="155" x="16" y="128.2234">domain-model-plugin</text><!--entity domain-model--><rect fill="#FEFECE" filter="url(#f1bc73aky575gr)" height="52.9766" style="stroke: #A80036; stroke-width: 1.5;" width="123" x="327" y="168.2"/><rect fill="#FEFECE" height="5" style="stroke: #A80036; stroke-width: 1.5;" width="10" x="322" y="173.2"/><rect fill="#FEFECE" height="5" style="stroke: #A80036; stroke-width: 1.5;" width="10" x="322" y="211.1766"/><text fill="#000000" font-family="sans-serif" font-size="14" font-style="italic" lengthAdjust="spacingAndGlyphs" textLength="95" x="341" y="191.7352">«project type»</text><text fill="#000000" font-family="sans-serif" font-size="14" lengthAdjust="spacingAndGlyphs" textLength="103" x="337" y="208.2234">domain-model</text><!--entity generator--><rect fill="#FEFECE" filter="url(#f1bc73aky575gr)" height="52.9766" style="stroke: #A80036; stroke-width: 1.5;" width="115" x="771" y="628.2"/><rect fill="#FEFECE" height="5" style="stroke: #A80036; stroke-width: 1.5;" width="10" x="766" y="633.2"/><rect fill="#FEFECE" height="5" style="stroke: #A80036; stroke-width: 1.5;" width="10" x="766" y="671.1766"/><text fill="#000000" font-family="sans-serif" font-size="14" font-style="italic" lengthAdjust="spacingAndGlyphs" textLength="95" x="781" y="651.7352">«project type»</text><text fill="#000000" font-family="sans-serif" font-size="14" lengthAdjust="spacingAndGlyphs" textLength="68" x="794.5" y="668.2234">generator</text><!--entity model--><rect fill="#FEFECE" filter="url(#f1bc73aky575gr)" height="52.9766" style="stroke: #A80036; stroke-width: 1.5;" width="115" x="596" y="402.2"/><rect fill="#FEFECE" height="5" style="stroke: #A80036; stroke-width: 1.5;" width="10" x="591" y="407.2"/><rect fill="#FEFECE" height="5" style="stroke: #A80036; stroke-width: 1.5;" width="10" x="591" y="445.1766"/><text fill="#000000" font-family="sans-serif" font-size="14" font-style="italic" lengthAdjust="spacingAndGlyphs" textLength="95" x="606" y="425.7352">«project type»</text><text fill="#000000" font-family="sans-serif" font-size="14" lengthAdjust="spacingAndGlyphs" textLength="43" x="632" y="442.2234">model</text><!--entity plugin--><rect fill="#FEFECE" filter="url(#f1bc73aky575gr)" height="52.9766" style="stroke: #A80036; stroke-width: 1.5;" width="115" x="331" y="8.2"/><rect fill="#FEFECE" height="5" style="stroke: #A80036; stroke-width: 1.5;" width="10" x="326" y="13.2"/><rect fill="#FEFECE" height="5" style="stroke: #A80036; stroke-width: 1.5;" width="10" x="326" y="51.1766"/><text fill="#000000" font-family="sans-serif" font-size="14" font-style="italic" lengthAdjust="spacingAndGlyphs" textLength="95" x="341" y="31.7352">«project type»</text><text fill="#000000" font-family="sans-serif" font-size="14" lengthAdjust="spacingAndGlyphs" textLength="44" x="366.5" y="48.2234">plugin</text><!--entity project-group--><rect fill="#FEFECE" filter="url(#f1bc73aky575gr)" height="52.9766" style="stroke: #A80036; stroke-width: 1.5;" width="118" x="34.5" y="1017.2"/><rect fill="#FEFECE" height="5" style="stroke: #A80036; stroke-width: 1.5;" width="10" x="29.5" y="1022.2"/><rect fill="#FEFECE" height="5" style="stroke: #A80036; stroke-width: 1.5;" width="10" x="29.5" y="1060.1766"/><text fill="#000000" font-family="sans-serif" font-size="14" font-style="italic" lengthAdjust="spacingAndGlyphs" textLength="95" x="46" y="1040.7352">«project type»</text><text fill="#000000" font-family="sans-serif" font-size="14" lengthAdjust="spacingAndGlyphs" textLength="98" x="44.5" y="1057.2234">project-group</text><!--entity project-types--><rect fill="#FEFECE" filter="url(#f1bc73aky575gr)" height="52.9766" style="stroke: #A80036; stroke-width: 1.5;" width="115" x="331" y="256.2"/><rect fill="#FEFECE" height="5" style="stroke: #A80036; stroke-width: 1.5;" width="10" x="326" y="261.2"/><rect fill="#FEFECE" height="5" style="stroke: #A80036; stroke-width: 1.5;" width="10" x="326" y="299.1766"/><text fill="#000000" font-family="sans-serif" font-size="14" font-style="italic" lengthAdjust="spacingAndGlyphs" textLength="95" x="341" y="279.7352">«project type»</text><text fill="#000000" font-family="sans-serif" font-size="14" lengthAdjust="spacingAndGlyphs" textLength="92" x="342.5" y="296.2234">project-types</text><!--entity template--><rect fill="#FEFECE" filter="url(#f1bc73aky575gr)" height="52.9766" style="stroke: #A80036; stroke-width: 1.5;" width="115" x="596" y="881.2"/><rect fill="#FEFECE" height="5" style="stroke: #A80036; stroke-width: 1.5;" width="10" x="591" y="886.2"/><rect fill="#FEFECE" height="5" style="stroke: #A80036; stroke-width: 1.5;" width="10" x="591" y="924.1766"/><text fill="#000000" font-family="sans-serif" font-size="14" font-style="italic" lengthAdjust="spacingAndGlyphs" textLength="95" x="606" y="904.7352">«project type»</text><text fill="#000000" font-family="sans-serif" font-size="14" lengthAdjust="spacingAndGlyphs" textLength="60" x="623.5" y="921.2234">template</text><!--entity domain-model-plugin.project-template--><rect fill="#FEFECE" filter="url(#f1bc73aky575gr)" height="36.4883" style="stroke: #A80036; stroke-width: 1.5;" width="295" x="241" y="96.7"/><rect fill="#FEFECE" height="5" style="stroke: #A80036; stroke-width: 1.5;" width="10" x="236" y="101.7"/><rect fill="#FEFECE" height="5" style="stroke: #A80036; stroke-width: 1.5;" width="10" x="236" y="123.1883"/><text fill="#000000" font-family="sans-serif" font-size="14" lengthAdjust="spacingAndGlyphs" textLength="275" x="251" y="120.2352">domain-model-plugin.project-template</text><!--entity metamodel-plugin--><rect fill="#FEFECE" filter="url(#f1bc73aky575gr)" height="36.4883" style="stroke: #A80036; stroke-width: 1.5;" width="149" x="985" y="565.7"/><rect fill="#FEFECE" height="5" style="stroke: #A80036; stroke-width: 1.5;" width="10" x="980" y="570.7"/><rect fill="#FEFECE" height="5" style="stroke: #A80036; stroke-width: 1.5;" width="10" x="980" y="592.1883"/><text fill="#000000" font-family="sans-serif" font-size="14" lengthAdjust="spacingAndGlyphs" textLength="129" x="995" y="589.2352">metamodel-plugin</text><!--entity project.domain-model-plugin--><rect fill="#FEFECE" filter="url(#f1bc73aky575gr)" height="36.4883" style="stroke: #A80036; stroke-width: 1.5;" width="227" x="946" y="636.7"/><rect fill="#FEFECE" height="5" style="stroke: #A80036; stroke-width: 1.5;" width="10" x="941" y="641.7"/><rect fill="#FEFECE" height="5" style="stroke: #A80036; stroke-width: 1.5;" width="10" x="941" y="663.1883"/><text fill="#000000" font-family="sans-serif" font-size="14" lengthAdjust="spacingAndGlyphs" textLength="207" x="956" y="660.2352">project.domain-model-plugin</text><!--entity common-model-plugin--><rect fill="#FEFECE" filter="url(#f1bc73aky575gr)" height="36.4883" style="stroke: #A80036; stroke-width: 1.5;" width="183" x="968" y="707.7"/><rect fill="#FEFECE" height="5" style="stroke: #A80036; stroke-width: 1.5;" width="10" x="963" y="712.7"/><rect fill="#FEFECE" height="5" style="stroke: #A80036; stroke-width: 1.5;" width="10" x="963" y="734.1883"/><text fill="#000000" font-family="sans-serif" font-size="14" lengthAdjust="spacingAndGlyphs" textLength="163" x="978" y="731.2352">common-model-plugin</text><!--link domain-model-plugin to plugin--><path d="M181.22,91.03 C227.6,78.36 283.62,63.07 325.57,51.61 " fill="none" id="domain-model-plugin-plugin" style="stroke: #A80036; stroke-width: 1.0;"/><polygon fill="#A80036" points="330.62,50.23,320.8854,48.7341,325.7955,51.5432,322.9865,56.4533,330.62,50.23" style="stroke: #A80036; stroke-width: 1.0;"/><!--link domain-model to model--><path d="M450.03,202.69 C478.39,208.83 511.28,219.66 536,238.7 C590.17,280.42 625.06,355.06 641.48,397.31 " fill="none" id="domain-model-model" style="stroke: #A80036; stroke-width: 1.0;"/><polygon fill="#A80036" points="643.3,402.04,643.8227,392.205,641.5147,397.3696,636.3501,395.0615,643.3,402.04" style="stroke: #A80036; stroke-width: 1.0;"/><!--link model to generator--><path d="M679.03,455.28 C689.19,466.6 700.93,480.07 711,492.7 C746.25,536.89 783.9,590.57 806.56,623.68 " fill="none" id="model-generator" style="stroke: #A80036; stroke-width: 1.0;"/><polygon fill="#A80036" points="809.52,628.01,807.7559,618.3204,806.7038,623.8786,801.1456,622.8264,809.52,628.01" style="stroke: #A80036; stroke-width: 1.0;"/><!--link plugin to generator--><path d="M446.33,41.54 C475.61,47.43 510.43,58.38 536,78.7 C722.19,226.68 800,525.11 821.17,622.89 " fill="none" id="plugin-generator" style="stroke: #A80036; stroke-width: 1.0;"/><polygon fill="#A80036" points="822.25,627.94,824.2831,618.3033,821.2063,623.0502,816.4594,619.9733,822.25,627.94" style="stroke: #A80036; stroke-width: 1.0;"/><!--link project-group to generator--><path d="M125.72,1070.37 C153.79,1092.48 197.24,1122.22 241,1134.7 C367.08,1170.67 415.44,1186.23 536,1134.7 C725.18,1053.86 800.54,780.17 821.18,686.48 " fill="none" id="project-group-generator" style="stroke: #A80036; stroke-width: 1.0;"/><polygon fill="#A80036" points="822.3,681.36,816.4871,689.3105,821.2426,686.2469,824.3062,691.0024,822.3,681.36" style="stroke: #A80036; stroke-width: 1.0;"/><!--link project-types to model--><path d="M446.21,303.26 C473.97,314.18 507.48,328.65 536,344.7 C564.03,360.47 593.38,381.67 615.62,398.83 " fill="none" id="project-types-model" style="stroke: #A80036; stroke-width: 1.0;"/><polygon fill="#A80036" points="619.68,401.98,615.0185,393.3041,615.7286,398.9162,610.1165,399.6264,619.68,401.98" style="stroke: #A80036; stroke-width: 1.0;"/><!--link template to generator--><path d="M672.69,881.11 C704.94,833.94 771.98,735.9 806.28,685.73 " fill="none" id="template-generator" style="stroke: #A80036; stroke-width: 1.0;"/><polygon fill="#A80036" points="809.3,681.32,800.9134,686.4838,806.474,685.4448,807.5131,691.0054,809.3,681.32" style="stroke: #A80036; stroke-width: 1.0;"/><!--link common-model to domain-model--><path d="M319.95,377.55 C280,367.59 233.24,347.92 211,309.2 C199.27,288.78 199.27,276.63 211,256.2 C232.84,218.18 280.71,203.13 321.23,197.41 " fill="none" id="common-model-domain-model" style="stroke: #A80036; stroke-width: 1.0;"/><polygon fill="#A80036" points="326.65,196.7,317.2024,193.9174,321.6934,197.3571,318.2537,201.848,326.65,196.7" style="stroke: #A80036; stroke-width: 1.0;"/><!--link domain-model.project-template to template--><path d="M502.94,1065.06 C514.55,1060.18 525.81,1054.44 536,1047.7 C578.74,1019.44 614.04,970.87 634.21,939.02 " fill="none" id="domain-model.project-template-template" style="stroke: #A80036; stroke-width: 1.0;"/><polygon fill="#A80036" points="637.07,934.45,628.9164,939.9743,634.4264,938.694,635.7068,944.2041,637.07,934.45" style="stroke: #A80036; stroke-width: 1.0;"/><!--link generator.project-template to template--><path d="M478.24,854.23 C497.3,859.97 517.33,866.01 536,871.7 C553.86,877.15 573.25,883.11 590.98,888.59 " fill="none" id="generator.project-template-template" style="stroke: #A80036; stroke-width: 1.0;"/><polygon fill="#A80036" points="595.94,890.13,588.5184,883.6554,591.162,888.6566,586.1609,891.3002,595.94,890.13" style="stroke: #A80036; stroke-width: 1.0;"/><!--link metamodel to domain-model--><path d="M319.91,648.8 C279.67,642.95 232.6,627.82 211,590.2 C174.03,525.84 174.03,320.56 211,256.2 C232.84,218.18 280.71,203.13 321.23,197.41 " fill="none" id="metamodel-domain-model" style="stroke: #A80036; stroke-width: 1.0;"/><polygon fill="#A80036" points="326.65,196.7,317.2024,193.9174,321.6934,197.3571,318.2537,201.848,326.65,196.7" style="stroke: #A80036; stroke-width: 1.0;"/><!--link domain-model to metamodel--><path d="M326.65,196.7 C285.06,201.83 233.82,216.47 211,256.2 C174.03,320.56 174.03,525.84 211,590.2 C231.68,626.2 275.67,641.6 314.69,648 " fill="none" id="domain-model-metamodel" style="stroke: #A80036; stroke-width: 1.0; stroke-dasharray: 7.0,7.0;"/><polygon fill="#A80036" points="319.91,648.8,311.6345,643.46,314.9698,648.029,310.4008,651.3643,319.91,648.8" style="stroke: #A80036; stroke-width: 1.0;"/><!--link model.project-template to template--><path d="M480.34,488.07 C500.79,494.63 520.88,504.59 536,519.7 C636.16,619.88 650.83,802.6 652.53,875.97 " fill="none" id="model.project-template-template" style="stroke: #A80036; stroke-width: 1.0;"/><polygon fill="#A80036" points="652.63,881.06,656.4492,871.9818,652.53,876.061,648.4508,872.1418,652.63,881.06" style="stroke: #A80036; stroke-width: 1.0;"/><!--link project-group.project-template to template--><path d="M507.54,912.11 C536.22,911.24 565.77,910.34 590.64,909.58 " fill="none" id="project-group.project-template-template" style="stroke: #A80036; stroke-width: 1.0;"/><polygon fill="#A80036" points="595.88,909.43,586.7588,905.7147,590.8825,909.5871,587.0101,913.7107,595.88,909.43" style="stroke: #A80036; stroke-width: 1.0;"/><!--link project.domain-model to domain-model--><path d="M300.93,557.39 C265.77,549.75 229.27,534.02 211,502.2 C183.77,454.8 183.77,303.61 211,256.2 C232.84,218.18 280.71,203.13 321.23,197.41 " fill="none" id="project.domain-model-domain-model" style="stroke: #A80036; stroke-width: 1.0;"/><polygon fill="#A80036" points="326.65,196.7,317.2024,193.9174,321.6934,197.3571,318.2537,201.848,326.65,196.7" style="stroke: #A80036; stroke-width: 1.0;"/><!--link project.project-types to project-types--><path d="M306.08,734.45 C269.38,727.25 230.17,711.57 211,678.2 C176.03,617.31 176.03,423.1 211,362.2 C234.35,321.55 284.59,301.61 325.68,291.87 " fill="none" id="project.project-types-project-types" style="stroke: #A80036; stroke-width: 1.0;"/><polygon fill="#A80036" points="330.65,290.73,320.9847,288.8375,325.7759,291.8449,322.7685,296.6361,330.65,290.73" style="stroke: #A80036; stroke-width: 1.0;"/><!--link template.project-template to template--><path d="M488.58,992.6 C504.55,987.8 520.82,982.35 536,976.7 C565.39,965.78 597.9,951.04 621.09,937.16 " fill="none" id="template.project-template-template" style="stroke: #A80036; stroke-width: 1.0;"/><polygon fill="#A80036" points="625.6,934.4,615.8324,935.6627,621.329,936.9997,619.992,942.4963,625.6,934.4" style="stroke: #A80036; stroke-width: 1.0;"/><!--link template to template.project-template--><path d="M595.92,917.64 C577.07,925.23 555.83,934.34 536,941.7 C503.64,953.73 466.38,964.88 437.53,975.31 " fill="none" id="template-template.project-template" style="stroke: #A80036; stroke-width: 1.0; stroke-dasharray: 7.0,7.0;"/><polygon fill="#A80036" points="432.61,977.11,442.4375,977.7576,437.3027,975.3841,439.6761,970.2493,432.61,977.11" style="stroke: #A80036; stroke-width: 1.0;"/><!--link domain-model-plugin to metamodel--><path d="M94.15,141.22 C94.56,222.94 107.19,473.5 241,607.7 C260.59,627.35 288.6,638.29 314.89,644.36 " fill="none" id="domain-model-plugin-metamodel" style="stroke: #A80036; stroke-width: 1.0; stroke-dasharray: 7.0,7.0;"/><polygon fill="#A80036" points="319.77,645.44,311.8357,639.605,314.8861,644.369,310.1221,647.4193,319.77,645.44" style="stroke: #A80036; stroke-width: 1.0;"/><!--link domain-model-plugin to domain-model-plugin.project-template--><path d="M181.22,114.7 C198.42,114.7 216.94,114.7 235.59,114.7 " fill="none" id="domain-model-plugin-domain-model-plugin.project-template" style="stroke: #A80036; stroke-width: 1.0; stroke-dasharray: 7.0,7.0;"/><polygon fill="#A80036" points="240.85,114.7,231.85,110.7,235.85,114.7,231.85,118.7,240.85,114.7" style="stroke: #A80036; stroke-width: 1.0;"/><!--link domain-model to domain-model.project-template--><path d="M326.65,196.7 C285.06,201.83 233.82,216.47 211,256.2 C189.58,293.49 189.58,992.92 211,1030.2 C222.48,1050.19 241.14,1063.82 262.15,1073.09 " fill="none" id="domain-model-domain-model.project-template" style="stroke: #A80036; stroke-width: 1.0; stroke-dasharray: 7.0,7.0;"/><polygon fill="#A80036" points="266.95,1075.12,260.2155,1067.9335,262.344,1073.1746,257.1028,1075.3031,266.95,1075.12" style="stroke: #A80036; stroke-width: 1.0;"/><!--link generator to project.project-types--><path d="M770.88,665.69 C695.89,680.24 562.94,706.04 475.51,723.01 " fill="none" id="generator-project.project-types" style="stroke: #A80036; stroke-width: 1.0; stroke-dasharray: 7.0,7.0;"/><polygon fill="#A80036" points="470.6,723.96,480.1925,726.1925,475.5104,723.0179,478.6851,718.3358,470.6,723.96" style="stroke: #A80036; stroke-width: 1.0;"/><!--link generator to project.domain-model--><path d="M770.74,642.91 C697.26,627.64 568.31,600.85 480.94,582.7 " fill="none" id="generator-project.domain-model" style="stroke: #A80036; stroke-width: 1.0; stroke-dasharray: 7.0,7.0;"/><polygon fill="#A80036" points="476.03,581.68,484.0129,587.4483,480.9227,582.7101,485.661,579.6199,476.03,581.68" style="stroke: #A80036; stroke-width: 1.0;"/><!--link generator to common-model--><path d="M794.25,628.18 C723.91,572.24 564.16,446.09 536,431.7 C512.94,419.92 486.2,410.73 461.92,403.87 " fill="none" id="generator-common-model" style="stroke: #A80036; stroke-width: 1.0; stroke-dasharray: 7.0,7.0;"/><polygon fill="#A80036" points="457.1,402.53,464.6944,408.801,461.9162,403.8734,466.8438,401.0952,457.1,402.53" style="stroke: #A80036; stroke-width: 1.0;"/><!--link generator to generator.project-template--><path d="M773,681.28 C715.07,708.94 620.35,752.51 536,783.7 C520.99,789.25 504.93,794.63 489.14,799.61 " fill="none" id="generator-generator.project-template" style="stroke: #A80036; stroke-width: 1.0; stroke-dasharray: 7.0,7.0;"/><polygon fill="#A80036" points="484.25,801.14,494.0353,802.2568,489.0199,799.6405,491.6361,794.625,484.25,801.14" style="stroke: #A80036; stroke-width: 1.0;"/><!--link generator to metamodel-plugin--><path d="M886.11,637.15 C919.18,626.9 961,613.93 995.17,603.34 " fill="none" id="generator-metamodel-plugin" style="stroke: #A80036; stroke-width: 1.0; stroke-dasharray: 7.0,7.0;"/><polygon fill="#A80036" points="1000.15,601.79,990.3687,600.6383,995.3748,603.2724,992.7406,608.2785,1000.15,601.79" style="stroke: #A80036; stroke-width: 1.0;"/><!--link generator to project.domain-model-plugin--><path d="M886.11,654.7 C902.69,654.7 921.48,654.7 940.39,654.7 " fill="none" id="generator-project.domain-model-plugin" style="stroke: #A80036; stroke-width: 1.0; stroke-dasharray: 7.0,7.0;"/><polygon fill="#A80036" points="945.73,654.7,936.73,650.7,940.73,654.7,936.73,658.7,945.73,654.7" style="stroke: #A80036; stroke-width: 1.0;"/><!--link generator to common-model-plugin--><path d="M886.11,672.25 C919.18,682.51 961,695.47 995.17,706.07 " fill="none" id="generator-common-model-plugin" style="stroke: #A80036; stroke-width: 1.0; stroke-dasharray: 7.0,7.0;"/><polygon fill="#A80036" points="1000.15,707.61,992.7461,701.1152,995.3761,706.1235,990.3677,708.7535,1000.15,707.61" style="stroke: #A80036; stroke-width: 1.0;"/><!--link model to model.project-template--><path d="M595.96,438.81 C563.63,444.58 522.23,451.98 485,458.64 " fill="none" id="model-model.project-template" style="stroke: #A80036; stroke-width: 1.0; stroke-dasharray: 7.0,7.0;"/><polygon fill="#A80036" points="480.01,459.53,489.5768,461.8702,484.9307,458.6431,488.1578,453.9971,480.01,459.53" style="stroke: #A80036; stroke-width: 1.0;"/><!--link project-group to project-group.project-template--><path d="M134.87,1017.19 C163.59,999.19 203.56,975.81 241,959.7 C254.37,953.95 268.73,948.65 283.04,943.86 " fill="none" id="project-group-project-group.project-template" style="stroke: #A80036; stroke-width: 1.0; stroke-dasharray: 7.0,7.0;"/><polygon fill="#A80036" points="287.89,942.26,278.0913,941.267,283.1395,943.8197,280.5868,948.8678,287.89,942.26" style="stroke: #A80036; stroke-width: 1.0;"/><!--
@startuml
left to right direction

[domain-model-plugin] <<project type>>
[domain-model] <<project type>>
[generator] <<project type>>
[model] <<project type>>
[plugin] <<project type>>
[project-group] <<project type>>
[project-types] <<project type>>
[template] <<project type>>


[domain-model-plugin] - -> [plugin]
[domain-model] - -> [model]
[model] - -> [generator]
[plugin] - -> [generator]
[project-group] - -> [generator]
[project-types] - -> [model]
[template] - -> [generator]


package "laplacian" {
  [common-model] <<domain-model>>
  [common-model] - -> [domain-model]
  [domain-model.project-template] <<template>>
  [domain-model.project-template] - -> [template]
  [generator.project-template] <<template>>
  [generator.project-template] - -> [template]
  [metamodel] <<domain-model>>
  [metamodel] - -> [domain-model]
  [model.project-template] <<template>>
  [model.project-template] - -> [template]
  [project-group.project-template] <<template>>
  [project-group.project-template] - -> [template]
  [project.domain-model] <<domain-model>>
  [project.domain-model] - -> [domain-model]
  [project.project-types] <<project-types>>
  [project.project-types] - -> [project-types]
  [template.project-template] <<template>>
  [template.project-template] - -> [template]
}



  [domain-model-plugin] ..> [metamodel]
  [domain-model-plugin] ..> [domain-model-plugin.project-template]

  [domain-model] ..> [metamodel]
  [domain-model] ..> [domain-model.project-template]

  [generator] ..> [project.project-types]
  [generator] ..> [project.domain-model]
  [generator] ..> [common-model]
  [generator] ..> [generator.project-template]
  [generator] ..> [metamodel-plugin]
  [generator] ..> [project.domain-model-plugin]
  [generator] ..> [common-model-plugin]

  [model] ..> [model.project-template]


  [project-group] ..> [project-group.project-template]


  [template] ..> [template.project-template]


@enduml

PlantUML version 1.2019.05(Sun Apr 21 01:45:36 JST 2019)
(GPL source distribution)
Java Runtime: OpenJDK Runtime Environment
JVM: OpenJDK 64-Bit Server VM
Java Version: 11.0.7+10-LTS
Operating System: Mac OS X
OS Version: 10.15.5
Default Encoding: UTF-8
Language: en
Country: JP
--></g></svg>