<?xml version="1.0" encoding="UTF-8" standalone="no"?><svg xmlns="http://www.w3.org/2000/svg" xmlns:xlink="http://www.w3.org/1999/xlink" contentScriptType="application/ecmascript" contentStyleType="text/css" height="1599px" preserveAspectRatio="none" style="width:1354px;height:1599px;" version="1.1" viewBox="0 0 1354 1599" width="1354px" zoomAndPan="magnify"><defs><filter height="300%" id="fhkmqcj0klwpj" width="300%" x="-1" y="-1"><feGaussianBlur result="blurOut" stdDeviation="2.0"/><feColorMatrix in="blurOut" result="blurOut2" type="matrix" values="0 0 0 0 0 0 0 0 0 0 0 0 0 0 0 0 0 0 .4 0"/><feOffset dx="4.0" dy="4.0" in="blurOut2" result="blurOut3"/><feBlend in="SourceGraphic" in2="blurOut3" mode="normal"/></filter></defs><g><!--cluster laplacian--><polygon fill="#FFFFFF" filter="url(#fhkmqcj0klwpj)" points="225,24,295,24,302,46.4883,552,46.4883,552,745,225,745,225,24" style="stroke: #000000; stroke-width: 1.5;"/><line style="stroke: #000000; stroke-width: 1.5;" x1="225" x2="302" y1="46.4883" y2="46.4883"/><text fill="#000000" font-family="sans-serif" font-size="14" font-weight="bold" lengthAdjust="spacingAndGlyphs" textLength="64" x="229" y="39.5352">laplacian</text><!--entity common-model--><rect fill="#FEFECE" filter="url(#fhkmqcj0klwpj)" height="52.9766" style="stroke: #A80036; stroke-width: 1.5;" width="137" x="320" y="323.5"/><rect fill="#FEFECE" height="5" style="stroke: #A80036; stroke-width: 1.5;" width="10" x="315" y="328.5"/><rect fill="#FEFECE" height="5" style="stroke: #A80036; stroke-width: 1.5;" width="10" x="315" y="366.4766"/><text fill="#000000" font-family="sans-serif" font-size="14" font-style="italic" lengthAdjust="spacingAndGlyphs" textLength="117" x="330" y="347.0352">«domain-model»</text><text fill="#000000" font-family="sans-serif" font-size="14" lengthAdjust="spacingAndGlyphs" textLength="111" x="333" y="363.5234">common-model</text><!--entity domain-model-plugin.project-template--><rect fill="#FEFECE" filter="url(#fhkmqcj0klwpj)" height="52.9766" style="stroke: #A80036; stroke-width: 1.5;" width="295" x="241" y="147.5"/><rect fill="#FEFECE" height="5" style="stroke: #A80036; stroke-width: 1.5;" width="10" x="236" y="152.5"/><rect fill="#FEFECE" height="5" style="stroke: #A80036; stroke-width: 1.5;" width="10" x="236" y="190.4766"/><text fill="#000000" font-family="sans-serif" font-size="14" font-style="italic" lengthAdjust="spacingAndGlyphs" textLength="74" x="351.5" y="171.0352">«template»</text><text fill="#000000" font-family="sans-serif" font-size="14" lengthAdjust="spacingAndGlyphs" textLength="275" x="251" y="187.5234">domain-model-plugin.project-template</text><!--entity domain-model.project-template--><rect fill="#FEFECE" filter="url(#fhkmqcj0klwpj)" height="52.9766" style="stroke: #A80036; stroke-width: 1.5;" width="243" x="267" y="59.5"/><rect fill="#FEFECE" height="5" style="stroke: #A80036; stroke-width: 1.5;" width="10" x="262" y="64.5"/><rect fill="#FEFECE" height="5" style="stroke: #A80036; stroke-width: 1.5;" width="10" x="262" y="102.4766"/><text fill="#000000" font-family="sans-serif" font-size="14" font-style="italic" lengthAdjust="spacingAndGlyphs" textLength="74" x="351.5" y="83.0352">«template»</text><text fill="#000000" font-family="sans-serif" font-size="14" lengthAdjust="spacingAndGlyphs" textLength="223" x="277" y="99.5234">domain-model.project-template</text><!--entity generator.project-template--><rect fill="#FEFECE" filter="url(#fhkmqcj0klwpj)" height="52.9766" style="stroke: #A80036; stroke-width: 1.5;" width="208" x="284.5" y="235.5"/><rect fill="#FEFECE" height="5" style="stroke: #A80036; stroke-width: 1.5;" width="10" x="279.5" y="240.5"/><rect fill="#FEFECE" height="5" style="stroke: #A80036; stroke-width: 1.5;" width="10" x="279.5" y="278.4766"/><text fill="#000000" font-family="sans-serif" font-size="14" font-style="italic" lengthAdjust="spacingAndGlyphs" textLength="74" x="351.5" y="259.0352">«template»</text><text fill="#000000" font-family="sans-serif" font-size="14" lengthAdjust="spacingAndGlyphs" textLength="188" x="294.5" y="275.5234">generator.project-template</text><!--entity metamodel--><rect fill="#FEFECE" filter="url(#fhkmqcj0klwpj)" height="52.9766" style="stroke: #A80036; stroke-width: 1.5;" width="137" x="320" y="675.5"/><rect fill="#FEFECE" height="5" style="stroke: #A80036; stroke-width: 1.5;" width="10" x="315" y="680.5"/><rect fill="#FEFECE" height="5" style="stroke: #A80036; stroke-width: 1.5;" width="10" x="315" y="718.4766"/><text fill="#000000" font-family="sans-serif" font-size="14" font-style="italic" lengthAdjust="spacingAndGlyphs" textLength="117" x="330" y="699.0352">«domain-model»</text><text fill="#000000" font-family="sans-serif" font-size="14" lengthAdjust="spacingAndGlyphs" textLength="77" x="350" y="715.5234">metamodel</text><!--entity project-group.project-template--><rect fill="#FEFECE" filter="url(#fhkmqcj0klwpj)" height="52.9766" style="stroke: #A80036; stroke-width: 1.5;" width="238" x="269.5" y="587.5"/><rect fill="#FEFECE" height="5" style="stroke: #A80036; stroke-width: 1.5;" width="10" x="264.5" y="592.5"/><rect fill="#FEFECE" height="5" style="stroke: #A80036; stroke-width: 1.5;" width="10" x="264.5" y="630.4766"/><text fill="#000000" font-family="sans-serif" font-size="14" font-style="italic" lengthAdjust="spacingAndGlyphs" textLength="112" x="332.5" y="611.0352">«project-group»</text><text fill="#000000" font-family="sans-serif" font-size="14" lengthAdjust="spacingAndGlyphs" textLength="218" x="279.5" y="627.5234">project-group.project-template</text><!--entity project.domain-model--><rect fill="#FEFECE" filter="url(#fhkmqcj0klwpj)" height="52.9766" style="stroke: #A80036; stroke-width: 1.5;" width="175" x="301" y="411.5"/><rect fill="#FEFECE" height="5" style="stroke: #A80036; stroke-width: 1.5;" width="10" x="296" y="416.5"/><rect fill="#FEFECE" height="5" style="stroke: #A80036; stroke-width: 1.5;" width="10" x="296" y="454.4766"/><text fill="#000000" font-family="sans-serif" font-size="14" font-style="italic" lengthAdjust="spacingAndGlyphs" textLength="117" x="330" y="435.0352">«domain-model»</text><text fill="#000000" font-family="sans-serif" font-size="14" lengthAdjust="spacingAndGlyphs" textLength="155" x="311" y="451.5234">project.domain-model</text><!--entity project.project-types--><rect fill="#FEFECE" filter="url(#fhkmqcj0klwpj)" height="52.9766" style="stroke: #A80036; stroke-width: 1.5;" width="164" x="306.5" y="499.5"/><rect fill="#FEFECE" height="5" style="stroke: #A80036; stroke-width: 1.5;" width="10" x="301.5" y="504.5"/><rect fill="#FEFECE" height="5" style="stroke: #A80036; stroke-width: 1.5;" width="10" x="301.5" y="542.4766"/><text fill="#000000" font-family="sans-serif" font-size="14" font-style="italic" lengthAdjust="spacingAndGlyphs" textLength="57" x="360" y="523.0352">«model»</text><text fill="#000000" font-family="sans-serif" font-size="14" lengthAdjust="spacingAndGlyphs" textLength="144" x="316.5" y="539.5234">project.project-types</text><!--entity arch-model--><rect fill="#FEFECE" filter="url(#fhkmqcj0klwpj)" height="52.9766" style="stroke: #A80036; stroke-width: 1.5;" width="115" x="331" y="1171.5"/><rect fill="#FEFECE" height="5" style="stroke: #A80036; stroke-width: 1.5;" width="10" x="326" y="1176.5"/><rect fill="#FEFECE" height="5" style="stroke: #A80036; stroke-width: 1.5;" width="10" x="326" y="1214.4766"/><text fill="#000000" font-family="sans-serif" font-size="14" font-style="italic" lengthAdjust="spacingAndGlyphs" textLength="95" x="341" y="1195.0352">«project type»</text><text fill="#000000" font-family="sans-serif" font-size="14" lengthAdjust="spacingAndGlyphs" textLength="81" x="348" y="1211.5234">arch-model</text><!--entity domain-model-plugin--><rect fill="#FEFECE" filter="url(#fhkmqcj0klwpj)" height="52.9766" style="stroke: #A80036; stroke-width: 1.5;" width="175" x="6" y="675.5"/><rect fill="#FEFECE" height="5" style="stroke: #A80036; stroke-width: 1.5;" width="10" x="1" y="680.5"/><rect fill="#FEFECE" height="5" style="stroke: #A80036; stroke-width: 1.5;" width="10" x="1" y="718.4766"/><text fill="#000000" font-family="sans-serif" font-size="14" font-style="italic" lengthAdjust="spacingAndGlyphs" textLength="95" x="46" y="699.0352">«project type»</text><text fill="#000000" font-family="sans-serif" font-size="14" lengthAdjust="spacingAndGlyphs" textLength="155" x="16" y="715.5234">domain-model-plugin</text><!--entity domain-model--><rect fill="#FEFECE" filter="url(#fhkmqcj0klwpj)" height="52.9766" style="stroke: #A80036; stroke-width: 1.5;" width="123" x="327" y="923.5"/><rect fill="#FEFECE" height="5" style="stroke: #A80036; stroke-width: 1.5;" width="10" x="322" y="928.5"/><rect fill="#FEFECE" height="5" style="stroke: #A80036; stroke-width: 1.5;" width="10" x="322" y="966.4766"/><text fill="#000000" font-family="sans-serif" font-size="14" font-style="italic" lengthAdjust="spacingAndGlyphs" textLength="95" x="341" y="947.0352">«project type»</text><text fill="#000000" font-family="sans-serif" font-size="14" lengthAdjust="spacingAndGlyphs" textLength="103" x="337" y="963.5234">domain-model</text><!--entity generator--><rect fill="#FEFECE" filter="url(#fhkmqcj0klwpj)" height="52.9766" style="stroke: #A80036; stroke-width: 1.5;" width="115" x="941" y="499.5"/><rect fill="#FEFECE" height="5" style="stroke: #A80036; stroke-width: 1.5;" width="10" x="936" y="504.5"/><rect fill="#FEFECE" height="5" style="stroke: #A80036; stroke-width: 1.5;" width="10" x="936" y="542.4766"/><text fill="#000000" font-family="sans-serif" font-size="14" font-style="italic" lengthAdjust="spacingAndGlyphs" textLength="95" x="951" y="523.0352">«project type»</text><text fill="#000000" font-family="sans-serif" font-size="14" lengthAdjust="spacingAndGlyphs" textLength="68" x="964.5" y="539.5234">generator</text><!--entity model--><rect fill="#FEFECE" filter="url(#fhkmqcj0klwpj)" height="52.9766" style="stroke: #A80036; stroke-width: 1.5;" width="115" x="681" y="789.5"/><rect fill="#FEFECE" height="5" style="stroke: #A80036; stroke-width: 1.5;" width="10" x="676" y="794.5"/><rect fill="#FEFECE" height="5" style="stroke: #A80036; stroke-width: 1.5;" width="10" x="676" y="832.4766"/><text fill="#000000" font-family="sans-serif" font-size="14" font-style="italic" lengthAdjust="spacingAndGlyphs" textLength="95" x="691" y="813.0352">«project type»</text><text fill="#000000" font-family="sans-serif" font-size="14" lengthAdjust="spacingAndGlyphs" textLength="43" x="717" y="829.5234">model</text><!--entity plugin--><rect fill="#FEFECE" filter="url(#fhkmqcj0klwpj)" height="52.9766" style="stroke: #A80036; stroke-width: 1.5;" width="115" x="331" y="1083.5"/><rect fill="#FEFECE" height="5" style="stroke: #A80036; stroke-width: 1.5;" width="10" x="326" y="1088.5"/><rect fill="#FEFECE" height="5" style="stroke: #A80036; stroke-width: 1.5;" width="10" x="326" y="1126.4766"/><text fill="#000000" font-family="sans-serif" font-size="14" font-style="italic" lengthAdjust="spacingAndGlyphs" textLength="95" x="341" y="1107.0352">«project type»</text><text fill="#000000" font-family="sans-serif" font-size="14" lengthAdjust="spacingAndGlyphs" textLength="44" x="366.5" y="1123.5234">plugin</text><!--entity project-group--><rect fill="#FEFECE" filter="url(#fhkmqcj0klwpj)" height="52.9766" style="stroke: #A80036; stroke-width: 1.5;" width="118" x="329.5" y="835.5"/><rect fill="#FEFECE" height="5" style="stroke: #A80036; stroke-width: 1.5;" width="10" x="324.5" y="840.5"/><rect fill="#FEFECE" height="5" style="stroke: #A80036; stroke-width: 1.5;" width="10" x="324.5" y="878.4766"/><text fill="#000000" font-family="sans-serif" font-size="14" font-style="italic" lengthAdjust="spacingAndGlyphs" textLength="95" x="341" y="859.0352">«project type»</text><text fill="#000000" font-family="sans-serif" font-size="14" lengthAdjust="spacingAndGlyphs" textLength="98" x="339.5" y="875.5234">project-group</text><!--entity schema-model--><rect fill="#FEFECE" filter="url(#fhkmqcj0klwpj)" height="52.9766" style="stroke: #A80036; stroke-width: 1.5;" width="123" x="32" y="904.5"/><rect fill="#FEFECE" height="5" style="stroke: #A80036; stroke-width: 1.5;" width="10" x="27" y="909.5"/><rect fill="#FEFECE" height="5" style="stroke: #A80036; stroke-width: 1.5;" width="10" x="27" y="947.4766"/><text fill="#000000" font-family="sans-serif" font-size="14" font-style="italic" lengthAdjust="spacingAndGlyphs" textLength="95" x="46" y="928.0352">«project type»</text><text fill="#000000" font-family="sans-serif" font-size="14" lengthAdjust="spacingAndGlyphs" textLength="103" x="42" y="944.5234">schema-model</text><!--entity schema-plugin--><rect fill="#FEFECE" filter="url(#fhkmqcj0klwpj)" height="52.9766" style="stroke: #A80036; stroke-width: 1.5;" width="124" x="31.5" y="1182.5"/><rect fill="#FEFECE" height="5" style="stroke: #A80036; stroke-width: 1.5;" width="10" x="26.5" y="1187.5"/><rect fill="#FEFECE" height="5" style="stroke: #A80036; stroke-width: 1.5;" width="10" x="26.5" y="1225.4766"/><text fill="#000000" font-family="sans-serif" font-size="14" font-style="italic" lengthAdjust="spacingAndGlyphs" textLength="95" x="46" y="1206.0352">«project type»</text><text fill="#000000" font-family="sans-serif" font-size="14" lengthAdjust="spacingAndGlyphs" textLength="104" x="41.5" y="1222.5234">schema-plugin</text><!--entity service-generator--><rect fill="#FEFECE" filter="url(#fhkmqcj0klwpj)" height="52.9766" style="stroke: #A80036; stroke-width: 1.5;" width="143" x="317" y="1259.5"/><rect fill="#FEFECE" height="5" style="stroke: #A80036; stroke-width: 1.5;" width="10" x="312" y="1264.5"/><rect fill="#FEFECE" height="5" style="stroke: #A80036; stroke-width: 1.5;" width="10" x="312" y="1302.4766"/><text fill="#000000" font-family="sans-serif" font-size="14" font-style="italic" lengthAdjust="spacingAndGlyphs" textLength="95" x="341" y="1283.0352">«project type»</text><text fill="#000000" font-family="sans-serif" font-size="14" lengthAdjust="spacingAndGlyphs" textLength="123" x="327" y="1299.5234">service-generator</text><!--entity template--><rect fill="#FEFECE" filter="url(#fhkmqcj0klwpj)" height="52.9766" style="stroke: #A80036; stroke-width: 1.5;" width="115" x="681" y="159.5"/><rect fill="#FEFECE" height="5" style="stroke: #A80036; stroke-width: 1.5;" width="10" x="676" y="164.5"/><rect fill="#FEFECE" height="5" style="stroke: #A80036; stroke-width: 1.5;" width="10" x="676" y="202.4766"/><text fill="#000000" font-family="sans-serif" font-size="14" font-style="italic" lengthAdjust="spacingAndGlyphs" textLength="95" x="691" y="183.0352">«project type»</text><text fill="#000000" font-family="sans-serif" font-size="14" lengthAdjust="spacingAndGlyphs" textLength="60" x="708.5" y="199.5234">template</text><!--entity datasource.schema-plugin--><rect fill="#FEFECE" filter="url(#fhkmqcj0klwpj)" height="36.4883" style="stroke: #A80036; stroke-width: 1.5;" width="204" x="636.5" y="1055"/><rect fill="#FEFECE" height="5" style="stroke: #A80036; stroke-width: 1.5;" width="10" x="631.5" y="1060"/><rect fill="#FEFECE" height="5" style="stroke: #A80036; stroke-width: 1.5;" width="10" x="631.5" y="1081.4883"/><text fill="#000000" font-family="sans-serif" font-size="14" lengthAdjust="spacingAndGlyphs" textLength="184" x="646.5" y="1078.5352">datasource.schema-plugin</text><!--entity service-api.schema-plugin--><rect fill="#FEFECE" filter="url(#fhkmqcj0klwpj)" height="36.4883" style="stroke: #A80036; stroke-width: 1.5;" width="204" x="636.5" y="984"/><rect fill="#FEFECE" height="5" style="stroke: #A80036; stroke-width: 1.5;" width="10" x="631.5" y="989"/><rect fill="#FEFECE" height="5" style="stroke: #A80036; stroke-width: 1.5;" width="10" x="631.5" y="1010.4883"/><text fill="#000000" font-family="sans-serif" font-size="14" lengthAdjust="spacingAndGlyphs" textLength="184" x="646.5" y="1007.5352">service-api.schema-plugin</text><!--entity metamodel-plugin--><rect fill="#FEFECE" filter="url(#fhkmqcj0klwpj)" height="36.4883" style="stroke: #A80036; stroke-width: 1.5;" width="149" x="1155" y="1303"/><rect fill="#FEFECE" height="5" style="stroke: #A80036; stroke-width: 1.5;" width="10" x="1150" y="1308"/><rect fill="#FEFECE" height="5" style="stroke: #A80036; stroke-width: 1.5;" width="10" x="1150" y="1329.4883"/><text fill="#000000" font-family="sans-serif" font-size="14" lengthAdjust="spacingAndGlyphs" textLength="129" x="1165" y="1326.5352">metamodel-plugin</text><!--entity project.domain-model-plugin--><rect fill="#FEFECE" filter="url(#fhkmqcj0klwpj)" height="36.4883" style="stroke: #A80036; stroke-width: 1.5;" width="227" x="1116" y="473"/><rect fill="#FEFECE" height="5" style="stroke: #A80036; stroke-width: 1.5;" width="10" x="1111" y="478"/><rect fill="#FEFECE" height="5" style="stroke: #A80036; stroke-width: 1.5;" width="10" x="1111" y="499.4883"/><text fill="#000000" font-family="sans-serif" font-size="14" lengthAdjust="spacingAndGlyphs" textLength="207" x="1126" y="496.5352">project.domain-model-plugin</text><!--entity common-model-plugin--><rect fill="#FEFECE" filter="url(#fhkmqcj0klwpj)" height="36.4883" style="stroke: #A80036; stroke-width: 1.5;" width="183" x="1138" y="544"/><rect fill="#FEFECE" height="5" style="stroke: #A80036; stroke-width: 1.5;" width="10" x="1133" y="549"/><rect fill="#FEFECE" height="5" style="stroke: #A80036; stroke-width: 1.5;" width="10" x="1133" y="570.4883"/><text fill="#000000" font-family="sans-serif" font-size="14" lengthAdjust="spacingAndGlyphs" textLength="163" x="1148" y="567.5352">common-model-plugin</text><!--entity schema.document-template--><rect fill="#FEFECE" filter="url(#fhkmqcj0klwpj)" height="36.4883" style="stroke: #A80036; stroke-width: 1.5;" width="213" x="282" y="1012"/><rect fill="#FEFECE" height="5" style="stroke: #A80036; stroke-width: 1.5;" width="10" x="277" y="1017"/><rect fill="#FEFECE" height="5" style="stroke: #A80036; stroke-width: 1.5;" width="10" x="277" y="1038.4883"/><text fill="#000000" font-family="sans-serif" font-size="14" lengthAdjust="spacingAndGlyphs" textLength="193" x="292" y="1035.5352">schema.document-template</text><!--entity schema.plugin-template--><rect fill="#FEFECE" filter="url(#fhkmqcj0klwpj)" height="36.4883" style="stroke: #A80036; stroke-width: 1.5;" width="188" x="294.5" y="1552"/><rect fill="#FEFECE" height="5" style="stroke: #A80036; stroke-width: 1.5;" width="10" x="289.5" y="1557"/><rect fill="#FEFECE" height="5" style="stroke: #A80036; stroke-width: 1.5;" width="10" x="289.5" y="1578.4883"/><text fill="#000000" font-family="sans-serif" font-size="14" lengthAdjust="spacingAndGlyphs" textLength="168" x="304.5" y="1575.5352">schema.plugin-template</text><!--entity datasource.flyway-migration-template--><rect fill="#FEFECE" filter="url(#fhkmqcj0klwpj)" height="36.4883" style="stroke: #A80036; stroke-width: 1.5;" width="285" x="596" y="1268"/><rect fill="#FEFECE" height="5" style="stroke: #A80036; stroke-width: 1.5;" width="10" x="591" y="1273"/><rect fill="#FEFECE" height="5" style="stroke: #A80036; stroke-width: 1.5;" width="10" x="591" y="1294.4883"/><text fill="#000000" font-family="sans-serif" font-size="14" lengthAdjust="spacingAndGlyphs" textLength="265" x="606" y="1291.5352">datasource.flyway-migration-template</text><!--entity service-api.springboot2-template--><rect fill="#FEFECE" filter="url(#fhkmqcj0klwpj)" height="36.4883" style="stroke: #A80036; stroke-width: 1.5;" width="253" x="612" y="1339"/><rect fill="#FEFECE" height="5" style="stroke: #A80036; stroke-width: 1.5;" width="10" x="607" y="1344"/><rect fill="#FEFECE" height="5" style="stroke: #A80036; stroke-width: 1.5;" width="10" x="607" y="1365.4883"/><text fill="#000000" font-family="sans-serif" font-size="14" lengthAdjust="spacingAndGlyphs" textLength="233" x="622" y="1362.5352">service-api.springboot2-template</text><!--link arch-model to model--><path d="M446.37,1198.17 C483.83,1195.13 531.11,1184.75 560,1154 C617.95,1092.32 557.55,1042.4 596,967 C620.94,918.1 666.51,873.78 699.21,846 " fill="none" id="arch-model-model" style="stroke: #A80036; stroke-width: 1.0;"/><polygon fill="#A80036" points="703.13,842.69,693.6702,845.4308,699.3066,845.912,698.8254,851.5484,703.13,842.69" style="stroke: #A80036; stroke-width: 1.0;"/><!--link domain-model-plugin to plugin--><path d="M109.5,728.75 C128.69,763.99 161.72,828.4 181,887 C206.37,964.08 161.19,1007.09 217,1066 C244.65,1095.19 288.9,1106 325.39,1109.61 " fill="none" id="domain-model-plugin-plugin" style="stroke: #A80036; stroke-width: 1.0;"/><polygon fill="#A80036" points="330.71,1110.09,322.0992,1105.3094,325.7296,1109.6476,321.3914,1113.278,330.71,1110.09" style="stroke: #A80036; stroke-width: 1.0;"/><!--link domain-model to model--><path d="M450.15,937.97 C483.21,930.51 524.5,919.73 560,906 C576.87,899.47 579.91,895.28 596,887 C623.26,872.97 653.63,857.68 679.23,844.9 " fill="none" id="domain-model-model" style="stroke: #A80036; stroke-width: 1.0;"/><polygon fill="#A80036" points="683.95,842.54,674.1107,842.9746,679.475,844.7703,677.6793,850.1346,683.95,842.54" style="stroke: #A80036; stroke-width: 1.0;"/><!--link model to generator--><path d="M763.08,789.5 C810.94,735.7 919.26,613.95 970.13,556.76 " fill="none" id="model-generator" style="stroke: #A80036; stroke-width: 1.0;"/><polygon fill="#A80036" points="973.69,552.76,964.7201,556.8271,970.3673,556.4963,970.6981,562.1434,973.69,552.76" style="stroke: #A80036; stroke-width: 1.0;"/><!--link plugin to generator--><path d="M446.08,1108.53 C482.69,1104.7 529.11,1094.05 560,1066 C594.66,1034.52 563.07,1000.28 596,967 C691.17,870.83 786.46,956.79 881,860 C965.1,773.9 988.71,623.87 995.16,558.26 " fill="none" id="plugin-generator" style="stroke: #A80036; stroke-width: 1.0;"/><polygon fill="#A80036" points="995.66,552.93,990.8305,561.5135,995.1893,557.9078,998.795,562.2666,995.66,552.93" style="stroke: #A80036; stroke-width: 1.0;"/><!--link project-group to model--><path d="M447.75,854.3 C510.92,845.95 611.35,832.67 675.83,824.15 " fill="none" id="project-group-model" style="stroke: #A80036; stroke-width: 1.0;"/><polygon fill="#A80036" points="680.8,823.5,671.3524,820.7174,675.8434,824.1571,672.4037,828.648,680.8,823.5" style="stroke: #A80036; stroke-width: 1.0;"/><!--link schema-model to model--><path d="M113.48,904.43 C134.98,876.85 172.84,835.36 217,818 C372.7,756.81 575.4,783.07 675.7,802.3 " fill="none" id="schema-model-model" style="stroke: #A80036; stroke-width: 1.0;"/><polygon fill="#A80036" points="680.7,803.27,672.6307,797.6232,675.7922,802.3141,671.1013,805.4756,680.7,803.27" style="stroke: #A80036; stroke-width: 1.0;"/><!--link schema-plugin to plugin--><path d="M148.27,1182.48 C169.38,1172.71 194.01,1162.06 217,1154 C252.32,1141.61 292.86,1131.01 325.55,1123.32 " fill="none" id="schema-plugin-plugin" style="stroke: #A80036; stroke-width: 1.0;"/><polygon fill="#A80036" points="330.73,1122.11,321.0594,1120.2445,325.859,1123.2385,322.865,1128.038,330.73,1122.11" style="stroke: #A80036; stroke-width: 1.0;"/><!--link service-generator to generator--><path d="M460.26,1279.3 C492.95,1273.45 530.88,1262.5 560,1242 C583.29,1225.61 572.89,1205.64 596,1189 C702.78,1112.14 791.59,1205.51 881,1109 C956.87,1027.1 987.7,667.35 995.44,557.78 " fill="none" id="service-generator-generator" style="stroke: #A80036; stroke-width: 1.0;"/><polygon fill="#A80036" points="995.79,552.75,991.182,561.4544,995.447,557.7382,999.1631,562.0032,995.79,552.75" style="stroke: #A80036; stroke-width: 1.0;"/><!--link template to generator--><path d="M796.34,201.33 C824.82,211.46 858.03,227.33 881,251 C949.39,321.47 980.35,438.18 991.83,494.15 " fill="none" id="template-generator" style="stroke: #A80036; stroke-width: 1.0;"/><polygon fill="#A80036" points="992.88,499.37,995.0265,489.7579,991.8939,494.4682,987.1836,491.3356,992.88,499.37" style="stroke: #A80036; stroke-width: 1.0;"/><!--link common-model to domain-model--><path d="M319.63,348.88 C273.54,352.48 217.98,366.58 199,411.5 C178.37,460.32 178.37,839.68 199,888.5 C218.29,934.15 275.35,947.97 321.85,951.28 " fill="none" id="common-model-domain-model" style="stroke: #A80036; stroke-width: 1.0;"/><polygon fill="#A80036" points="326.89,951.6,318.1595,947.0417,321.8999,951.2854,317.6562,955.0259,326.89,951.6" style="stroke: #A80036; stroke-width: 1.0;"/><!--link domain-model-plugin.project-template to template--><path d="M536.07,179.05 C584.96,180.74 636.81,182.53 675.66,183.87 " fill="none" id="domain-model-plugin.project-template-template" style="stroke: #A80036; stroke-width: 1.0;"/><polygon fill="#A80036" points="680.81,184.05,671.9523,179.744,675.8129,183.8787,671.6782,187.7393,680.81,184.05" style="stroke: #A80036; stroke-width: 1.0;"/><!--link domain-model.project-template to template--><path d="M496.15,112.59 C517.36,118.14 539.43,124.11 560,130 C598.79,141.11 641.96,154.71 676.02,165.72 " fill="none" id="domain-model.project-template-template" style="stroke: #A80036; stroke-width: 1.0;"/><polygon fill="#A80036" points="680.98,167.32,673.653,160.7386,676.2239,165.7775,671.185,168.3483,680.98,167.32" style="stroke: #A80036; stroke-width: 1.0;"/><!--link generator.project-template to template--><path d="M492.97,239.4 C552.44,226.42 625.13,210.54 675.74,199.49 " fill="none" id="generator.project-template-template" style="stroke: #A80036; stroke-width: 1.0;"/><polygon fill="#A80036" points="680.87,198.37,671.2221,196.3907,675.9861,199.441,672.9357,204.205,680.87,198.37" style="stroke: #A80036; stroke-width: 1.0;"/><!--link metamodel to domain-model--><path d="M319.88,715.81 C287.21,724.28 248.49,737.2 217,756 C207.42,761.72 203.34,763.22 199,773.5 C179.11,820.58 179.11,841.42 199,888.5 C218.29,934.15 275.35,947.97 321.85,951.28 " fill="none" id="metamodel-domain-model" style="stroke: #A80036; stroke-width: 1.0;"/><polygon fill="#A80036" points="326.89,951.6,318.1595,947.0417,321.8999,951.2854,317.6562,955.0259,326.89,951.6" style="stroke: #A80036; stroke-width: 1.0;"/><!--link domain-model to metamodel--><path d="M326.89,951.6 C279.55,948.93 218.99,935.81 199,888.5 C179.11,841.42 179.11,820.58 199,773.5 C203.34,763.22 207.42,761.72 217,756 C246.89,738.15 283.29,725.61 314.85,717.13 " fill="none" id="domain-model-metamodel" style="stroke: #A80036; stroke-width: 1.0; stroke-dasharray: 7.0,7.0;"/><polygon fill="#A80036" points="319.88,715.81,310.1581,714.2336,315.0448,717.0832,312.1952,721.9699,319.88,715.81" style="stroke: #A80036; stroke-width: 1.0;"/><!--link project-group.project-template to project-group--><path d="M269.33,621.51 C238.89,630.27 211.28,646.43 199,675.5 C169.04,746.4 258.51,804.07 324.54,835.65 " fill="none" id="project-group.project-template-project-group" style="stroke: #A80036; stroke-width: 1.0;"/><polygon fill="#A80036" points="329.25,837.88,322.8257,830.4149,324.7304,835.7414,319.4039,837.6462,329.25,837.88" style="stroke: #A80036; stroke-width: 1.0;"/><!--link project-group to project-group.project-template--><path d="M329.25,837.88 C262.87,806.83 168.33,748.1 199,675.5 C210.61,648.02 235.91,632.07 264.36,623.01 " fill="none" id="project-group-project-group.project-template" style="stroke: #A80036; stroke-width: 1.0; stroke-dasharray: 7.0,7.0;"/><polygon fill="#A80036" points="269.33,621.51,259.5585,620.2782,264.5428,622.9533,261.8677,627.9377,269.33,621.51" style="stroke: #A80036; stroke-width: 1.0;"/><!--link project.domain-model to domain-model--><path d="M300.85,438.92 C259.41,444.77 215.46,460.55 199,499.5 C182.18,539.31 182.18,848.69 199,888.5 C218.29,934.15 275.35,947.97 321.85,951.28 " fill="none" id="project.domain-model-domain-model" style="stroke: #A80036; stroke-width: 1.0;"/><polygon fill="#A80036" points="326.89,951.6,318.1595,947.0417,321.8999,951.2854,317.6562,955.0259,326.89,951.6" style="stroke: #A80036; stroke-width: 1.0;"/><!--link project.project-types to model--><path d="M470.68,535.15 C500.68,541.45 533.74,552.07 560,570 C641.69,625.79 699.06,732.14 723.82,784.83 " fill="none" id="project.project-types-model" style="stroke: #A80036; stroke-width: 1.0;"/><polygon fill="#A80036" points="725.97,789.45,725.8126,779.6024,723.8665,784.914,718.555,782.9679,725.97,789.45" style="stroke: #A80036; stroke-width: 1.0;"/><!--link arch-model to datasource.schema-plugin--><path d="M446.09,1191.12 C480.72,1185.09 524.96,1174.01 560,1154 C579.65,1142.78 576.67,1129.76 596,1118 C613.36,1107.44 633.44,1099.11 652.92,1092.65 " fill="none" id="arch-model-datasource.schema-plugin" style="stroke: #A80036; stroke-width: 1.0; stroke-dasharray: 7.0,7.0;"/><polygon fill="#A80036" points="657.86,1091.05,648.065,1090.0217,653.1039,1092.5925,650.533,1097.6314,657.86,1091.05" style="stroke: #A80036; stroke-width: 1.0;"/><!--link arch-model to service-api.schema-plugin--><path d="M446.12,1197.04 C482.98,1193.46 529.68,1182.89 560,1154 C599.08,1116.76 556.85,1075.17 596,1038 C606.07,1028.44 618.31,1021.32 631.32,1016.04 " fill="none" id="arch-model-service-api.schema-plugin" style="stroke: #A80036; stroke-width: 1.0; stroke-dasharray: 7.0,7.0;"/><polygon fill="#A80036" points="636.15,1014.18,626.3137,1013.6835,631.4844,1015.9778,629.1901,1021.1485,636.15,1014.18" style="stroke: #A80036; stroke-width: 1.0;"/><!--link domain-model-plugin to metamodel--><path d="M181.22,702 C223.53,702 273.87,702 314.23,702 " fill="none" id="domain-model-plugin-metamodel" style="stroke: #A80036; stroke-width: 1.0; stroke-dasharray: 7.0,7.0;"/><polygon fill="#A80036" points="319.61,702,310.61,698,314.61,702,310.61,706,319.61,702" style="stroke: #A80036; stroke-width: 1.0;"/><!--link domain-model-plugin to domain-model-plugin.project-template--><path d="M97.66,675.42 C109.06,583.99 150.88,284.42 217,218 C222.89,212.08 229.47,206.92 236.52,202.43 " fill="none" id="domain-model-plugin-domain-model-plugin.project-template" style="stroke: #A80036; stroke-width: 1.0; stroke-dasharray: 7.0,7.0;"/><polygon fill="#A80036" points="240.97,199.72,231.2043,200.9973,236.7029,202.3261,235.3741,207.8247,240.97,199.72" style="stroke: #A80036; stroke-width: 1.0;"/><!--link domain-model to domain-model.project-template--><path d="M326.89,951.6 C279.55,948.93 218.99,935.81 199,888.5 C182.98,850.58 182.98,185.42 199,147.5 C210.26,120.84 234.4,105.04 261.8,95.85 " fill="none" id="domain-model-domain-model.project-template" style="stroke: #A80036; stroke-width: 1.0; stroke-dasharray: 7.0,7.0;"/><polygon fill="#A80036" points="266.58,94.32,256.7917,93.2299,261.8142,95.8325,259.2116,100.8551,266.58,94.32" style="stroke: #A80036; stroke-width: 1.0;"/><!--link generator to project.project-types--><path d="M940.98,526 C834.18,526 602.13,526 475.75,526 " fill="none" id="generator-project.project-types" style="stroke: #A80036; stroke-width: 1.0; stroke-dasharray: 7.0,7.0;"/><polygon fill="#A80036" points="470.55,526,479.55,530,475.55,526,479.55,522,470.55,526" style="stroke: #A80036; stroke-width: 1.0;"/><!--link generator to project.domain-model--><path d="M940.83,512.23 C921.88,507.93 900.6,503.42 881,500 C742.61,475.88 580.75,457.3 481.69,447.01 " fill="none" id="generator-project.domain-model" style="stroke: #A80036; stroke-width: 1.0; stroke-dasharray: 7.0,7.0;"/><polygon fill="#A80036" points="476.43,446.47,484.9706,451.3749,481.4035,446.9845,485.7938,443.4173,476.43,446.47" style="stroke: #A80036; stroke-width: 1.0;"/><!--link generator to common-model--><path d="M961.15,499.44 C938.98,484.38 909.5,466.35 881,455 C738.64,398.32 560.31,369.99 462.35,357.79 " fill="none" id="generator-common-model" style="stroke: #A80036; stroke-width: 1.0; stroke-dasharray: 7.0,7.0;"/><polygon fill="#A80036" points="457.17,357.15,465.6098,362.2264,462.132,357.7649,466.5936,354.2872,457.17,357.15" style="stroke: #A80036; stroke-width: 1.0;"/><!--link generator to generator.project-template--><path d="M981.41,499.38 C961.58,468.87 925.05,419.52 881,392 C762.48,317.95 602.57,285.77 497.79,271.99 " fill="none" id="generator-generator.project-template" style="stroke: #A80036; stroke-width: 1.0; stroke-dasharray: 7.0,7.0;"/><polygon fill="#A80036" points="492.53,271.31,500.9408,276.4342,497.4885,271.953,501.9697,268.5007,492.53,271.31" style="stroke: #A80036; stroke-width: 1.0;"/><!--link generator to metamodel-plugin--><path d="M1007.25,552.91 C1042.66,675.85 1188.77,1183.08 1221.83,1297.85 " fill="none" id="generator-metamodel-plugin" style="stroke: #A80036; stroke-width: 1.0; stroke-dasharray: 7.0,7.0;"/><polygon fill="#A80036" points="1223.23,1302.7,1224.5845,1292.9447,1221.847,1297.8951,1216.8966,1295.1576,1223.23,1302.7" style="stroke: #A80036; stroke-width: 1.0;"/><!--link generator to project.domain-model-plugin--><path d="M1056.11,517.35 C1072.69,514.81 1091.48,511.94 1110.39,509.05 " fill="none" id="generator-project.domain-model-plugin" style="stroke: #A80036; stroke-width: 1.0; stroke-dasharray: 7.0,7.0;"/><polygon fill="#A80036" points="1115.73,508.24,1106.2355,505.622,1110.7855,508.9831,1107.4244,513.5332,1115.73,508.24" style="stroke: #A80036; stroke-width: 1.0;"/><!--link generator to common-model-plugin--><path d="M1056.11,534.9 C1079.2,538.53 1106.56,542.83 1132.6,546.92 " fill="none" id="generator-common-model-plugin" style="stroke: #A80036; stroke-width: 1.0; stroke-dasharray: 7.0,7.0;"/><polygon fill="#A80036" points="1137.79,547.74,1129.532,542.373,1132.8524,546.9528,1128.2725,550.2732,1137.79,547.74" style="stroke: #A80036; stroke-width: 1.0;"/><!--link schema-model to metamodel--><path d="M106.25,904.33 C124.49,865.98 163.19,795.51 217,756 C245.51,735.07 282.4,722.07 314.57,714.09 " fill="none" id="schema-model-metamodel" style="stroke: #A80036; stroke-width: 1.0; stroke-dasharray: 7.0,7.0;"/><polygon fill="#A80036" points="319.7,712.86,310.0081,711.1085,314.8426,714.0458,311.9054,718.8803,319.7,712.86" style="stroke: #A80036; stroke-width: 1.0;"/><!--link schema-model to schema.document-template--><path d="M139.16,957.63 C161.83,970.18 190.18,984.47 217,994 C235.92,1000.73 256.49,1006.38 276.59,1011.08 " fill="none" id="schema-model-schema.document-template" style="stroke: #A80036; stroke-width: 1.0; stroke-dasharray: 7.0,7.0;"/><polygon fill="#A80036" points="281.68,1012.25,273.7985,1006.3439,276.8059,1011.1351,272.0147,1014.1425,281.68,1012.25" style="stroke: #A80036; stroke-width: 1.0;"/><!--link schema-model to metamodel-plugin--><path d="M105.73,957.62 C123.54,1000.61 158.58,1088.3 181,1165 C202.06,1237.04 162.61,1278.27 217,1330 C431.8,1534.3 586.11,1423.23 881,1393 C977.66,1383.09 1087.12,1358.06 1156.91,1340.31 " fill="none" id="schema-model-metamodel-plugin" style="stroke: #A80036; stroke-width: 1.0; stroke-dasharray: 7.0,7.0;"/><polygon fill="#A80036" points="1161.87,1339.04,1152.1582,1337.4028,1157.0269,1340.2829,1154.1468,1345.1517,1161.87,1339.04" style="stroke: #A80036; stroke-width: 1.0;"/><!--link schema-plugin to metamodel--><path d="M105.63,1182.36 C123.32,1139.32 158.17,1051.58 181,975 C201.45,906.4 176.61,877.11 217,818 C243.09,779.81 286.28,750.62 322.65,731.07 " fill="none" id="schema-plugin-metamodel" style="stroke: #A80036; stroke-width: 1.0; stroke-dasharray: 7.0,7.0;"/><polygon fill="#A80036" points="327.51,728.5,317.6851,729.1861,323.0935,730.844,321.4355,736.2525,327.51,728.5" style="stroke: #A80036; stroke-width: 1.0;"/><!--link schema-plugin to schema.plugin-template--><path d="M96.82,1235.58 C103.6,1296.33 128.83,1446.17 217,1525 C237.01,1542.89 263.3,1553.8 289.23,1560.42 " fill="none" id="schema-plugin-schema.plugin-template" style="stroke: #A80036; stroke-width: 1.0; stroke-dasharray: 7.0,7.0;"/><polygon fill="#A80036" points="294.41,1561.69,286.6154,1555.6697,289.5526,1560.5042,284.7181,1563.4415,294.41,1561.69" style="stroke: #A80036; stroke-width: 1.0;"/><!--link schema-plugin to metamodel-plugin--><path d="M98.61,1235.8 C108.33,1288.61 138.12,1405.25 217,1454 C375.6,1552.02 879.52,1514.14 1056,1454 C1120.67,1431.97 1179.97,1374.8 1209.27,1343.05 " fill="none" id="schema-plugin-metamodel-plugin" style="stroke: #A80036; stroke-width: 1.0; stroke-dasharray: 7.0,7.0;"/><polygon fill="#A80036" points="1212.7,1339.31,1203.674,1343.251,1209.3253,1342.9993,1209.5769,1348.6506,1212.7,1339.31" style="stroke: #A80036; stroke-width: 1.0;"/><!--link service-generator to datasource.flyway-migration-template--><path d="M460.34,1286 C497.94,1286 545.6,1286 590.75,1286 " fill="none" id="service-generator-datasource.flyway-migration-template" style="stroke: #A80036; stroke-width: 1.0; stroke-dasharray: 7.0,7.0;"/><polygon fill="#A80036" points="595.96,1286,586.96,1282,590.96,1286,586.96,1290,595.96,1286" style="stroke: #A80036; stroke-width: 1.0;"/><!--link service-generator to service-api.springboot2-template--><path d="M460.34,1300.45 C513.3,1311.26 586.2,1326.13 643.94,1337.91 " fill="none" id="service-generator-service-api.springboot2-template" style="stroke: #A80036; stroke-width: 1.0; stroke-dasharray: 7.0,7.0;"/><polygon fill="#A80036" points="649.13,1338.97,641.1116,1333.2511,644.231,1337.9702,639.5119,1341.0896,649.13,1338.97" style="stroke: #A80036; stroke-width: 1.0;"/><!--link service-generator to metamodel-plugin--><path d="M460.32,1270.97 C500.01,1263.31 550.53,1254.83 596,1251 C722.22,1240.38 754.96,1238.43 881,1251 C976.68,1260.54 1085.02,1284.51 1154.92,1301.74 " fill="none" id="service-generator-metamodel-plugin" style="stroke: #A80036; stroke-width: 1.0; stroke-dasharray: 7.0,7.0;"/><polygon fill="#A80036" points="1159.88,1302.97,1152.1021,1296.9281,1155.0259,1301.7708,1150.1833,1304.6946,1159.88,1302.97" style="stroke: #A80036; stroke-width: 1.0;"/><!--link service-generator to datasource.schema-plugin--><path d="M460.02,1283.63 C494.24,1278.91 533.56,1267.65 560,1242 C601.18,1202.03 555.94,1159.09 596,1118 C606.35,1107.39 619.19,1099.27 632.87,1093.07 " fill="none" id="service-generator-datasource.schema-plugin" style="stroke: #A80036; stroke-width: 1.0; stroke-dasharray: 7.0,7.0;"/><polygon fill="#A80036" points="637.54,1091.03,627.6914,1090.9615,632.9569,1093.0288,630.8895,1098.2944,637.54,1091.03" style="stroke: #A80036; stroke-width: 1.0;"/><!--link service-generator to service-api.schema-plugin--><path d="M460.35,1284.91 C495.09,1280.56 534.78,1269.27 560,1242 C622.52,1174.41 533.37,1105.48 596,1038 C605.75,1027.49 618.1,1019.87 631.42,1014.37 " fill="none" id="service-generator-service-api.schema-plugin" style="stroke: #A80036; stroke-width: 1.0; stroke-dasharray: 7.0,7.0;"/><polygon fill="#A80036" points="636.37,1012.44,626.5319,1011.9798,631.7111,1014.255,629.4359,1019.4341,636.37,1012.44" style="stroke: #A80036; stroke-width: 1.0;"/><!--
@startuml
left to right direction

[arch-model] <<project type>>
[domain-model-plugin] <<project type>>
[domain-model] <<project type>>
[generator] <<project type>>
[model] <<project type>>
[plugin] <<project type>>
[project-group] <<project type>>
[schema-model] <<project type>>
[schema-plugin] <<project type>>
[service-generator] <<project type>>
[template] <<project type>>


[arch-model] - -> [model]
[domain-model-plugin] - -> [plugin]
[domain-model] - -> [model]
[model] - -> [generator]
[plugin] - -> [generator]
[project-group] - -> [model]
[schema-model] - -> [model]
[schema-plugin] - -> [plugin]
[service-generator] - -> [generator]
[template] - -> [generator]


package "laplacian" {
  [common-model] <<domain-model>>
  [common-model] - -> [domain-model]
  [domain-model-plugin.project-template] <<template>>
  [domain-model-plugin.project-template] - -> [template]
  [domain-model.project-template] <<template>>
  [domain-model.project-template] - -> [template]
  [generator.project-template] <<template>>
  [generator.project-template] - -> [template]
  [metamodel] <<domain-model>>
  [metamodel] - -> [domain-model]
  [project-group.project-template] <<project-group>>
  [project-group.project-template] - -> [project-group]
  [project.domain-model] <<domain-model>>
  [project.domain-model] - -> [domain-model]
  [project.project-types] <<model>>
  [project.project-types] - -> [model]
}



  [arch-model] ..> [datasource.schema-plugin]
  [arch-model] ..> [service-api.schema-plugin]

  [domain-model-plugin] ..> [metamodel]
  [domain-model-plugin] ..> [domain-model-plugin.project-template]

  [domain-model] ..> [metamodel]
  [domain-model] ..> [domain-model.project-template]

  [generator] ..> [project.project-types]
  [generator] ..> [project.domain-model]
  [generator] ..> [common-model]
  [generator] ..> [generator.project-template]
  [generator] ..> [metamodel-plugin]
  [generator] ..> [project.domain-model-plugin]
  [generator] ..> [common-model-plugin]



  [project-group] ..> [project-group.project-template]

  [schema-model] ..> [metamodel]
  [schema-model] ..> [schema.document-template]
  [schema-model] ..> [metamodel-plugin]

  [schema-plugin] ..> [metamodel]
  [schema-plugin] ..> [schema.plugin-template]
  [schema-plugin] ..> [metamodel-plugin]

  [service-generator] ..> [datasource.flyway-migration-template]
  [service-generator] ..> [service-api.springboot2-template]
  [service-generator] ..> [metamodel-plugin]
  [service-generator] ..> [datasource.schema-plugin]
  [service-generator] ..> [service-api.schema-plugin]



@enduml

PlantUML version 1.2019.05(Sun Apr 21 01:45:36 JST 2019)
(GPL source distribution)
Java Runtime: OpenJDK Runtime Environment
JVM: OpenJDK 64-Bit Server VM
Java Version: 1.8.0_222-b10
Operating System: Mac OS X
OS Version: 10.15.4
Default Encoding: UTF-8
Language: en
Country: JP
--></g></svg>