<?xml version="1.0" encoding="UTF-8" standalone="no"?><svg xmlns="http://www.w3.org/2000/svg" xmlns:xlink="http://www.w3.org/1999/xlink" contentScriptType="application/ecmascript" contentStyleType="text/css" height="1040px" preserveAspectRatio="none" style="width:1184px;height:1040px;" version="1.1" viewBox="0 0 1184 1040" width="1184px" zoomAndPan="magnify"><defs><filter height="300%" id="f139b8uqiqzp6t" width="300%" x="-1" y="-1"><feGaussianBlur result="blurOut" stdDeviation="2.0"/><feColorMatrix in="blurOut" result="blurOut2" type="matrix" values="0 0 0 0 0 0 0 0 0 0 0 0 0 0 0 0 0 0 .4 0"/><feOffset dx="4.0" dy="4.0" in="blurOut2" result="blurOut3"/><feBlend in="SourceGraphic" in2="blurOut3" mode="normal"/></filter></defs><g><!--cluster laplacian--><polygon fill="#FFFFFF" filter="url(#f139b8uqiqzp6t)" points="225,77.5,295,77.5,302,99.9883,552,99.9883,552,798.5,225,798.5,225,77.5" style="stroke: #000000; stroke-width: 1.5;"/><line style="stroke: #000000; stroke-width: 1.5;" x1="225" x2="302" y1="99.9883" y2="99.9883"/><text fill="#000000" font-family="sans-serif" font-size="14" font-weight="bold" lengthAdjust="spacingAndGlyphs" textLength="64" x="229" y="93.0352">laplacian</text><!--entity common-model--><rect fill="#FEFECE" filter="url(#f139b8uqiqzp6t)" height="52.9766" style="stroke: #A80036; stroke-width: 1.5;" width="137" x="320" y="113"/><rect fill="#FEFECE" height="5" style="stroke: #A80036; stroke-width: 1.5;" width="10" x="315" y="118"/><rect fill="#FEFECE" height="5" style="stroke: #A80036; stroke-width: 1.5;" width="10" x="315" y="155.9766"/><text fill="#000000" font-family="sans-serif" font-size="14" font-style="italic" lengthAdjust="spacingAndGlyphs" textLength="117" x="330" y="136.5352">«domain-model»</text><text fill="#000000" font-family="sans-serif" font-size="14" lengthAdjust="spacingAndGlyphs" textLength="111" x="333" y="153.0234">common-model</text><!--entity domain-model-plugin.project-template--><rect fill="#FEFECE" filter="url(#f139b8uqiqzp6t)" height="52.9766" style="stroke: #A80036; stroke-width: 1.5;" width="295" x="241" y="553"/><rect fill="#FEFECE" height="5" style="stroke: #A80036; stroke-width: 1.5;" width="10" x="236" y="558"/><rect fill="#FEFECE" height="5" style="stroke: #A80036; stroke-width: 1.5;" width="10" x="236" y="595.9766"/><text fill="#000000" font-family="sans-serif" font-size="14" font-style="italic" lengthAdjust="spacingAndGlyphs" textLength="74" x="351.5" y="576.5352">«template»</text><text fill="#000000" font-family="sans-serif" font-size="14" lengthAdjust="spacingAndGlyphs" textLength="275" x="251" y="593.0234">domain-model-plugin.project-template</text><!--entity domain-model.project-template--><rect fill="#FEFECE" filter="url(#f139b8uqiqzp6t)" height="52.9766" style="stroke: #A80036; stroke-width: 1.5;" width="243" x="267" y="729"/><rect fill="#FEFECE" height="5" style="stroke: #A80036; stroke-width: 1.5;" width="10" x="262" y="734"/><rect fill="#FEFECE" height="5" style="stroke: #A80036; stroke-width: 1.5;" width="10" x="262" y="771.9766"/><text fill="#000000" font-family="sans-serif" font-size="14" font-style="italic" lengthAdjust="spacingAndGlyphs" textLength="74" x="351.5" y="752.5352">«template»</text><text fill="#000000" font-family="sans-serif" font-size="14" lengthAdjust="spacingAndGlyphs" textLength="223" x="277" y="769.0234">domain-model.project-template</text><!--entity generator.project-template--><rect fill="#FEFECE" filter="url(#f139b8uqiqzp6t)" height="52.9766" style="stroke: #A80036; stroke-width: 1.5;" width="208" x="284.5" y="377"/><rect fill="#FEFECE" height="5" style="stroke: #A80036; stroke-width: 1.5;" width="10" x="279.5" y="382"/><rect fill="#FEFECE" height="5" style="stroke: #A80036; stroke-width: 1.5;" width="10" x="279.5" y="419.9766"/><text fill="#000000" font-family="sans-serif" font-size="14" font-style="italic" lengthAdjust="spacingAndGlyphs" textLength="74" x="351.5" y="400.5352">«template»</text><text fill="#000000" font-family="sans-serif" font-size="14" lengthAdjust="spacingAndGlyphs" textLength="188" x="294.5" y="417.0234">generator.project-template</text><!--entity metamodel--><rect fill="#FEFECE" filter="url(#f139b8uqiqzp6t)" height="52.9766" style="stroke: #A80036; stroke-width: 1.5;" width="137" x="320" y="465"/><rect fill="#FEFECE" height="5" style="stroke: #A80036; stroke-width: 1.5;" width="10" x="315" y="470"/><rect fill="#FEFECE" height="5" style="stroke: #A80036; stroke-width: 1.5;" width="10" x="315" y="507.9766"/><text fill="#000000" font-family="sans-serif" font-size="14" font-style="italic" lengthAdjust="spacingAndGlyphs" textLength="117" x="330" y="488.5352">«domain-model»</text><text fill="#000000" font-family="sans-serif" font-size="14" lengthAdjust="spacingAndGlyphs" textLength="77" x="350" y="505.0234">metamodel</text><!--entity project-group.project-template--><rect fill="#FEFECE" filter="url(#f139b8uqiqzp6t)" height="52.9766" style="stroke: #A80036; stroke-width: 1.5;" width="238" x="269.5" y="641"/><rect fill="#FEFECE" height="5" style="stroke: #A80036; stroke-width: 1.5;" width="10" x="264.5" y="646"/><rect fill="#FEFECE" height="5" style="stroke: #A80036; stroke-width: 1.5;" width="10" x="264.5" y="683.9766"/><text fill="#000000" font-family="sans-serif" font-size="14" font-style="italic" lengthAdjust="spacingAndGlyphs" textLength="74" x="351.5" y="664.5352">«template»</text><text fill="#000000" font-family="sans-serif" font-size="14" lengthAdjust="spacingAndGlyphs" textLength="218" x="279.5" y="681.0234">project-group.project-template</text><!--entity project.domain-model--><rect fill="#FEFECE" filter="url(#f139b8uqiqzp6t)" height="52.9766" style="stroke: #A80036; stroke-width: 1.5;" width="175" x="301" y="201"/><rect fill="#FEFECE" height="5" style="stroke: #A80036; stroke-width: 1.5;" width="10" x="296" y="206"/><rect fill="#FEFECE" height="5" style="stroke: #A80036; stroke-width: 1.5;" width="10" x="296" y="243.9766"/><text fill="#000000" font-family="sans-serif" font-size="14" font-style="italic" lengthAdjust="spacingAndGlyphs" textLength="117" x="330" y="224.5352">«domain-model»</text><text fill="#000000" font-family="sans-serif" font-size="14" lengthAdjust="spacingAndGlyphs" textLength="155" x="311" y="241.0234">project.domain-model</text><!--entity project.project-types--><rect fill="#FEFECE" filter="url(#f139b8uqiqzp6t)" height="52.9766" style="stroke: #A80036; stroke-width: 1.5;" width="164" x="306.5" y="289"/><rect fill="#FEFECE" height="5" style="stroke: #A80036; stroke-width: 1.5;" width="10" x="301.5" y="294"/><rect fill="#FEFECE" height="5" style="stroke: #A80036; stroke-width: 1.5;" width="10" x="301.5" y="331.9766"/><text fill="#000000" font-family="sans-serif" font-size="14" font-style="italic" lengthAdjust="spacingAndGlyphs" textLength="106" x="335.5" y="312.5352">«project-types»</text><text fill="#000000" font-family="sans-serif" font-size="14" lengthAdjust="spacingAndGlyphs" textLength="144" x="316.5" y="329.0234">project.project-types</text><!--entity domain-model-plugin--><rect fill="#FEFECE" filter="url(#f139b8uqiqzp6t)" height="52.9766" style="stroke: #A80036; stroke-width: 1.5;" width="175" x="6" y="465"/><rect fill="#FEFECE" height="5" style="stroke: #A80036; stroke-width: 1.5;" width="10" x="1" y="470"/><rect fill="#FEFECE" height="5" style="stroke: #A80036; stroke-width: 1.5;" width="10" x="1" y="507.9766"/><text fill="#000000" font-family="sans-serif" font-size="14" font-style="italic" lengthAdjust="spacingAndGlyphs" textLength="95" x="46" y="488.5352">«project type»</text><text fill="#000000" font-family="sans-serif" font-size="14" lengthAdjust="spacingAndGlyphs" textLength="155" x="16" y="505.0234">domain-model-plugin</text><!--entity domain-model--><rect fill="#FEFECE" filter="url(#f139b8uqiqzp6t)" height="52.9766" style="stroke: #A80036; stroke-width: 1.5;" width="123" x="327" y="889"/><rect fill="#FEFECE" height="5" style="stroke: #A80036; stroke-width: 1.5;" width="10" x="322" y="894"/><rect fill="#FEFECE" height="5" style="stroke: #A80036; stroke-width: 1.5;" width="10" x="322" y="931.9766"/><text fill="#000000" font-family="sans-serif" font-size="14" font-style="italic" lengthAdjust="spacingAndGlyphs" textLength="95" x="341" y="912.5352">«project type»</text><text fill="#000000" font-family="sans-serif" font-size="14" lengthAdjust="spacingAndGlyphs" textLength="103" x="337" y="929.0234">domain-model</text><!--entity generator--><rect fill="#FEFECE" filter="url(#f139b8uqiqzp6t)" height="52.9766" style="stroke: #A80036; stroke-width: 1.5;" width="115" x="771" y="289"/><rect fill="#FEFECE" height="5" style="stroke: #A80036; stroke-width: 1.5;" width="10" x="766" y="294"/><rect fill="#FEFECE" height="5" style="stroke: #A80036; stroke-width: 1.5;" width="10" x="766" y="331.9766"/><text fill="#000000" font-family="sans-serif" font-size="14" font-style="italic" lengthAdjust="spacingAndGlyphs" textLength="95" x="781" y="312.5352">«project type»</text><text fill="#000000" font-family="sans-serif" font-size="14" lengthAdjust="spacingAndGlyphs" textLength="68" x="794.5" y="329.0234">generator</text><!--entity model--><rect fill="#FEFECE" filter="url(#f139b8uqiqzp6t)" height="52.9766" style="stroke: #A80036; stroke-width: 1.5;" width="115" x="596" y="849"/><rect fill="#FEFECE" height="5" style="stroke: #A80036; stroke-width: 1.5;" width="10" x="591" y="854"/><rect fill="#FEFECE" height="5" style="stroke: #A80036; stroke-width: 1.5;" width="10" x="591" y="891.9766"/><text fill="#000000" font-family="sans-serif" font-size="14" font-style="italic" lengthAdjust="spacingAndGlyphs" textLength="95" x="606" y="872.5352">«project type»</text><text fill="#000000" font-family="sans-serif" font-size="14" lengthAdjust="spacingAndGlyphs" textLength="43" x="632" y="889.0234">model</text><!--entity plugin--><rect fill="#FEFECE" filter="url(#f139b8uqiqzp6t)" height="52.9766" style="stroke: #A80036; stroke-width: 1.5;" width="115" x="331" y="8"/><rect fill="#FEFECE" height="5" style="stroke: #A80036; stroke-width: 1.5;" width="10" x="326" y="13"/><rect fill="#FEFECE" height="5" style="stroke: #A80036; stroke-width: 1.5;" width="10" x="326" y="50.9766"/><text fill="#000000" font-family="sans-serif" font-size="14" font-style="italic" lengthAdjust="spacingAndGlyphs" textLength="95" x="341" y="31.5352">«project type»</text><text fill="#000000" font-family="sans-serif" font-size="14" lengthAdjust="spacingAndGlyphs" textLength="44" x="366.5" y="48.0234">plugin</text><!--entity project-group--><rect fill="#FEFECE" filter="url(#f139b8uqiqzp6t)" height="52.9766" style="stroke: #A80036; stroke-width: 1.5;" width="118" x="34.5" y="725"/><rect fill="#FEFECE" height="5" style="stroke: #A80036; stroke-width: 1.5;" width="10" x="29.5" y="730"/><rect fill="#FEFECE" height="5" style="stroke: #A80036; stroke-width: 1.5;" width="10" x="29.5" y="767.9766"/><text fill="#000000" font-family="sans-serif" font-size="14" font-style="italic" lengthAdjust="spacingAndGlyphs" textLength="95" x="46" y="748.5352">«project type»</text><text fill="#000000" font-family="sans-serif" font-size="14" lengthAdjust="spacingAndGlyphs" textLength="98" x="44.5" y="765.0234">project-group</text><!--entity project-types--><rect fill="#FEFECE" filter="url(#f139b8uqiqzp6t)" height="52.9766" style="stroke: #A80036; stroke-width: 1.5;" width="115" x="331" y="977"/><rect fill="#FEFECE" height="5" style="stroke: #A80036; stroke-width: 1.5;" width="10" x="326" y="982"/><rect fill="#FEFECE" height="5" style="stroke: #A80036; stroke-width: 1.5;" width="10" x="326" y="1019.9766"/><text fill="#000000" font-family="sans-serif" font-size="14" font-style="italic" lengthAdjust="spacingAndGlyphs" textLength="95" x="341" y="1000.5352">«project type»</text><text fill="#000000" font-family="sans-serif" font-size="14" lengthAdjust="spacingAndGlyphs" textLength="92" x="342.5" y="1017.0234">project-types</text><!--entity template--><rect fill="#FEFECE" filter="url(#f139b8uqiqzp6t)" height="52.9766" style="stroke: #A80036; stroke-width: 1.5;" width="115" x="596" y="553"/><rect fill="#FEFECE" height="5" style="stroke: #A80036; stroke-width: 1.5;" width="10" x="591" y="558"/><rect fill="#FEFECE" height="5" style="stroke: #A80036; stroke-width: 1.5;" width="10" x="591" y="595.9766"/><text fill="#000000" font-family="sans-serif" font-size="14" font-style="italic" lengthAdjust="spacingAndGlyphs" textLength="95" x="606" y="576.5352">«project type»</text><text fill="#000000" font-family="sans-serif" font-size="14" lengthAdjust="spacingAndGlyphs" textLength="60" x="623.5" y="593.0234">template</text><!--entity metamodel-plugin--><rect fill="#FEFECE" filter="url(#f139b8uqiqzp6t)" height="36.4883" style="stroke: #A80036; stroke-width: 1.5;" width="149" x="985" y="226.5"/><rect fill="#FEFECE" height="5" style="stroke: #A80036; stroke-width: 1.5;" width="10" x="980" y="231.5"/><rect fill="#FEFECE" height="5" style="stroke: #A80036; stroke-width: 1.5;" width="10" x="980" y="252.9883"/><text fill="#000000" font-family="sans-serif" font-size="14" lengthAdjust="spacingAndGlyphs" textLength="129" x="995" y="250.0352">metamodel-plugin</text><!--entity project.domain-model-plugin--><rect fill="#FEFECE" filter="url(#f139b8uqiqzp6t)" height="36.4883" style="stroke: #A80036; stroke-width: 1.5;" width="227" x="946" y="297.5"/><rect fill="#FEFECE" height="5" style="stroke: #A80036; stroke-width: 1.5;" width="10" x="941" y="302.5"/><rect fill="#FEFECE" height="5" style="stroke: #A80036; stroke-width: 1.5;" width="10" x="941" y="323.9883"/><text fill="#000000" font-family="sans-serif" font-size="14" lengthAdjust="spacingAndGlyphs" textLength="207" x="956" y="321.0352">project.domain-model-plugin</text><!--entity common-model-plugin--><rect fill="#FEFECE" filter="url(#f139b8uqiqzp6t)" height="36.4883" style="stroke: #A80036; stroke-width: 1.5;" width="183" x="968" y="368.5"/><rect fill="#FEFECE" height="5" style="stroke: #A80036; stroke-width: 1.5;" width="10" x="963" y="373.5"/><rect fill="#FEFECE" height="5" style="stroke: #A80036; stroke-width: 1.5;" width="10" x="963" y="394.9883"/><text fill="#000000" font-family="sans-serif" font-size="14" lengthAdjust="spacingAndGlyphs" textLength="163" x="978" y="392.0352">common-model-plugin</text><!--link domain-model-plugin to plugin--><path d="M95,464.94 C97.74,395.02 114.71,203.83 217,96.5 C245.48,66.62 289.48,51.08 325.65,43.04 " fill="none" id="domain-model-plugin-plugin" style="stroke: #A80036; stroke-width: 1.0;"/><polygon fill="#A80036" points="330.93,41.9,321.2876,39.8938,326.0431,42.9574,322.9795,47.7129,330.93,41.9" style="stroke: #A80036; stroke-width: 1.0;"/><!--link domain-model to model--><path d="M450.17,906.27 C492.3,899.87 548.25,891.36 590.64,884.91 " fill="none" id="domain-model-model" style="stroke: #A80036; stroke-width: 1.0;"/><polygon fill="#A80036" points="595.74,884.13,586.2392,881.5347,590.7973,884.8849,587.4471,889.443,595.74,884.13" style="stroke: #A80036; stroke-width: 1.0;"/><!--link model to generator--><path d="M662.73,848.87 C691.39,756.1 786.76,447.37 817.71,347.19 " fill="none" id="model-generator" style="stroke: #A80036; stroke-width: 1.0;"/><polygon fill="#A80036" points="819.22,342.3,812.7517,349.727,817.7506,347.0792,820.3984,352.0781,819.22,342.3" style="stroke: #A80036; stroke-width: 1.0;"/><!--link plugin to generator--><path d="M446.27,51.2 C480.16,62.12 523.56,77.82 560,96.5 C632.29,133.56 648.39,147.73 711,199.5 C743.36,226.26 777.01,260.58 799.77,284.92 " fill="none" id="plugin-generator" style="stroke: #A80036; stroke-width: 1.0;"/><polygon fill="#A80036" points="803.33,288.74,800.1121,279.4317,799.9179,285.0852,794.2644,284.891,803.33,288.74" style="stroke: #A80036; stroke-width: 1.0;"/><!--link project-group to model--><path d="M152.62,776.41 C172.73,784.33 195.6,792.56 217,798.5 C347.75,834.78 505.53,857.67 590.7,868.36 " fill="none" id="project-group-model" style="stroke: #A80036; stroke-width: 1.0;"/><polygon fill="#A80036" points="595.7,868.98,587.2747,863.8796,590.7397,868.351,586.2683,871.8161,595.7,868.98" style="stroke: #A80036; stroke-width: 1.0;"/><!--link project-types to model--><path d="M446.15,995.95 C480.6,989.68 524.62,978.59 560,959.5 C585.02,945.99 608.67,924.3 625.8,906.33 " fill="none" id="project-types-model" style="stroke: #A80036; stroke-width: 1.0;"/><polygon fill="#A80036" points="629.57,902.33,620.4815,906.1245,626.136,905.9643,626.2963,911.6189,629.57,902.33" style="stroke: #A80036; stroke-width: 1.0;"/><!--link template to generator--><path d="M672.04,552.73 C704.29,503.52 772.84,398.92 807.11,346.62 " fill="none" id="template-generator" style="stroke: #A80036; stroke-width: 1.0;"/><polygon fill="#A80036" points="809.91,342.34,801.6315,347.6754,807.1695,346.5221,808.3228,352.0601,809.91,342.34" style="stroke: #A80036; stroke-width: 1.0;"/><!--link common-model to domain-model--><path d="M319.63,138.38 C273.54,141.98 217.98,156.08 199,201 C186.46,230.68 186.46,751.32 199,781 C221.24,833.64 276.88,869.2 322.15,890.47 " fill="none" id="common-model-domain-model" style="stroke: #A80036; stroke-width: 1.0;"/><polygon fill="#A80036" points="326.77,892.61,320.279,885.2028,322.2315,890.512,316.9222,892.4644,326.77,892.61" style="stroke: #A80036; stroke-width: 1.0;"/><!--link domain-model-plugin.project-template to template--><path d="M536.38,579.5 C555.47,579.5 574.11,579.5 590.69,579.5 " fill="none" id="domain-model-plugin.project-template-template" style="stroke: #A80036; stroke-width: 1.0;"/><polygon fill="#A80036" points="595.76,579.5,586.76,575.5,590.76,579.5,586.76,583.5,595.76,579.5" style="stroke: #A80036; stroke-width: 1.0;"/><!--link domain-model.project-template to template--><path d="M510.23,735.84 C527.84,729.78 545.05,721.86 560,711.5 C596.68,686.08 623.55,641.11 638.61,610.81 " fill="none" id="domain-model.project-template-template" style="stroke: #A80036; stroke-width: 1.0;"/><polygon fill="#A80036" points="640.92,606.08,633.3736,612.4086,638.7239,610.5719,640.5606,615.9223,640.92,606.08" style="stroke: #A80036; stroke-width: 1.0;"/><!--link generator.project-template to template--><path d="M492.84,417.79 C516.32,424.29 540.15,433.74 560,447.5 C596.68,472.92 623.55,517.89 638.61,548.19 " fill="none" id="generator.project-template-template" style="stroke: #A80036; stroke-width: 1.0;"/><polygon fill="#A80036" points="640.92,552.92,640.5606,543.0777,638.7239,548.4281,633.3736,546.5914,640.92,552.92" style="stroke: #A80036; stroke-width: 1.0;"/><!--link metamodel to domain-model--><path d="M319.63,490.38 C273.54,493.98 217.98,508.08 199,553 C179.28,599.67 179.28,734.33 199,781 C221.24,833.64 276.88,869.2 322.15,890.47 " fill="none" id="metamodel-domain-model" style="stroke: #A80036; stroke-width: 1.0;"/><polygon fill="#A80036" points="326.77,892.61,320.279,885.2028,322.2315,890.512,316.9222,892.4644,326.77,892.61" style="stroke: #A80036; stroke-width: 1.0;"/><!--link domain-model to metamodel--><path d="M326.77,892.61 C280.74,871.62 222,835.44 199,781 C179.28,734.33 179.28,599.67 199,553 C217.28,509.74 269.47,495.07 314.46,490.83 " fill="none" id="domain-model-metamodel" style="stroke: #A80036; stroke-width: 1.0; stroke-dasharray: 7.0,7.0;"/><polygon fill="#A80036" points="319.63,490.38,310.3205,487.1655,314.6484,490.8082,311.0056,495.1361,319.63,490.38" style="stroke: #A80036; stroke-width: 1.0;"/><!--link project-group.project-template to template--><path d="M505.06,640.88 C523.62,635.69 542.47,629.86 560,623.5 C571.95,619.16 584.45,613.81 596.24,608.36 " fill="none" id="project-group.project-template-template" style="stroke: #A80036; stroke-width: 1.0;"/><polygon fill="#A80036" points="600.9,606.18,591.0528,606.3629,596.3694,608.2952,594.4372,613.6118,600.9,606.18" style="stroke: #A80036; stroke-width: 1.0;"/><!--link project.domain-model to domain-model--><path d="M300.85,228.42 C259.41,234.27 215.46,250.05 199,289 C177.72,339.36 177.72,730.64 199,781 C221.24,833.64 276.88,869.2 322.15,890.47 " fill="none" id="project.domain-model-domain-model" style="stroke: #A80036; stroke-width: 1.0;"/><polygon fill="#A80036" points="326.77,892.61,320.279,885.2028,322.2315,890.512,316.9222,892.4644,326.77,892.61" style="stroke: #A80036; stroke-width: 1.0;"/><!--link project.project-types to project-types--><path d="M306.42,315.69 C263.42,320.9 216.2,336.3 199,377 C186.78,405.91 186.78,913.09 199,942 C218.81,988.88 278.45,1002.19 325.59,1005.03 " fill="none" id="project.project-types-project-types" style="stroke: #A80036; stroke-width: 1.0;"/><polygon fill="#A80036" points="330.69,1005.3,321.9208,1000.8167,325.6974,1005.0282,321.4859,1008.8048,330.69,1005.3" style="stroke: #A80036; stroke-width: 1.0;"/><!--link domain-model-plugin to metamodel--><path d="M181.22,491.5 C223.53,491.5 273.87,491.5 314.23,491.5 " fill="none" id="domain-model-plugin-metamodel" style="stroke: #A80036; stroke-width: 1.0; stroke-dasharray: 7.0,7.0;"/><polygon fill="#A80036" points="319.61,491.5,310.61,487.5,314.61,491.5,310.61,495.5,319.61,491.5" style="stroke: #A80036; stroke-width: 1.0;"/><!--link domain-model-plugin to domain-model-plugin.project-template--><path d="M165.06,518.1 C181.97,524.12 200.05,530.28 217,535.5 C235.03,541.05 254.27,546.48 273.09,551.53 " fill="none" id="domain-model-plugin-domain-model-plugin.project-template" style="stroke: #A80036; stroke-width: 1.0; stroke-dasharray: 7.0,7.0;"/><polygon fill="#A80036" points="278.39,552.94,270.7223,546.7589,273.5584,551.6535,268.6638,554.4896,278.39,552.94" style="stroke: #A80036; stroke-width: 1.0;"/><!--link domain-model to domain-model.project-template--><path d="M388.5,888.94 C388.5,854.99 388.5,821.04 388.5,787.09 " fill="none" id="domain-model-domain-model.project-template" style="stroke: #A80036; stroke-width: 1.0; stroke-dasharray: 7.0,7.0;"/><polygon fill="#A80036" points="388.5,782.08,384.5,791.08,388.5,787.08,392.5,791.08,388.5,782.08" style="stroke: #A80036; stroke-width: 1.0;"/><!--link generator to project.project-types--><path d="M770.88,315.5 C695.96,315.5 563.21,315.5 475.77,315.5 " fill="none" id="generator-project.project-types" style="stroke: #A80036; stroke-width: 1.0; stroke-dasharray: 7.0,7.0;"/><polygon fill="#A80036" points="470.6,315.5,479.6,319.5,475.6,315.5,479.6,311.5,470.6,315.5" style="stroke: #A80036; stroke-width: 1.0;"/><!--link generator to project.domain-model--><path d="M770.98,302.54 C751.95,298.27 730.58,293.57 711,289.5 C633.71,273.43 545.66,256.54 481.27,244.46 " fill="none" id="generator-project.domain-model" style="stroke: #A80036; stroke-width: 1.0; stroke-dasharray: 7.0,7.0;"/><polygon fill="#A80036" points="476.28,243.53,484.3965,249.1087,481.1957,244.4445,485.8598,241.2437,476.28,243.53" style="stroke: #A80036; stroke-width: 1.0;"/><!--link generator to common-model--><path d="M779.98,288.87 C759.01,277.36 733.95,263.93 711,252.5 C644.96,219.6 629.55,208.15 560,183.5 C528.41,172.3 492.61,162.63 461.99,155.22 " fill="none" id="generator-common-model" style="stroke: #A80036; stroke-width: 1.0; stroke-dasharray: 7.0,7.0;"/><polygon fill="#A80036" points="457.12,154.05,464.948,160.0268,461.9839,155.2087,466.802,152.2446,457.12,154.05" style="stroke: #A80036; stroke-width: 1.0;"/><!--link generator to generator.project-template--><path d="M770.82,326.89 C701.97,340.72 584.33,364.36 497.87,381.73 " fill="none" id="generator-generator.project-template" style="stroke: #A80036; stroke-width: 1.0; stroke-dasharray: 7.0,7.0;"/><polygon fill="#A80036" points="492.75,382.76,502.3621,384.9065,497.6518,381.7739,500.7844,377.0636,492.75,382.76" style="stroke: #A80036; stroke-width: 1.0;"/><!--link generator to metamodel-plugin--><path d="M886.11,297.95 C919.18,287.69 961,274.73 995.17,264.14 " fill="none" id="generator-metamodel-plugin" style="stroke: #A80036; stroke-width: 1.0; stroke-dasharray: 7.0,7.0;"/><polygon fill="#A80036" points="1000.15,262.59,990.3677,261.4465,995.3761,264.0765,992.7461,269.0848,1000.15,262.59" style="stroke: #A80036; stroke-width: 1.0;"/><!--link generator to project.domain-model-plugin--><path d="M886.11,315.5 C902.69,315.5 921.48,315.5 940.39,315.5 " fill="none" id="generator-project.domain-model-plugin" style="stroke: #A80036; stroke-width: 1.0; stroke-dasharray: 7.0,7.0;"/><polygon fill="#A80036" points="945.73,315.5,936.73,311.5,940.73,315.5,936.73,319.5,945.73,315.5" style="stroke: #A80036; stroke-width: 1.0;"/><!--link generator to common-model-plugin--><path d="M886.11,333.05 C919.18,343.31 961,356.27 995.17,366.86 " fill="none" id="generator-common-model-plugin" style="stroke: #A80036; stroke-width: 1.0; stroke-dasharray: 7.0,7.0;"/><polygon fill="#A80036" points="1000.15,368.41,992.7461,361.9152,995.3761,366.9235,990.3677,369.5535,1000.15,368.41" style="stroke: #A80036; stroke-width: 1.0;"/><!--link project-group to project-group.project-template--><path d="M152.53,731.72 C172.84,725.02 195.85,717.68 217,711.5 C235.8,706.01 255.87,700.51 275.4,695.35 " fill="none" id="project-group-project-group.project-template" style="stroke: #A80036; stroke-width: 1.0; stroke-dasharray: 7.0,7.0;"/><polygon fill="#A80036" points="280.35,694.05,270.6293,692.4665,275.5139,695.3197,272.6607,700.2043,280.35,694.05" style="stroke: #A80036; stroke-width: 1.0;"/><!--
@startuml
left to right direction

[domain-model-plugin] <<project type>>
[domain-model] <<project type>>
[generator] <<project type>>
[model] <<project type>>
[plugin] <<project type>>
[project-group] <<project type>>
[project-types] <<project type>>
[template] <<project type>>


[domain-model-plugin] - -> [plugin]
[domain-model] - -> [model]
[model] - -> [generator]
[plugin] - -> [generator]
[project-group] - -> [model]
[project-types] - -> [model]
[template] - -> [generator]


package "laplacian" {
  [common-model] <<domain-model>>
  [common-model] - -> [domain-model]
  [domain-model-plugin.project-template] <<template>>
  [domain-model-plugin.project-template] - -> [template]
  [domain-model.project-template] <<template>>
  [domain-model.project-template] - -> [template]
  [generator.project-template] <<template>>
  [generator.project-template] - -> [template]
  [metamodel] <<domain-model>>
  [metamodel] - -> [domain-model]
  [project-group.project-template] <<template>>
  [project-group.project-template] - -> [template]
  [project.domain-model] <<domain-model>>
  [project.domain-model] - -> [domain-model]
  [project.project-types] <<project-types>>
  [project.project-types] - -> [project-types]
}



  [domain-model-plugin] ..> [metamodel]
  [domain-model-plugin] ..> [domain-model-plugin.project-template]

  [domain-model] ..> [metamodel]
  [domain-model] ..> [domain-model.project-template]

  [generator] ..> [project.project-types]
  [generator] ..> [project.domain-model]
  [generator] ..> [common-model]
  [generator] ..> [generator.project-template]
  [generator] ..> [metamodel-plugin]
  [generator] ..> [project.domain-model-plugin]
  [generator] ..> [common-model-plugin]



  [project-group] ..> [project-group.project-template]




@enduml

PlantUML version 1.2019.05(Sun Apr 21 01:45:36 JST 2019)
(GPL source distribution)
Java Runtime: OpenJDK Runtime Environment
JVM: OpenJDK 64-Bit Server VM
Java Version: 1.8.0_222-b10
Operating System: Mac OS X
OS Version: 10.15.4
Default Encoding: UTF-8
Language: en
Country: JP
--></g></svg>