<?xml version="1.0" encoding="UTF-8" standalone="no"?><svg xmlns="http://www.w3.org/2000/svg" xmlns:xlink="http://www.w3.org/1999/xlink" contentScriptType="application/ecmascript" contentStyleType="text/css" height="1195px" preserveAspectRatio="none" style="width:1165px;height:1195px;" version="1.1" viewBox="0 0 1165 1195" width="1165px" zoomAndPan="magnify"><defs><filter height="300%" id="f1bc73aky575gr" width="300%" x="-1" y="-1"><feGaussianBlur result="blurOut" stdDeviation="2.0"/><feColorMatrix in="blurOut" result="blurOut2" type="matrix" values="0 0 0 0 0 0 0 0 0 0 0 0 0 0 0 0 0 0 .4 0"/><feOffset dx="4.0" dy="4.0" in="blurOut2" result="blurOut3"/><feBlend in="SourceGraphic" in2="blurOut3" mode="normal"/></filter></defs><g><!--cluster laplacian--><polygon fill="#FFFFFF" filter="url(#f1bc73aky575gr)" points="239.5,325.8,313.5,325.8,320.5,348.0969,508.5,348.0969,508.5,1134.8,239.5,1134.8,239.5,325.8" style="stroke: #000000; stroke-width: 1.5;"/><line style="stroke: #000000; stroke-width: 1.5;" x1="239.5" x2="320.5" y1="348.0969" y2="348.0969"/><text fill="#000000" font-family="sans-serif" font-size="14" font-weight="bold" lengthAdjust="spacingAndGlyphs" textLength="68" x="243.5" y="340.7951">laplacian</text><!--entity common-model--><rect fill="#FEFECE" filter="url(#f1bc73aky575gr)" height="52.5938" style="stroke: #A80036; stroke-width: 1.5;" width="137" x="305.5" y="361.3"/><rect fill="#FEFECE" height="5" style="stroke: #A80036; stroke-width: 1.5;" width="10" x="300.5" y="366.3"/><rect fill="#FEFECE" height="5" style="stroke: #A80036; stroke-width: 1.5;" width="10" x="300.5" y="403.8937"/><text fill="#000000" font-family="sans-serif" font-size="14" font-style="italic" lengthAdjust="spacingAndGlyphs" textLength="117" x="315.5" y="384.2951">«domain-model»</text><text fill="#000000" font-family="sans-serif" font-size="14" lengthAdjust="spacingAndGlyphs" textLength="109" x="319.5" y="400.592">common-model</text><!--entity domain-model.project-template--><rect fill="#FEFECE" filter="url(#f1bc73aky575gr)" height="52.5938" style="stroke: #A80036; stroke-width: 1.5;" width="237" x="255.5" y="1065.3"/><rect fill="#FEFECE" height="5" style="stroke: #A80036; stroke-width: 1.5;" width="10" x="250.5" y="1070.3"/><rect fill="#FEFECE" height="5" style="stroke: #A80036; stroke-width: 1.5;" width="10" x="250.5" y="1107.8938"/><text fill="#000000" font-family="sans-serif" font-size="14" font-style="italic" lengthAdjust="spacingAndGlyphs" textLength="79" x="334.5" y="1088.2951">«template»</text><text fill="#000000" font-family="sans-serif" font-size="14" lengthAdjust="spacingAndGlyphs" textLength="217" x="265.5" y="1104.592">domain-model.project-template</text><!--entity generator.project-template--><rect fill="#FEFECE" filter="url(#f1bc73aky575gr)" height="52.5938" style="stroke: #A80036; stroke-width: 1.5;" width="206" x="271" y="801.3"/><rect fill="#FEFECE" height="5" style="stroke: #A80036; stroke-width: 1.5;" width="10" x="266" y="806.3"/><rect fill="#FEFECE" height="5" style="stroke: #A80036; stroke-width: 1.5;" width="10" x="266" y="843.8938"/><text fill="#000000" font-family="sans-serif" font-size="14" font-style="italic" lengthAdjust="spacingAndGlyphs" textLength="79" x="334.5" y="824.2951">«template»</text><text fill="#000000" font-family="sans-serif" font-size="14" lengthAdjust="spacingAndGlyphs" textLength="186" x="281" y="840.592">generator.project-template</text><!--entity metamodel--><rect fill="#FEFECE" filter="url(#f1bc73aky575gr)" height="52.5938" style="stroke: #A80036; stroke-width: 1.5;" width="137" x="305.5" y="625.3"/><rect fill="#FEFECE" height="5" style="stroke: #A80036; stroke-width: 1.5;" width="10" x="300.5" y="630.3"/><rect fill="#FEFECE" height="5" style="stroke: #A80036; stroke-width: 1.5;" width="10" x="300.5" y="667.8938"/><text fill="#000000" font-family="sans-serif" font-size="14" font-style="italic" lengthAdjust="spacingAndGlyphs" textLength="117" x="315.5" y="648.2951">«domain-model»</text><text fill="#000000" font-family="sans-serif" font-size="14" lengthAdjust="spacingAndGlyphs" textLength="78" x="335" y="664.592">metamodel</text><!--entity model.project-template--><rect fill="#FEFECE" filter="url(#f1bc73aky575gr)" height="52.5938" style="stroke: #A80036; stroke-width: 1.5;" width="181" x="283.5" y="449.3"/><rect fill="#FEFECE" height="5" style="stroke: #A80036; stroke-width: 1.5;" width="10" x="278.5" y="454.3"/><rect fill="#FEFECE" height="5" style="stroke: #A80036; stroke-width: 1.5;" width="10" x="278.5" y="491.8937"/><text fill="#000000" font-family="sans-serif" font-size="14" font-style="italic" lengthAdjust="spacingAndGlyphs" textLength="79" x="334.5" y="472.2951">«template»</text><text fill="#000000" font-family="sans-serif" font-size="14" lengthAdjust="spacingAndGlyphs" textLength="161" x="293.5" y="488.592">model.project-template</text><!--entity project-group.project-template--><rect fill="#FEFECE" filter="url(#f1bc73aky575gr)" height="52.5938" style="stroke: #A80036; stroke-width: 1.5;" width="232" x="258" y="889.3"/><rect fill="#FEFECE" height="5" style="stroke: #A80036; stroke-width: 1.5;" width="10" x="253" y="894.3"/><rect fill="#FEFECE" height="5" style="stroke: #A80036; stroke-width: 1.5;" width="10" x="253" y="931.8938"/><text fill="#000000" font-family="sans-serif" font-size="14" font-style="italic" lengthAdjust="spacingAndGlyphs" textLength="79" x="334.5" y="912.2951">«template»</text><text fill="#000000" font-family="sans-serif" font-size="14" lengthAdjust="spacingAndGlyphs" textLength="212" x="268" y="928.592">project-group.project-template</text><!--entity project.domain-model--><rect fill="#FEFECE" filter="url(#f1bc73aky575gr)" height="52.5938" style="stroke: #A80036; stroke-width: 1.5;" width="171" x="288.5" y="537.3"/><rect fill="#FEFECE" height="5" style="stroke: #A80036; stroke-width: 1.5;" width="10" x="283.5" y="542.3"/><rect fill="#FEFECE" height="5" style="stroke: #A80036; stroke-width: 1.5;" width="10" x="283.5" y="579.8938"/><text fill="#000000" font-family="sans-serif" font-size="14" font-style="italic" lengthAdjust="spacingAndGlyphs" textLength="117" x="315.5" y="560.2951">«domain-model»</text><text fill="#000000" font-family="sans-serif" font-size="14" lengthAdjust="spacingAndGlyphs" textLength="151" x="298.5" y="576.592">project.domain-model</text><!--entity project.project-types--><rect fill="#FEFECE" filter="url(#f1bc73aky575gr)" height="52.5938" style="stroke: #A80036; stroke-width: 1.5;" width="163" x="292.5" y="713.3"/><rect fill="#FEFECE" height="5" style="stroke: #A80036; stroke-width: 1.5;" width="10" x="287.5" y="718.3"/><rect fill="#FEFECE" height="5" style="stroke: #A80036; stroke-width: 1.5;" width="10" x="287.5" y="755.8938"/><text fill="#000000" font-family="sans-serif" font-size="14" font-style="italic" lengthAdjust="spacingAndGlyphs" textLength="109" x="319.5" y="736.2951">«project-types»</text><text fill="#000000" font-family="sans-serif" font-size="14" lengthAdjust="spacingAndGlyphs" textLength="143" x="302.5" y="752.592">project.project-types</text><!--entity template.project-template--><rect fill="#FEFECE" filter="url(#f1bc73aky575gr)" height="52.5938" style="stroke: #A80036; stroke-width: 1.5;" width="199" x="274.5" y="977.3"/><rect fill="#FEFECE" height="5" style="stroke: #A80036; stroke-width: 1.5;" width="10" x="269.5" y="982.3"/><rect fill="#FEFECE" height="5" style="stroke: #A80036; stroke-width: 1.5;" width="10" x="269.5" y="1019.8938"/><text fill="#000000" font-family="sans-serif" font-size="14" font-style="italic" lengthAdjust="spacingAndGlyphs" textLength="79" x="334.5" y="1000.2951">«template»</text><text fill="#000000" font-family="sans-serif" font-size="14" lengthAdjust="spacingAndGlyphs" textLength="179" x="284.5" y="1016.592">template.project-template</text><!--entity domain-model-plugin--><rect fill="#FEFECE" filter="url(#f1bc73aky575gr)" height="52.5938" style="stroke: #A80036; stroke-width: 1.5;" width="166" x="6" y="88.3"/><rect fill="#FEFECE" height="5" style="stroke: #A80036; stroke-width: 1.5;" width="10" x="1" y="93.3"/><rect fill="#FEFECE" height="5" style="stroke: #A80036; stroke-width: 1.5;" width="10" x="1" y="130.8937"/><text fill="#000000" font-family="sans-serif" font-size="14" font-style="italic" lengthAdjust="spacingAndGlyphs" textLength="100" x="39" y="111.2951">«project type»</text><text fill="#000000" font-family="sans-serif" font-size="14" lengthAdjust="spacingAndGlyphs" textLength="146" x="16" y="127.592">domain-model-plugin</text><!--entity domain-model--><rect fill="#FEFECE" filter="url(#f1bc73aky575gr)" height="52.5938" style="stroke: #A80036; stroke-width: 1.5;" width="120" x="314" y="168.3"/><rect fill="#FEFECE" height="5" style="stroke: #A80036; stroke-width: 1.5;" width="10" x="309" y="173.3"/><rect fill="#FEFECE" height="5" style="stroke: #A80036; stroke-width: 1.5;" width="10" x="309" y="210.8937"/><text fill="#000000" font-family="sans-serif" font-size="14" font-style="italic" lengthAdjust="spacingAndGlyphs" textLength="100" x="324" y="191.2951">«project type»</text><text fill="#000000" font-family="sans-serif" font-size="14" lengthAdjust="spacingAndGlyphs" textLength="99" x="324.5" y="207.592">domain-model</text><!--entity generator--><rect fill="#FEFECE" filter="url(#f1bc73aky575gr)" height="52.5938" style="stroke: #A80036; stroke-width: 1.5;" width="120" x="756" y="628.3"/><rect fill="#FEFECE" height="5" style="stroke: #A80036; stroke-width: 1.5;" width="10" x="751" y="633.3"/><rect fill="#FEFECE" height="5" style="stroke: #A80036; stroke-width: 1.5;" width="10" x="751" y="670.8938"/><text fill="#000000" font-family="sans-serif" font-size="14" font-style="italic" lengthAdjust="spacingAndGlyphs" textLength="100" x="766" y="651.2951">«project type»</text><text fill="#000000" font-family="sans-serif" font-size="14" lengthAdjust="spacingAndGlyphs" textLength="68" x="782" y="667.592">generator</text><!--entity model--><rect fill="#FEFECE" filter="url(#f1bc73aky575gr)" height="52.5938" style="stroke: #A80036; stroke-width: 1.5;" width="120" x="576" y="402.3"/><rect fill="#FEFECE" height="5" style="stroke: #A80036; stroke-width: 1.5;" width="10" x="571" y="407.3"/><rect fill="#FEFECE" height="5" style="stroke: #A80036; stroke-width: 1.5;" width="10" x="571" y="444.8937"/><text fill="#000000" font-family="sans-serif" font-size="14" font-style="italic" lengthAdjust="spacingAndGlyphs" textLength="100" x="586" y="425.2951">«project type»</text><text fill="#000000" font-family="sans-serif" font-size="14" lengthAdjust="spacingAndGlyphs" textLength="43" x="614.5" y="441.592">model</text><!--entity plugin--><rect fill="#FEFECE" filter="url(#f1bc73aky575gr)" height="52.5938" style="stroke: #A80036; stroke-width: 1.5;" width="120" x="314" y="8.3"/><rect fill="#FEFECE" height="5" style="stroke: #A80036; stroke-width: 1.5;" width="10" x="309" y="13.3"/><rect fill="#FEFECE" height="5" style="stroke: #A80036; stroke-width: 1.5;" width="10" x="309" y="50.8937"/><text fill="#000000" font-family="sans-serif" font-size="14" font-style="italic" lengthAdjust="spacingAndGlyphs" textLength="100" x="324" y="31.2951">«project type»</text><text fill="#000000" font-family="sans-serif" font-size="14" lengthAdjust="spacingAndGlyphs" textLength="42" x="353" y="47.592">plugin</text><!--entity project-group--><rect fill="#FEFECE" filter="url(#f1bc73aky575gr)" height="52.5938" style="stroke: #A80036; stroke-width: 1.5;" width="120" x="29" y="1017.3"/><rect fill="#FEFECE" height="5" style="stroke: #A80036; stroke-width: 1.5;" width="10" x="24" y="1022.3"/><rect fill="#FEFECE" height="5" style="stroke: #A80036; stroke-width: 1.5;" width="10" x="24" y="1059.8938"/><text fill="#000000" font-family="sans-serif" font-size="14" font-style="italic" lengthAdjust="spacingAndGlyphs" textLength="100" x="39" y="1040.2951">«project type»</text><text fill="#000000" font-family="sans-serif" font-size="14" lengthAdjust="spacingAndGlyphs" textLength="94" x="42" y="1056.592">project-group</text><!--entity project-types--><rect fill="#FEFECE" filter="url(#f1bc73aky575gr)" height="52.5938" style="stroke: #A80036; stroke-width: 1.5;" width="120" x="314" y="256.3"/><rect fill="#FEFECE" height="5" style="stroke: #A80036; stroke-width: 1.5;" width="10" x="309" y="261.3"/><rect fill="#FEFECE" height="5" style="stroke: #A80036; stroke-width: 1.5;" width="10" x="309" y="298.8937"/><text fill="#000000" font-family="sans-serif" font-size="14" font-style="italic" lengthAdjust="spacingAndGlyphs" textLength="100" x="324" y="279.2951">«project type»</text><text fill="#000000" font-family="sans-serif" font-size="14" lengthAdjust="spacingAndGlyphs" textLength="91" x="328.5" y="295.592">project-types</text><!--entity template--><rect fill="#FEFECE" filter="url(#f1bc73aky575gr)" height="52.5938" style="stroke: #A80036; stroke-width: 1.5;" width="120" x="576" y="881.3"/><rect fill="#FEFECE" height="5" style="stroke: #A80036; stroke-width: 1.5;" width="10" x="571" y="886.3"/><rect fill="#FEFECE" height="5" style="stroke: #A80036; stroke-width: 1.5;" width="10" x="571" y="923.8938"/><text fill="#000000" font-family="sans-serif" font-size="14" font-style="italic" lengthAdjust="spacingAndGlyphs" textLength="100" x="586" y="904.2951">«project type»</text><text fill="#000000" font-family="sans-serif" font-size="14" lengthAdjust="spacingAndGlyphs" textLength="61" x="605.5" y="920.592">template</text><!--entity domain-model-plugin.project-template--><rect fill="#FEFECE" filter="url(#f1bc73aky575gr)" height="36.2969" style="stroke: #A80036; stroke-width: 1.5;" width="284" x="232" y="96.8"/><rect fill="#FEFECE" height="5" style="stroke: #A80036; stroke-width: 1.5;" width="10" x="227" y="101.8"/><rect fill="#FEFECE" height="5" style="stroke: #A80036; stroke-width: 1.5;" width="10" x="227" y="123.0969"/><text fill="#000000" font-family="sans-serif" font-size="14" lengthAdjust="spacingAndGlyphs" textLength="264" x="242" y="119.7951">domain-model-plugin.project-template</text><!--entity metamodel-plugin--><rect fill="#FEFECE" filter="url(#f1bc73aky575gr)" height="36.2969" style="stroke: #A80036; stroke-width: 1.5;" width="145" x="972.5" y="565.8"/><rect fill="#FEFECE" height="5" style="stroke: #A80036; stroke-width: 1.5;" width="10" x="967.5" y="570.8"/><rect fill="#FEFECE" height="5" style="stroke: #A80036; stroke-width: 1.5;" width="10" x="967.5" y="592.0969"/><text fill="#000000" font-family="sans-serif" font-size="14" lengthAdjust="spacingAndGlyphs" textLength="125" x="982.5" y="588.7951">metamodel-plugin</text><!--entity project.domain-model-plugin--><rect fill="#FEFECE" filter="url(#f1bc73aky575gr)" height="36.2969" style="stroke: #A80036; stroke-width: 1.5;" width="218" x="936" y="636.8"/><rect fill="#FEFECE" height="5" style="stroke: #A80036; stroke-width: 1.5;" width="10" x="931" y="641.8"/><rect fill="#FEFECE" height="5" style="stroke: #A80036; stroke-width: 1.5;" width="10" x="931" y="663.0969"/><text fill="#000000" font-family="sans-serif" font-size="14" lengthAdjust="spacingAndGlyphs" textLength="198" x="946" y="659.7951">project.domain-model-plugin</text><!--entity common-model-plugin--><rect fill="#FEFECE" filter="url(#f1bc73aky575gr)" height="36.2969" style="stroke: #A80036; stroke-width: 1.5;" width="176" x="957" y="707.8"/><rect fill="#FEFECE" height="5" style="stroke: #A80036; stroke-width: 1.5;" width="10" x="952" y="712.8"/><rect fill="#FEFECE" height="5" style="stroke: #A80036; stroke-width: 1.5;" width="10" x="952" y="734.0969"/><text fill="#000000" font-family="sans-serif" font-size="14" lengthAdjust="spacingAndGlyphs" textLength="156" x="967" y="730.7951">common-model-plugin</text><!--link domain-model-plugin to plugin--><path d="M172.24,91.56 C215.83,79.23 268.59,64.32 309.08,52.87 " fill="none" id="domain-model-plugin-plugin" style="stroke: #A80036; stroke-width: 1.0;"/><polygon fill="#A80036" points="313.96,51.5,304.2123,50.092,309.1476,52.8566,306.3829,57.7919,313.96,51.5" style="stroke: #A80036; stroke-width: 1.0;"/><!--link domain-model to model--><path d="M434.12,203.45 C461.34,209.74 492.77,220.49 516.5,238.8 C570.88,280.77 606.64,355.32 623.58,397.48 " fill="none" id="domain-model-model" style="stroke: #A80036; stroke-width: 1.0;"/><polygon fill="#A80036" points="625.46,402.21,625.8575,392.3692,623.6154,397.5627,618.4218,395.3206,625.46,402.21" style="stroke: #A80036; stroke-width: 1.0;"/><!--link model to generator--><path d="M662.95,455.61 C673.5,466.85 685.62,480.21 696,492.8 C732.21,536.75 770.61,590.49 793.69,623.69 " fill="none" id="model-generator" style="stroke: #A80036; stroke-width: 1.0;"/><polygon fill="#A80036" points="796.71,628.03,794.8689,618.3548,793.861,623.9211,788.2946,622.9132,796.71,628.03" style="stroke: #A80036; stroke-width: 1.0;"/><!--link plugin to generator--><path d="M434.35,43.16 C461.61,49.39 493.02,60.17 516.5,78.8 C703.71,227.39 785.66,525.42 808.22,623.04 " fill="none" id="plugin-generator" style="stroke: #A80036; stroke-width: 1.0;"/><polygon fill="#A80036" points="809.37,628.09,811.2355,618.4194,808.2415,623.219,803.442,620.225,809.37,628.09" style="stroke: #A80036; stroke-width: 1.0;"/><!--link project-group to generator--><path d="M120,1070.46 C147.01,1092.56 188.9,1122.29 231.5,1134.8 C353.03,1170.51 399.71,1183.84 516.5,1134.8 C707.42,1054.64 786.41,780.51 808.27,686.64 " fill="none" id="project-group-generator" style="stroke: #A80036; stroke-width: 1.0;"/><polygon fill="#A80036" points="809.45,681.51,803.522,689.375,808.3215,686.381,811.3155,691.1806,809.45,681.51" style="stroke: #A80036; stroke-width: 1.0;"/><!--link project-types to model--><path d="M434.13,305.55 C460,316.3 490.35,330.01 516.5,344.8 C544.81,360.82 574.67,382.02 597.33,399.11 " fill="none" id="project-types-model" style="stroke: #A80036; stroke-width: 1.0;"/><polygon fill="#A80036" points="601.48,402.25,596.7145,393.6309,597.492,399.234,591.8889,400.0116,601.48,402.25" style="stroke: #A80036; stroke-width: 1.0;"/><!--link template to generator--><path d="M655.71,881.21 C688.96,833.95 758.15,735.6 793.38,685.53 " fill="none" id="template-generator" style="stroke: #A80036; stroke-width: 1.0;"/><polygon fill="#A80036" points="796.27,681.43,787.8307,686.5073,793.4017,685.5255,794.3835,691.0965,796.27,681.43" style="stroke: #A80036; stroke-width: 1.0;"/><!--link common-model to domain-model--><path d="M305.31,376.43 C267.05,366.05 222.96,346.39 201.75,309.3 C190.06,288.86 190.06,276.75 201.75,256.3 C222.95,219.24 269.4,204.15 308.73,198.17 " fill="none" id="common-model-domain-model" style="stroke: #A80036; stroke-width: 1.0;"/><polygon fill="#A80036" points="313.98,197.42,304.5015,194.7445,309.0311,198.1331,305.6425,202.6627,313.98,197.42" style="stroke: #A80036; stroke-width: 1.0;"/><!--link domain-model.project-template to template--><path d="M483.42,1065.21 C495.03,1060.31 506.31,1054.55 516.5,1047.8 C559.52,1019.32 595.55,970.81 616.21,939.03 " fill="none" id="domain-model.project-template-template" style="stroke: #A80036; stroke-width: 1.0;"/><polygon fill="#A80036" points="619.15,934.47,610.9185,939.8776,616.4462,938.6759,617.6479,944.2036,619.15,934.47" style="stroke: #A80036; stroke-width: 1.0;"/><!--link generator.project-template to template--><path d="M461.22,854.33 C497,865.34 537.8,877.9 570.87,888.07 " fill="none" id="generator.project-template-template" style="stroke: #A80036; stroke-width: 1.0;"/><polygon fill="#A80036" points="575.69,889.56,568.263,883.0917,570.9108,888.0906,565.9119,890.7384,575.69,889.56" style="stroke: #A80036; stroke-width: 1.0;"/><!--link metamodel to domain-model--><path d="M305.23,647.89 C266.68,641.55 222.32,626.28 201.75,590.3 C164.9,525.88 164.9,320.73 201.75,256.3 C222.95,219.24 269.4,204.15 308.73,198.17 " fill="none" id="metamodel-domain-model" style="stroke: #A80036; stroke-width: 1.0;"/><polygon fill="#A80036" points="313.98,197.42,304.5015,194.7445,309.0311,198.1331,305.6425,202.6627,313.98,197.42" style="stroke: #A80036; stroke-width: 1.0;"/><!--link domain-model to metamodel--><path d="M313.98,197.42 C273.62,202.84 223.9,217.58 201.75,256.3 C164.9,320.73 164.9,525.88 201.75,590.3 C221.44,624.73 262.91,640.2 300.23,647.02 " fill="none" id="domain-model-metamodel" style="stroke: #A80036; stroke-width: 1.0; stroke-dasharray: 7.0,7.0;"/><polygon fill="#A80036" points="305.23,647.89,297.0331,642.4301,300.3015,647.0472,295.6845,650.3157,305.23,647.89" style="stroke: #A80036; stroke-width: 1.0;"/><!--link model.project-template to template--><path d="M464.57,489.41 C483.68,495.94 502.35,505.58 516.5,519.8 C616.56,620.37 632.52,802.87 634.78,876.12 " fill="none" id="model.project-template-template" style="stroke: #A80036; stroke-width: 1.0;"/><polygon fill="#A80036" points="634.92,881.21,638.6613,872.0994,634.7772,876.212,630.6646,872.3279,634.92,881.21" style="stroke: #A80036; stroke-width: 1.0;"/><!--link project-group.project-template to template--><path d="M490.18,912.26 C517.82,911.41 546.37,910.53 570.74,909.78 " fill="none" id="project-group.project-template-template" style="stroke: #A80036; stroke-width: 1.0;"/><polygon fill="#A80036" points="575.87,909.62,566.7488,905.9047,570.8725,909.7771,567.0001,913.9007,575.87,909.62" style="stroke: #A80036; stroke-width: 1.0;"/><!--link project.domain-model to domain-model--><path d="M288.12,556.52 C254.27,548.67 219.33,533.04 201.75,502.3 C174.61,454.85 174.61,303.76 201.75,256.3 C222.95,219.24 269.4,204.15 308.73,198.17 " fill="none" id="project.domain-model-domain-model" style="stroke: #A80036; stroke-width: 1.0;"/><polygon fill="#A80036" points="313.98,197.42,304.5015,194.7445,309.0311,198.1331,305.6425,202.6627,313.98,197.42" style="stroke: #A80036; stroke-width: 1.0;"/><!--link project.project-types to project-types--><path d="M292.21,733.43 C257.12,725.9 220.04,710.28 201.75,678.3 C166.89,617.35 166.89,423.26 201.75,362.3 C223.58,324.14 269.49,304.16 308.42,293.77 " fill="none" id="project.project-types-project-types" style="stroke: #A80036; stroke-width: 1.0;"/><polygon fill="#A80036" points="313.62,292.43,303.9037,290.8197,308.7804,293.6863,305.9138,298.563,313.62,292.43" style="stroke: #A80036; stroke-width: 1.0;"/><!--link template.project-template to template--><path d="M473.68,991.49 C488.13,986.96 502.76,981.94 516.5,976.8 C546.42,965.63 579.65,950.83 603.29,936.97 " fill="none" id="template.project-template-template" style="stroke: #A80036; stroke-width: 1.0;"/><polygon fill="#A80036" points="607.59,934.39,597.8146,935.5905,603.3025,936.9625,601.9305,942.4504,607.59,934.39" style="stroke: #A80036; stroke-width: 1.0;"/><!--link template to template.project-template--><path d="M575.86,918.17 C557.06,925.63 536.07,934.49 516.5,941.8 C484.95,953.59 448.66,964.83 420.73,975.41 " fill="none" id="template-template.project-template" style="stroke: #A80036; stroke-width: 1.0; stroke-dasharray: 7.0,7.0;"/><polygon fill="#A80036" points="415.97,977.24,425.805,977.7627,420.6404,975.4547,422.9485,970.2901,415.97,977.24" style="stroke: #A80036; stroke-width: 1.0;"/><!--link domain-model-plugin to metamodel--><path d="M89.4,141.53 C89.08,223.32 99.49,472.86 231.5,607.8 C249.72,626.42 275.66,637.2 300.36,643.42 " fill="none" id="domain-model-plugin-metamodel" style="stroke: #A80036; stroke-width: 1.0; stroke-dasharray: 7.0,7.0;"/><polygon fill="#A80036" points="305.28,644.6,297.4647,638.6066,300.4186,643.431,295.5942,646.3849,305.28,644.6" style="stroke: #A80036; stroke-width: 1.0;"/><!--link domain-model-plugin to domain-model-plugin.project-template--><path d="M172.24,114.8 C189.39,114.8 207.96,114.8 226.65,114.8 " fill="none" id="domain-model-plugin-domain-model-plugin.project-template" style="stroke: #A80036; stroke-width: 1.0; stroke-dasharray: 7.0,7.0;"/><polygon fill="#A80036" points="231.92,114.8,222.92,110.8,226.92,114.8,222.92,118.8,231.92,114.8" style="stroke: #A80036; stroke-width: 1.0;"/><!--link domain-model to domain-model.project-template--><path d="M313.98,197.42 C273.62,202.84 223.9,217.58 201.75,256.3 C180.4,293.63 180.4,992.98 201.75,1030.3 C212.74,1049.52 230.53,1062.84 250.58,1072.03 " fill="none" id="domain-model-domain-model.project-template" style="stroke: #A80036; stroke-width: 1.0; stroke-dasharray: 7.0,7.0;"/><polygon fill="#A80036" points="255.17,1074.05,248.5469,1066.7606,250.5945,1072.0339,245.3212,1074.0815,255.17,1074.05" style="stroke: #A80036; stroke-width: 1.0;"/><!--link generator to project.project-types--><path d="M755.93,666.22 C680.06,680.87 547.83,706.42 460.85,723.22 " fill="none" id="generator-project.project-types" style="stroke: #A80036; stroke-width: 1.0; stroke-dasharray: 7.0,7.0;"/><polygon fill="#A80036" points="455.7,724.21,465.2937,726.4374,460.6099,723.2652,463.7821,718.5815,455.7,724.21" style="stroke: #A80036; stroke-width: 1.0;"/><!--link generator to project.domain-model--><path d="M755.7,642.54 C680.91,627.07 551.62,600.33 464.72,582.36 " fill="none" id="generator-project.domain-model" style="stroke: #A80036; stroke-width: 1.0; stroke-dasharray: 7.0,7.0;"/><polygon fill="#A80036" points="459.58,581.3,467.579,587.0459,464.4756,582.3163,469.2052,579.2129,459.58,581.3" style="stroke: #A80036; stroke-width: 1.0;"/><!--link generator to common-model--><path d="M780.18,628.3 C704.56,570.8 530.89,439.14 516.5,431.8 C495,420.84 470.25,412 447.52,405.2 " fill="none" id="generator-common-model" style="stroke: #A80036; stroke-width: 1.0; stroke-dasharray: 7.0,7.0;"/><polygon fill="#A80036" points="442.7,403.79,450.2025,410.1706,447.4961,405.2031,452.4636,402.4968,442.7,403.79" style="stroke: #A80036; stroke-width: 1.0;"/><!--link generator to generator.project-template--><path d="M757.35,681.39 C737.92,690.24 716.07,700.06 696,708.8 C616.73,743.34 597.76,754.27 516.5,783.8 C501.49,789.26 485.44,794.66 469.74,799.7 " fill="none" id="generator-generator.project-template" style="stroke: #A80036; stroke-width: 1.0; stroke-dasharray: 7.0,7.0;"/><polygon fill="#A80036" points="464.87,801.26,474.6622,802.315,469.6303,799.7304,472.2149,794.6985,464.87,801.26" style="stroke: #A80036; stroke-width: 1.0;"/><!--link generator to metamodel-plugin--><path d="M876.05,636.34 C908.48,626.19 948.68,613.62 981.62,603.32 " fill="none" id="generator-metamodel-plugin" style="stroke: #A80036; stroke-width: 1.0; stroke-dasharray: 7.0,7.0;"/><polygon fill="#A80036" points="986.42,601.81,976.6377,600.6665,981.6461,603.2965,979.0161,608.3048,986.42,601.81" style="stroke: #A80036; stroke-width: 1.0;"/><!--link generator to project.domain-model-plugin--><path d="M876.05,654.8 C892.86,654.8 911.76,654.8 930.65,654.8 " fill="none" id="generator-project.domain-model-plugin" style="stroke: #A80036; stroke-width: 1.0; stroke-dasharray: 7.0,7.0;"/><polygon fill="#A80036" points="935.98,654.8,926.98,650.8,930.98,654.8,926.98,658.8,935.98,654.8" style="stroke: #A80036; stroke-width: 1.0;"/><!--link generator to common-model-plugin--><path d="M876.05,673.27 C908.48,683.42 948.68,695.99 981.62,706.29 " fill="none" id="generator-common-model-plugin" style="stroke: #A80036; stroke-width: 1.0; stroke-dasharray: 7.0,7.0;"/><polygon fill="#A80036" points="986.42,707.8,979.0161,701.3052,981.6461,706.3135,976.6377,708.9435,986.42,707.8" style="stroke: #A80036; stroke-width: 1.0;"/><!--link model to model.project-template--><path d="M575.76,439.51 C544.5,445.16 505.4,452.23 470.03,458.63 " fill="none" id="model-model.project-template" style="stroke: #A80036; stroke-width: 1.0; stroke-dasharray: 7.0,7.0;"/><polygon fill="#A80036" points="464.84,459.56,474.4056,461.905,469.7612,458.6756,472.9906,454.0312,464.84,459.56" style="stroke: #A80036; stroke-width: 1.0;"/><!--link project-group to project-group.project-template--><path d="M129.22,1017.13 C156.9,999.16 195.35,975.89 231.5,959.8 C244.27,954.12 257.99,948.87 271.69,944.12 " fill="none" id="project-group-project-group.project-template" style="stroke: #A80036; stroke-width: 1.0; stroke-dasharray: 7.0,7.0;"/><polygon fill="#A80036" points="276.73,942.4,266.918,941.5488,272.0025,944.0282,269.5231,949.1127,276.73,942.4" style="stroke: #A80036; stroke-width: 1.0;"/><!--
@startuml
left to right direction

[domain-model-plugin] <<project type>>
[domain-model] <<project type>>
[generator] <<project type>>
[model] <<project type>>
[plugin] <<project type>>
[project-group] <<project type>>
[project-types] <<project type>>
[template] <<project type>>


[domain-model-plugin] - -> [plugin]
[domain-model] - -> [model]
[model] - -> [generator]
[plugin] - -> [generator]
[project-group] - -> [generator]
[project-types] - -> [model]
[template] - -> [generator]


package "laplacian" {
  [common-model] <<domain-model>>
  [common-model] - -> [domain-model]
  [domain-model.project-template] <<template>>
  [domain-model.project-template] - -> [template]
  [generator.project-template] <<template>>
  [generator.project-template] - -> [template]
  [metamodel] <<domain-model>>
  [metamodel] - -> [domain-model]
  [model.project-template] <<template>>
  [model.project-template] - -> [template]
  [project-group.project-template] <<template>>
  [project-group.project-template] - -> [template]
  [project.domain-model] <<domain-model>>
  [project.domain-model] - -> [domain-model]
  [project.project-types] <<project-types>>
  [project.project-types] - -> [project-types]
  [template.project-template] <<template>>
  [template.project-template] - -> [template]
}



  [domain-model-plugin] ..> [metamodel]
  [domain-model-plugin] ..> [domain-model-plugin.project-template]

  [domain-model] ..> [metamodel]
  [domain-model] ..> [domain-model.project-template]

  [generator] ..> [project.project-types]
  [generator] ..> [project.domain-model]
  [generator] ..> [common-model]
  [generator] ..> [generator.project-template]
  [generator] ..> [metamodel-plugin]
  [generator] ..> [project.domain-model-plugin]
  [generator] ..> [common-model-plugin]

  [model] ..> [model.project-template]


  [project-group] ..> [project-group.project-template]


  [template] ..> [template.project-template]


@enduml

PlantUML version 1.2019.05(Sun Apr 21 01:45:36 JST 2019)
(GPL source distribution)
Java Runtime: OpenJDK Runtime Environment
JVM: OpenJDK 64-Bit Server VM
Java Version: 11.0.8+10
Operating System: Linux
OS Version: 4.19.84-microsoft-standard
Default Encoding: UTF-8
Language: en
Country: 
--></g></svg>