<?xml version="1.0" encoding="UTF-8" standalone="no"?><svg xmlns="http://www.w3.org/2000/svg" xmlns:xlink="http://www.w3.org/1999/xlink" contentScriptType="application/ecmascript" contentStyleType="text/css" height="1201px" preserveAspectRatio="none" style="width:1184px;height:1201px;" version="1.1" viewBox="0 0 1184 1201" width="1184px" zoomAndPan="magnify"><defs><filter height="300%" id="f1k1dt3wlfljdp" width="300%" x="-1" y="-1"><feGaussianBlur result="blurOut" stdDeviation="2.0"/><feColorMatrix in="blurOut" result="blurOut2" type="matrix" values="0 0 0 0 0 0 0 0 0 0 0 0 0 0 0 0 0 0 .4 0"/><feOffset dx="4.0" dy="4.0" in="blurOut2" result="blurOut3"/><feBlend in="SourceGraphic" in2="blurOut3" mode="normal"/></filter></defs><g><!--cluster laplacian--><polygon fill="#FFFFFF" filter="url(#f1k1dt3wlfljdp)" points="251,325.33,321,325.33,328,347.8183,526,347.8183,526,1134.33,251,1134.33,251,325.33" style="stroke: #000000; stroke-width: 1.5;"/><line style="stroke: #000000; stroke-width: 1.5;" x1="251" x2="328" y1="347.8183" y2="347.8183"/><text fill="#000000" font-family="sans-serif" font-size="14" font-weight="bold" lengthAdjust="spacingAndGlyphs" textLength="64" x="255" y="340.8652">laplacian</text><!--entity common-model--><rect fill="#FEFECE" filter="url(#f1k1dt3wlfljdp)" height="52.9766" style="stroke: #A80036; stroke-width: 1.5;" width="137" x="320" y="448.83"/><rect fill="#FEFECE" height="5" style="stroke: #A80036; stroke-width: 1.5;" width="10" x="315" y="453.83"/><rect fill="#FEFECE" height="5" style="stroke: #A80036; stroke-width: 1.5;" width="10" x="315" y="491.8066"/><text fill="#000000" font-family="sans-serif" font-size="14" font-style="italic" lengthAdjust="spacingAndGlyphs" textLength="117" x="330" y="472.3652">«domain-model»</text><text fill="#000000" font-family="sans-serif" font-size="14" lengthAdjust="spacingAndGlyphs" textLength="111" x="333" y="488.8534">common-model</text><!--entity domain-model.project-template--><rect fill="#FEFECE" filter="url(#f1k1dt3wlfljdp)" height="52.9766" style="stroke: #A80036; stroke-width: 1.5;" width="243" x="267" y="976.83"/><rect fill="#FEFECE" height="5" style="stroke: #A80036; stroke-width: 1.5;" width="10" x="262" y="981.83"/><rect fill="#FEFECE" height="5" style="stroke: #A80036; stroke-width: 1.5;" width="10" x="262" y="1019.8066"/><text fill="#000000" font-family="sans-serif" font-size="14" font-style="italic" lengthAdjust="spacingAndGlyphs" textLength="74" x="351.5" y="1000.3652">«template»</text><text fill="#000000" font-family="sans-serif" font-size="14" lengthAdjust="spacingAndGlyphs" textLength="223" x="277" y="1016.8534">domain-model.project-template</text><!--entity generator.project-template--><rect fill="#FEFECE" filter="url(#f1k1dt3wlfljdp)" height="52.9766" style="stroke: #A80036; stroke-width: 1.5;" width="208" x="284.5" y="800.83"/><rect fill="#FEFECE" height="5" style="stroke: #A80036; stroke-width: 1.5;" width="10" x="279.5" y="805.83"/><rect fill="#FEFECE" height="5" style="stroke: #A80036; stroke-width: 1.5;" width="10" x="279.5" y="843.8066"/><text fill="#000000" font-family="sans-serif" font-size="14" font-style="italic" lengthAdjust="spacingAndGlyphs" textLength="74" x="351.5" y="824.3652">«template»</text><text fill="#000000" font-family="sans-serif" font-size="14" lengthAdjust="spacingAndGlyphs" textLength="188" x="294.5" y="840.8534">generator.project-template</text><!--entity metamodel--><rect fill="#FEFECE" filter="url(#f1k1dt3wlfljdp)" height="52.9766" style="stroke: #A80036; stroke-width: 1.5;" width="97" x="340" y="360.83"/><rect fill="#FEFECE" height="5" style="stroke: #A80036; stroke-width: 1.5;" width="10" x="335" y="365.83"/><rect fill="#FEFECE" height="5" style="stroke: #A80036; stroke-width: 1.5;" width="10" x="335" y="403.8066"/><text fill="#000000" font-family="sans-serif" font-size="14" font-style="italic" lengthAdjust="spacingAndGlyphs" textLength="57" x="360" y="384.3652">«model»</text><text fill="#000000" font-family="sans-serif" font-size="14" lengthAdjust="spacingAndGlyphs" textLength="77" x="350" y="400.8534">metamodel</text><!--entity model.project-template--><rect fill="#FEFECE" filter="url(#f1k1dt3wlfljdp)" height="52.9766" style="stroke: #A80036; stroke-width: 1.5;" width="183" x="297" y="712.83"/><rect fill="#FEFECE" height="5" style="stroke: #A80036; stroke-width: 1.5;" width="10" x="292" y="717.83"/><rect fill="#FEFECE" height="5" style="stroke: #A80036; stroke-width: 1.5;" width="10" x="292" y="755.8066"/><text fill="#000000" font-family="sans-serif" font-size="14" font-style="italic" lengthAdjust="spacingAndGlyphs" textLength="74" x="351.5" y="736.3652">«template»</text><text fill="#000000" font-family="sans-serif" font-size="14" lengthAdjust="spacingAndGlyphs" textLength="163" x="307" y="752.8534">model.project-template</text><!--entity project-group.project-template--><rect fill="#FEFECE" filter="url(#f1k1dt3wlfljdp)" height="52.9766" style="stroke: #A80036; stroke-width: 1.5;" width="238" x="269.5" y="888.83"/><rect fill="#FEFECE" height="5" style="stroke: #A80036; stroke-width: 1.5;" width="10" x="264.5" y="893.83"/><rect fill="#FEFECE" height="5" style="stroke: #A80036; stroke-width: 1.5;" width="10" x="264.5" y="931.8066"/><text fill="#000000" font-family="sans-serif" font-size="14" font-style="italic" lengthAdjust="spacingAndGlyphs" textLength="74" x="351.5" y="912.3652">«template»</text><text fill="#000000" font-family="sans-serif" font-size="14" lengthAdjust="spacingAndGlyphs" textLength="218" x="279.5" y="928.8534">project-group.project-template</text><!--entity project.domain-model--><rect fill="#FEFECE" filter="url(#f1k1dt3wlfljdp)" height="52.9766" style="stroke: #A80036; stroke-width: 1.5;" width="175" x="301" y="536.83"/><rect fill="#FEFECE" height="5" style="stroke: #A80036; stroke-width: 1.5;" width="10" x="296" y="541.83"/><rect fill="#FEFECE" height="5" style="stroke: #A80036; stroke-width: 1.5;" width="10" x="296" y="579.8066"/><text fill="#000000" font-family="sans-serif" font-size="14" font-style="italic" lengthAdjust="spacingAndGlyphs" textLength="117" x="330" y="560.3652">«domain-model»</text><text fill="#000000" font-family="sans-serif" font-size="14" lengthAdjust="spacingAndGlyphs" textLength="155" x="311" y="576.8534">project.domain-model</text><!--entity project.project-types--><rect fill="#FEFECE" filter="url(#f1k1dt3wlfljdp)" height="52.9766" style="stroke: #A80036; stroke-width: 1.5;" width="164" x="306.5" y="624.83"/><rect fill="#FEFECE" height="5" style="stroke: #A80036; stroke-width: 1.5;" width="10" x="301.5" y="629.83"/><rect fill="#FEFECE" height="5" style="stroke: #A80036; stroke-width: 1.5;" width="10" x="301.5" y="667.8066"/><text fill="#000000" font-family="sans-serif" font-size="14" font-style="italic" lengthAdjust="spacingAndGlyphs" textLength="106" x="335.5" y="648.3652">«project-types»</text><text fill="#000000" font-family="sans-serif" font-size="14" lengthAdjust="spacingAndGlyphs" textLength="144" x="316.5" y="664.8534">project.project-types</text><!--entity template.project-template--><rect fill="#FEFECE" filter="url(#f1k1dt3wlfljdp)" height="52.9766" style="stroke: #A80036; stroke-width: 1.5;" width="200" x="288.5" y="1064.83"/><rect fill="#FEFECE" height="5" style="stroke: #A80036; stroke-width: 1.5;" width="10" x="283.5" y="1069.83"/><rect fill="#FEFECE" height="5" style="stroke: #A80036; stroke-width: 1.5;" width="10" x="283.5" y="1107.8066"/><text fill="#000000" font-family="sans-serif" font-size="14" font-style="italic" lengthAdjust="spacingAndGlyphs" textLength="74" x="351.5" y="1088.3652">«template»</text><text fill="#000000" font-family="sans-serif" font-size="14" lengthAdjust="spacingAndGlyphs" textLength="180" x="298.5" y="1104.8534">template.project-template</text><!--entity domain-model-plugin--><rect fill="#FEFECE" filter="url(#f1k1dt3wlfljdp)" height="52.9766" style="stroke: #A80036; stroke-width: 1.5;" width="175" x="6" y="87.83"/><rect fill="#FEFECE" height="5" style="stroke: #A80036; stroke-width: 1.5;" width="10" x="1" y="92.83"/><rect fill="#FEFECE" height="5" style="stroke: #A80036; stroke-width: 1.5;" width="10" x="1" y="130.8066"/><text fill="#000000" font-family="sans-serif" font-size="14" font-style="italic" lengthAdjust="spacingAndGlyphs" textLength="95" x="46" y="111.3652">«project type»</text><text fill="#000000" font-family="sans-serif" font-size="14" lengthAdjust="spacingAndGlyphs" textLength="155" x="16" y="127.8534">domain-model-plugin</text><!--entity domain-model--><rect fill="#FEFECE" filter="url(#f1k1dt3wlfljdp)" height="52.9766" style="stroke: #A80036; stroke-width: 1.5;" width="123" x="327" y="167.83"/><rect fill="#FEFECE" height="5" style="stroke: #A80036; stroke-width: 1.5;" width="10" x="322" y="172.83"/><rect fill="#FEFECE" height="5" style="stroke: #A80036; stroke-width: 1.5;" width="10" x="322" y="210.8066"/><text fill="#000000" font-family="sans-serif" font-size="14" font-style="italic" lengthAdjust="spacingAndGlyphs" textLength="95" x="341" y="191.3652">«project type»</text><text fill="#000000" font-family="sans-serif" font-size="14" lengthAdjust="spacingAndGlyphs" textLength="103" x="337" y="207.8534">domain-model</text><!--entity generator--><rect fill="#FEFECE" filter="url(#f1k1dt3wlfljdp)" height="52.9766" style="stroke: #A80036; stroke-width: 1.5;" width="115" x="771" y="576.83"/><rect fill="#FEFECE" height="5" style="stroke: #A80036; stroke-width: 1.5;" width="10" x="766" y="581.83"/><rect fill="#FEFECE" height="5" style="stroke: #A80036; stroke-width: 1.5;" width="10" x="766" y="619.8066"/><text fill="#000000" font-family="sans-serif" font-size="14" font-style="italic" lengthAdjust="spacingAndGlyphs" textLength="95" x="781" y="600.3652">«project type»</text><text fill="#000000" font-family="sans-serif" font-size="14" lengthAdjust="spacingAndGlyphs" textLength="68" x="794.5" y="616.8534">generator</text><!--entity model--><rect fill="#FEFECE" filter="url(#f1k1dt3wlfljdp)" height="52.9766" style="stroke: #A80036; stroke-width: 1.5;" width="115" x="596" y="360.83"/><rect fill="#FEFECE" height="5" style="stroke: #A80036; stroke-width: 1.5;" width="10" x="591" y="365.83"/><rect fill="#FEFECE" height="5" style="stroke: #A80036; stroke-width: 1.5;" width="10" x="591" y="403.8066"/><text fill="#000000" font-family="sans-serif" font-size="14" font-style="italic" lengthAdjust="spacingAndGlyphs" textLength="95" x="606" y="384.3652">«project type»</text><text fill="#000000" font-family="sans-serif" font-size="14" lengthAdjust="spacingAndGlyphs" textLength="43" x="632" y="400.8534">model</text><!--entity plugin--><rect fill="#FEFECE" filter="url(#f1k1dt3wlfljdp)" height="52.9766" style="stroke: #A80036; stroke-width: 1.5;" width="115" x="331" y="7.83"/><rect fill="#FEFECE" height="5" style="stroke: #A80036; stroke-width: 1.5;" width="10" x="326" y="12.83"/><rect fill="#FEFECE" height="5" style="stroke: #A80036; stroke-width: 1.5;" width="10" x="326" y="50.8066"/><text fill="#000000" font-family="sans-serif" font-size="14" font-style="italic" lengthAdjust="spacingAndGlyphs" textLength="95" x="341" y="31.3652">«project type»</text><text fill="#000000" font-family="sans-serif" font-size="14" lengthAdjust="spacingAndGlyphs" textLength="44" x="366.5" y="47.8534">plugin</text><!--entity project-group--><rect fill="#FEFECE" filter="url(#f1k1dt3wlfljdp)" height="52.9766" style="stroke: #A80036; stroke-width: 1.5;" width="118" x="34.5" y="1016.83"/><rect fill="#FEFECE" height="5" style="stroke: #A80036; stroke-width: 1.5;" width="10" x="29.5" y="1021.83"/><rect fill="#FEFECE" height="5" style="stroke: #A80036; stroke-width: 1.5;" width="10" x="29.5" y="1059.8066"/><text fill="#000000" font-family="sans-serif" font-size="14" font-style="italic" lengthAdjust="spacingAndGlyphs" textLength="95" x="46" y="1040.3652">«project type»</text><text fill="#000000" font-family="sans-serif" font-size="14" lengthAdjust="spacingAndGlyphs" textLength="98" x="44.5" y="1056.8534">project-group</text><!--entity project-types--><rect fill="#FEFECE" filter="url(#f1k1dt3wlfljdp)" height="52.9766" style="stroke: #A80036; stroke-width: 1.5;" width="115" x="331" y="255.83"/><rect fill="#FEFECE" height="5" style="stroke: #A80036; stroke-width: 1.5;" width="10" x="326" y="260.83"/><rect fill="#FEFECE" height="5" style="stroke: #A80036; stroke-width: 1.5;" width="10" x="326" y="298.8066"/><text fill="#000000" font-family="sans-serif" font-size="14" font-style="italic" lengthAdjust="spacingAndGlyphs" textLength="95" x="341" y="279.3652">«project type»</text><text fill="#000000" font-family="sans-serif" font-size="14" lengthAdjust="spacingAndGlyphs" textLength="92" x="342.5" y="295.8534">project-types</text><!--entity template--><rect fill="#FEFECE" filter="url(#f1k1dt3wlfljdp)" height="52.9766" style="stroke: #A80036; stroke-width: 1.5;" width="115" x="596" y="858.83"/><rect fill="#FEFECE" height="5" style="stroke: #A80036; stroke-width: 1.5;" width="10" x="591" y="863.83"/><rect fill="#FEFECE" height="5" style="stroke: #A80036; stroke-width: 1.5;" width="10" x="591" y="901.8066"/><text fill="#000000" font-family="sans-serif" font-size="14" font-style="italic" lengthAdjust="spacingAndGlyphs" textLength="95" x="606" y="882.3652">«project type»</text><text fill="#000000" font-family="sans-serif" font-size="14" lengthAdjust="spacingAndGlyphs" textLength="60" x="623.5" y="898.8534">template</text><!--entity domain-model-plugin.project-template--><rect fill="#FEFECE" filter="url(#f1k1dt3wlfljdp)" height="36.4883" style="stroke: #A80036; stroke-width: 1.5;" width="295" x="241" y="96.33"/><rect fill="#FEFECE" height="5" style="stroke: #A80036; stroke-width: 1.5;" width="10" x="236" y="101.33"/><rect fill="#FEFECE" height="5" style="stroke: #A80036; stroke-width: 1.5;" width="10" x="236" y="122.8183"/><text fill="#000000" font-family="sans-serif" font-size="14" lengthAdjust="spacingAndGlyphs" textLength="275" x="251" y="119.8652">domain-model-plugin.project-template</text><!--entity metamodel-plugin--><rect fill="#FEFECE" filter="url(#f1k1dt3wlfljdp)" height="36.4883" style="stroke: #A80036; stroke-width: 1.5;" width="149" x="985" y="514.33"/><rect fill="#FEFECE" height="5" style="stroke: #A80036; stroke-width: 1.5;" width="10" x="980" y="519.33"/><rect fill="#FEFECE" height="5" style="stroke: #A80036; stroke-width: 1.5;" width="10" x="980" y="540.8183"/><text fill="#000000" font-family="sans-serif" font-size="14" lengthAdjust="spacingAndGlyphs" textLength="129" x="995" y="537.8652">metamodel-plugin</text><!--entity project.domain-model-plugin--><rect fill="#FEFECE" filter="url(#f1k1dt3wlfljdp)" height="36.4883" style="stroke: #A80036; stroke-width: 1.5;" width="227" x="946" y="585.33"/><rect fill="#FEFECE" height="5" style="stroke: #A80036; stroke-width: 1.5;" width="10" x="941" y="590.33"/><rect fill="#FEFECE" height="5" style="stroke: #A80036; stroke-width: 1.5;" width="10" x="941" y="611.8183"/><text fill="#000000" font-family="sans-serif" font-size="14" lengthAdjust="spacingAndGlyphs" textLength="207" x="956" y="608.8652">project.domain-model-plugin</text><!--entity common-model-plugin--><rect fill="#FEFECE" filter="url(#f1k1dt3wlfljdp)" height="36.4883" style="stroke: #A80036; stroke-width: 1.5;" width="183" x="968" y="656.33"/><rect fill="#FEFECE" height="5" style="stroke: #A80036; stroke-width: 1.5;" width="10" x="963" y="661.33"/><rect fill="#FEFECE" height="5" style="stroke: #A80036; stroke-width: 1.5;" width="10" x="963" y="682.8183"/><text fill="#000000" font-family="sans-serif" font-size="14" lengthAdjust="spacingAndGlyphs" textLength="163" x="978" y="679.8652">common-model-plugin</text><!--link domain-model-plugin to plugin--><path d="M181.22,90.65 C227.6,77.99 283.62,62.69 325.57,51.24 " fill="none" id="domain-model-plugin-plugin" style="stroke: #A80036; stroke-width: 1.0;"/><polygon fill="#A80036" points="330.62,49.86,320.8854,48.3641,325.7955,51.1732,322.9865,56.0833,330.62,49.86" style="stroke: #A80036; stroke-width: 1.0;"/><!--link domain-model to model--><path d="M450.2,203.82 C478.1,210.29 510.57,220.95 536,238.33 C580.89,269 616.44,322.32 635.96,356.17 " fill="none" id="domain-model-model" style="stroke: #A80036; stroke-width: 1.0;"/><polygon fill="#A80036" points="638.49,360.61,637.5151,350.8095,636.017,356.2644,630.5621,354.7663,638.49,360.61" style="stroke: #A80036; stroke-width: 1.0;"/><!--link model to generator--><path d="M676.06,414.25 C708.35,454.57 769.1,530.41 803.01,572.76 " fill="none" id="model-generator" style="stroke: #A80036; stroke-width: 1.0;"/><polygon fill="#A80036" points="806.21,576.75,803.6985,567.2268,803.0813,572.8498,797.4582,572.2327,806.21,576.75" style="stroke: #A80036; stroke-width: 1.0;"/><!--link plugin to generator--><path d="M446.17,41.91 C475.23,48.01 509.9,58.92 536,78.33 C711.9,209.15 795.51,479.27 819.76,571.59 " fill="none" id="plugin-generator" style="stroke: #A80036; stroke-width: 1.0;"/><polygon fill="#A80036" points="821.07,576.63,822.6803,566.9137,819.8137,571.7904,814.937,568.9238,821.07,576.63" style="stroke: #A80036; stroke-width: 1.0;"/><!--link project-group to generator--><path d="M125.72,1070 C153.79,1092.1 197.24,1121.84 241,1134.33 C367.08,1170.3 416.94,1189.24 536,1134.33 C739.59,1040.44 806.25,734.69 822.85,635.04 " fill="none" id="project-group-generator" style="stroke: #A80036; stroke-width: 1.0;"/><polygon fill="#A80036" points="823.69,629.89,818.2764,638.1176,822.875,634.8231,826.1694,639.4217,823.69,629.89" style="stroke: #A80036; stroke-width: 1.0;"/><!--link project-types to model--><path d="M446.24,304.98 C488.93,322.03 547.36,345.35 591.13,362.83 " fill="none" id="project-types-model" style="stroke: #A80036; stroke-width: 1.0;"/><polygon fill="#A80036" points="595.86,364.72,588.9706,357.6818,591.2127,362.8754,586.0192,365.1175,595.86,364.72" style="stroke: #A80036; stroke-width: 1.0;"/><!--link template to generator--><path d="M671.72,858.56 C682.99,840.94 697.99,817.34 711,796.33 C746.14,739.57 786.17,672.77 808.98,634.5 " fill="none" id="template-generator" style="stroke: #A80036; stroke-width: 1.0;"/><polygon fill="#A80036" points="811.67,629.98,803.6318,635.671,809.1143,634.2775,810.5078,639.76,811.67,629.98" style="stroke: #A80036; stroke-width: 1.0;"/><!--link common-model to domain-model--><path d="M319.91,472.43 C279.67,466.57 232.6,451.44 211,413.83 C176.03,352.94 176.03,316.72 211,255.83 C232.84,217.8 280.71,202.76 321.23,197.04 " fill="none" id="common-model-domain-model" style="stroke: #A80036; stroke-width: 1.0;"/><polygon fill="#A80036" points="326.65,196.33,317.2024,193.5474,321.6934,196.9871,318.2537,201.478,326.65,196.33" style="stroke: #A80036; stroke-width: 1.0;"/><!--link domain-model.project-template to template--><path d="M491.32,976.71 C506.55,971.59 521.87,965.79 536,959.33 C562.66,947.14 590.45,929.7 612.19,914.81 " fill="none" id="domain-model.project-template-template" style="stroke: #A80036; stroke-width: 1.0;"/><polygon fill="#A80036" points="616.46,911.87,606.7818,913.6954,612.3465,914.7123,611.3295,920.277,616.46,911.87" style="stroke: #A80036; stroke-width: 1.0;"/><!--link generator.project-template to template--><path d="M492.69,850.09 C525.88,857.41 561.6,865.28 590.84,871.73 " fill="none" id="generator.project-template-template" style="stroke: #A80036; stroke-width: 1.0;"/><polygon fill="#A80036" points="595.84,872.83,587.922,866.9729,590.9591,871.7453,586.1866,874.7824,595.84,872.83" style="stroke: #A80036; stroke-width: 1.0;"/><!--link metamodel to model--><path d="M437.13,387.33 C480.12,387.33 543.63,387.33 590.55,387.33 " fill="none" id="metamodel-model" style="stroke: #A80036; stroke-width: 1.0;"/><polygon fill="#A80036" points="595.62,387.33,586.62,383.33,590.62,387.33,586.62,391.33,595.62,387.33" style="stroke: #A80036; stroke-width: 1.0;"/><!--link model.project-template to template--><path d="M480.28,760 C499.31,766.12 518.81,773.81 536,783.33 C570.02,802.16 602.78,832.27 624.85,854.9 " fill="none" id="model.project-template-template" style="stroke: #A80036; stroke-width: 1.0;"/><polygon fill="#A80036" points="628.58,858.75,625.2122,849.4949,625.1093,855.1508,619.4534,855.0479,628.58,858.75" style="stroke: #A80036; stroke-width: 1.0;"/><!--link project-group.project-template to template--><path d="M507.54,901.87 C536.22,898.59 565.77,895.22 590.64,892.39 " fill="none" id="project-group.project-template-template" style="stroke: #A80036; stroke-width: 1.0;"/><polygon fill="#A80036" points="595.88,891.79,586.4811,888.847,590.9129,892.3626,587.3973,896.7943,595.88,891.79" style="stroke: #A80036; stroke-width: 1.0;"/><!--link project.domain-model to domain-model--><path d="M300.93,557.01 C265.77,549.37 229.27,533.65 211,501.83 C183.77,454.43 183.77,303.23 211,255.83 C232.84,217.8 280.71,202.76 321.23,197.04 " fill="none" id="project.domain-model-domain-model" style="stroke: #A80036; stroke-width: 1.0;"/><polygon fill="#A80036" points="326.65,196.33,317.2024,193.5474,321.6934,196.9871,318.2537,201.478,326.65,196.33" style="stroke: #A80036; stroke-width: 1.0;"/><!--link project.project-types to project-types--><path d="M306.08,646.08 C269.38,638.87 230.17,623.2 211,589.83 C185.76,545.89 185.76,405.76 211,361.83 C234.35,321.17 284.59,301.23 325.68,291.5 " fill="none" id="project.project-types-project-types" style="stroke: #A80036; stroke-width: 1.0;"/><polygon fill="#A80036" points="330.65,290.36,320.9847,288.4675,325.7759,291.4749,322.7685,296.2661,330.65,290.36" style="stroke: #A80036; stroke-width: 1.0;"/><!--link template.project-template to template--><path d="M488.61,1087.99 C505.33,1082.24 521.84,1074.43 536,1064.33 C588.58,1026.83 626.36,958.04 643.01,916.85 " fill="none" id="template.project-template-template" style="stroke: #A80036; stroke-width: 1.0;"/><polygon fill="#A80036" points="644.94,911.97,637.9202,918.8781,643.1078,916.6222,645.3637,921.8097,644.94,911.97" style="stroke: #A80036; stroke-width: 1.0;"/><!--link template to template.project-template--><path d="M633.2,911.88 C613.63,944.66 580,997.95 536,1029.33 C513.6,1045.3 485.34,1055.56 459.63,1063.29 " fill="none" id="template-template.project-template" style="stroke: #A80036; stroke-width: 1.0; stroke-dasharray: 7.0,7.0;"/><polygon fill="#A80036" points="454.53,1064.81,464.2981,1066.0686,459.3211,1063.3798,462.0098,1058.4028,454.53,1064.81" style="stroke: #A80036; stroke-width: 1.0;"/><!--link domain-model-plugin to metamodel--><path d="M106.69,141.12 C128.03,185.32 176.14,273.84 241,326.33 C268.43,348.53 305.09,363.78 334.87,373.49 " fill="none" id="domain-model-plugin-metamodel" style="stroke: #A80036; stroke-width: 1.0; stroke-dasharray: 7.0,7.0;"/><polygon fill="#A80036" points="339.97,375.12,332.6251,368.5585,335.2097,373.5904,330.1778,376.175,339.97,375.12" style="stroke: #A80036; stroke-width: 1.0;"/><!--link domain-model-plugin to domain-model-plugin.project-template--><path d="M181.22,114.33 C198.42,114.33 216.94,114.33 235.59,114.33 " fill="none" id="domain-model-plugin-domain-model-plugin.project-template" style="stroke: #A80036; stroke-width: 1.0; stroke-dasharray: 7.0,7.0;"/><polygon fill="#A80036" points="240.85,114.33,231.85,110.33,235.85,114.33,231.85,118.33,240.85,114.33" style="stroke: #A80036; stroke-width: 1.0;"/><!--link domain-model to metamodel--><path d="M326.65,196.33 C285.06,201.45 233.82,216.1 211,255.83 C199.27,276.26 199.27,288.4 211,308.83 C236.08,352.49 292.35,371.93 334.86,380.54 " fill="none" id="domain-model-metamodel" style="stroke: #A80036; stroke-width: 1.0; stroke-dasharray: 7.0,7.0;"/><polygon fill="#A80036" points="339.98,381.54,331.9138,375.8888,335.0727,380.5814,330.3801,383.7404,339.98,381.54" style="stroke: #A80036; stroke-width: 1.0;"/><!--link domain-model to domain-model.project-template--><path d="M326.65,196.33 C285.06,201.45 233.82,216.1 211,255.83 C173.04,321.93 173.04,875.73 211,941.83 C222.48,961.81 241.14,975.45 262.15,984.72 " fill="none" id="domain-model-domain-model.project-template" style="stroke: #A80036; stroke-width: 1.0; stroke-dasharray: 7.0,7.0;"/><polygon fill="#A80036" points="266.95,986.75,260.2075,979.5709,262.3418,984.8097,257.1031,986.944,266.95,986.75" style="stroke: #A80036; stroke-width: 1.0;"/><!--link generator to project.project-types--><path d="M770.88,609.54 C695.96,617.74 563.21,632.29 475.77,641.88 " fill="none" id="generator-project.project-types" style="stroke: #A80036; stroke-width: 1.0; stroke-dasharray: 7.0,7.0;"/><polygon fill="#A80036" points="470.6,642.44,479.981,645.4394,475.5705,641.8972,479.1126,637.4867,470.6,642.44" style="stroke: #A80036; stroke-width: 1.0;"/><!--link generator to project.domain-model--><path d="M770.74,598.15 C697.33,591.44 568.57,579.68 481.21,571.7 " fill="none" id="generator-project.domain-model" style="stroke: #A80036; stroke-width: 1.0; stroke-dasharray: 7.0,7.0;"/><polygon fill="#A80036" points="476.03,571.23,484.6272,576.0351,481.0091,571.6865,485.3576,568.0685,476.03,571.23" style="stroke: #A80036; stroke-width: 1.0;"/><!--link generator to common-model--><path d="M770.9,582.46 C751.95,575.73 730.66,568.44 711,562.33 C626.24,535.99 527.54,509.95 462.08,493.33 " fill="none" id="generator-common-model" style="stroke: #A80036; stroke-width: 1.0; stroke-dasharray: 7.0,7.0;"/><polygon fill="#A80036" points="457.04,492.05,464.7801,498.1403,461.8865,493.2795,466.7473,490.3859,457.04,492.05" style="stroke: #A80036; stroke-width: 1.0;"/><!--link generator to generator.project-template--><path d="M791.5,629.9 C738.09,668.28 633.65,739.43 536,783.33 C523.16,789.1 509.37,794.37 495.55,799.09 " fill="none" id="generator-generator.project-template" style="stroke: #A80036; stroke-width: 1.0; stroke-dasharray: 7.0,7.0;"/><polygon fill="#A80036" points="490.46,800.81,500.2664,801.7233,495.1977,799.2117,497.7092,794.143,490.46,800.81" style="stroke: #A80036; stroke-width: 1.0;"/><!--link generator to metamodel-plugin--><path d="M886.11,585.78 C919.18,575.52 961,562.56 995.17,551.96 " fill="none" id="generator-metamodel-plugin" style="stroke: #A80036; stroke-width: 1.0; stroke-dasharray: 7.0,7.0;"/><polygon fill="#A80036" points="1000.15,550.42,990.3677,549.2765,995.3761,551.9065,992.7461,556.9148,1000.15,550.42" style="stroke: #A80036; stroke-width: 1.0;"/><!--link generator to project.domain-model-plugin--><path d="M886.11,603.33 C902.69,603.33 921.48,603.33 940.39,603.33 " fill="none" id="generator-project.domain-model-plugin" style="stroke: #A80036; stroke-width: 1.0; stroke-dasharray: 7.0,7.0;"/><polygon fill="#A80036" points="945.73,603.33,936.73,599.33,940.73,603.33,936.73,607.33,945.73,603.33" style="stroke: #A80036; stroke-width: 1.0;"/><!--link generator to common-model-plugin--><path d="M886.11,620.88 C919.18,631.13 961,644.1 995.17,654.69 " fill="none" id="generator-common-model-plugin" style="stroke: #A80036; stroke-width: 1.0; stroke-dasharray: 7.0,7.0;"/><polygon fill="#A80036" points="1000.15,656.24,992.7461,649.7452,995.3761,654.7535,990.3677,657.3835,1000.15,656.24" style="stroke: #A80036; stroke-width: 1.0;"/><!--link model to model.project-template--><path d="M650.22,413.9 C643.69,473.23 619.62,617.35 536,695.33 C521.89,708.49 503.98,717.73 485.57,724.2 " fill="none" id="model-model.project-template" style="stroke: #A80036; stroke-width: 1.0; stroke-dasharray: 7.0,7.0;"/><polygon fill="#A80036" points="480.37,725.96,490.1764,726.8733,485.1077,724.3617,487.6192,719.293,480.37,725.96" style="stroke: #A80036; stroke-width: 1.0;"/><!--link project-group to project-group.project-template--><path d="M134.87,1016.82 C163.59,998.81 203.56,975.43 241,959.33 C254.37,953.58 268.73,948.27 283.04,943.49 " fill="none" id="project-group-project-group.project-template" style="stroke: #A80036; stroke-width: 1.0; stroke-dasharray: 7.0,7.0;"/><polygon fill="#A80036" points="287.89,941.88,278.0922,940.8782,283.1381,943.4354,280.5809,948.4813,287.89,941.88" style="stroke: #A80036; stroke-width: 1.0;"/><!--
@startuml
left to right direction

[domain-model-plugin] <<project type>>
[domain-model] <<project type>>
[generator] <<project type>>
[model] <<project type>>
[plugin] <<project type>>
[project-group] <<project type>>
[project-types] <<project type>>
[template] <<project type>>


[domain-model-plugin] - -> [plugin]
[domain-model] - -> [model]
[model] - -> [generator]
[plugin] - -> [generator]
[project-group] - -> [generator]
[project-types] - -> [model]
[template] - -> [generator]


package "laplacian" {
  [common-model] <<domain-model>>
  [common-model] - -> [domain-model]
  [domain-model.project-template] <<template>>
  [domain-model.project-template] - -> [template]
  [generator.project-template] <<template>>
  [generator.project-template] - -> [template]
  [metamodel] <<model>>
  [metamodel] - -> [model]
  [model.project-template] <<template>>
  [model.project-template] - -> [template]
  [project-group.project-template] <<template>>
  [project-group.project-template] - -> [template]
  [project.domain-model] <<domain-model>>
  [project.domain-model] - -> [domain-model]
  [project.project-types] <<project-types>>
  [project.project-types] - -> [project-types]
  [template.project-template] <<template>>
  [template.project-template] - -> [template]
}



  [domain-model-plugin] ..> [metamodel]
  [domain-model-plugin] ..> [domain-model-plugin.project-template]

  [domain-model] ..> [metamodel]
  [domain-model] ..> [domain-model.project-template]

  [generator] ..> [project.project-types]
  [generator] ..> [project.domain-model]
  [generator] ..> [common-model]
  [generator] ..> [generator.project-template]
  [generator] ..> [metamodel-plugin]
  [generator] ..> [project.domain-model-plugin]
  [generator] ..> [common-model-plugin]

  [model] ..> [model.project-template]


  [project-group] ..> [project-group.project-template]


  [template] ..> [template.project-template]


@enduml

PlantUML version 1.2019.05(Sun Apr 21 01:45:36 JST 2019)
(GPL source distribution)
Java Runtime: OpenJDK Runtime Environment
JVM: OpenJDK 64-Bit Server VM
Java Version: 11.0.7+10-LTS
Operating System: Mac OS X
OS Version: 10.15.6
Default Encoding: UTF-8
Language: en
Country: JP
--></g></svg>