<?xml version="1.0" encoding="UTF-8" standalone="no"?><svg xmlns="http://www.w3.org/2000/svg" xmlns:xlink="http://www.w3.org/1999/xlink" contentScriptType="application/ecmascript" contentStyleType="text/css" height="1910px" preserveAspectRatio="none" style="width:1354px;height:1910px;" version="1.1" viewBox="0 0 1354 1910" width="1354px" zoomAndPan="magnify"><defs><filter height="300%" id="f1mjnpyg1qx3cx" width="300%" x="-1" y="-1"><feGaussianBlur result="blurOut" stdDeviation="2.0"/><feColorMatrix in="blurOut" result="blurOut2" type="matrix" values="0 0 0 0 0 0 0 0 0 0 0 0 0 0 0 0 0 0 .4 0"/><feOffset dx="4.0" dy="4.0" in="blurOut2" result="blurOut3"/><feBlend in="SourceGraphic" in2="blurOut3" mode="normal"/></filter></defs><g><!--cluster laplacian--><polygon fill="#FFFFFF" filter="url(#f1mjnpyg1qx3cx)" points="225,202,295,202,302,224.4883,552,224.4883,552,1011,225,1011,225,202" style="stroke: #000000; stroke-width: 1.5;"/><line style="stroke: #000000; stroke-width: 1.5;" x1="225" x2="302" y1="224.4883" y2="224.4883"/><text fill="#000000" font-family="sans-serif" font-size="14" font-weight="bold" lengthAdjust="spacingAndGlyphs" textLength="64" x="229" y="217.5352">laplacian</text><!--entity common-model--><rect fill="#FEFECE" filter="url(#f1mjnpyg1qx3cx)" height="52.9766" style="stroke: #A80036; stroke-width: 1.5;" width="137" x="320" y="765.5"/><rect fill="#FEFECE" height="5" style="stroke: #A80036; stroke-width: 1.5;" width="10" x="315" y="770.5"/><rect fill="#FEFECE" height="5" style="stroke: #A80036; stroke-width: 1.5;" width="10" x="315" y="808.4766"/><text fill="#000000" font-family="sans-serif" font-size="14" font-style="italic" lengthAdjust="spacingAndGlyphs" textLength="117" x="330" y="789.0352">«domain-model»</text><text fill="#000000" font-family="sans-serif" font-size="14" lengthAdjust="spacingAndGlyphs" textLength="111" x="333" y="805.5234">common-model</text><!--entity domain-model-plugin.project-template--><rect fill="#FEFECE" filter="url(#f1mjnpyg1qx3cx)" height="52.9766" style="stroke: #A80036; stroke-width: 1.5;" width="295" x="241" y="501.5"/><rect fill="#FEFECE" height="5" style="stroke: #A80036; stroke-width: 1.5;" width="10" x="236" y="506.5"/><rect fill="#FEFECE" height="5" style="stroke: #A80036; stroke-width: 1.5;" width="10" x="236" y="544.4766"/><text fill="#000000" font-family="sans-serif" font-size="14" font-style="italic" lengthAdjust="spacingAndGlyphs" textLength="74" x="351.5" y="525.0352">«template»</text><text fill="#000000" font-family="sans-serif" font-size="14" lengthAdjust="spacingAndGlyphs" textLength="275" x="251" y="541.5234">domain-model-plugin.project-template</text><!--entity domain-model.project-template--><rect fill="#FEFECE" filter="url(#f1mjnpyg1qx3cx)" height="52.9766" style="stroke: #A80036; stroke-width: 1.5;" width="243" x="267" y="413.5"/><rect fill="#FEFECE" height="5" style="stroke: #A80036; stroke-width: 1.5;" width="10" x="262" y="418.5"/><rect fill="#FEFECE" height="5" style="stroke: #A80036; stroke-width: 1.5;" width="10" x="262" y="456.4766"/><text fill="#000000" font-family="sans-serif" font-size="14" font-style="italic" lengthAdjust="spacingAndGlyphs" textLength="74" x="351.5" y="437.0352">«template»</text><text fill="#000000" font-family="sans-serif" font-size="14" lengthAdjust="spacingAndGlyphs" textLength="223" x="277" y="453.5234">domain-model.project-template</text><!--entity generator.model-validator-template--><rect fill="#FEFECE" filter="url(#f1mjnpyg1qx3cx)" height="52.9766" style="stroke: #A80036; stroke-width: 1.5;" width="271" x="253" y="325.5"/><rect fill="#FEFECE" height="5" style="stroke: #A80036; stroke-width: 1.5;" width="10" x="248" y="330.5"/><rect fill="#FEFECE" height="5" style="stroke: #A80036; stroke-width: 1.5;" width="10" x="248" y="368.4766"/><text fill="#000000" font-family="sans-serif" font-size="14" font-style="italic" lengthAdjust="spacingAndGlyphs" textLength="74" x="351.5" y="349.0352">«template»</text><text fill="#000000" font-family="sans-serif" font-size="14" lengthAdjust="spacingAndGlyphs" textLength="251" x="263" y="365.5234">generator.model-validator-template</text><!--entity generator.project-template--><rect fill="#FEFECE" filter="url(#f1mjnpyg1qx3cx)" height="52.9766" style="stroke: #A80036; stroke-width: 1.5;" width="208" x="284.5" y="237.5"/><rect fill="#FEFECE" height="5" style="stroke: #A80036; stroke-width: 1.5;" width="10" x="279.5" y="242.5"/><rect fill="#FEFECE" height="5" style="stroke: #A80036; stroke-width: 1.5;" width="10" x="279.5" y="280.4766"/><text fill="#000000" font-family="sans-serif" font-size="14" font-style="italic" lengthAdjust="spacingAndGlyphs" textLength="74" x="351.5" y="261.0352">«template»</text><text fill="#000000" font-family="sans-serif" font-size="14" lengthAdjust="spacingAndGlyphs" textLength="188" x="294.5" y="277.5234">generator.project-template</text><!--entity metamodel--><rect fill="#FEFECE" filter="url(#f1mjnpyg1qx3cx)" height="52.9766" style="stroke: #A80036; stroke-width: 1.5;" width="137" x="320" y="941.5"/><rect fill="#FEFECE" height="5" style="stroke: #A80036; stroke-width: 1.5;" width="10" x="315" y="946.5"/><rect fill="#FEFECE" height="5" style="stroke: #A80036; stroke-width: 1.5;" width="10" x="315" y="984.4766"/><text fill="#000000" font-family="sans-serif" font-size="14" font-style="italic" lengthAdjust="spacingAndGlyphs" textLength="117" x="330" y="965.0352">«domain-model»</text><text fill="#000000" font-family="sans-serif" font-size="14" lengthAdjust="spacingAndGlyphs" textLength="77" x="350" y="981.5234">metamodel</text><!--entity project-group.project-template--><rect fill="#FEFECE" filter="url(#f1mjnpyg1qx3cx)" height="52.9766" style="stroke: #A80036; stroke-width: 1.5;" width="238" x="269.5" y="853.5"/><rect fill="#FEFECE" height="5" style="stroke: #A80036; stroke-width: 1.5;" width="10" x="264.5" y="858.5"/><rect fill="#FEFECE" height="5" style="stroke: #A80036; stroke-width: 1.5;" width="10" x="264.5" y="896.4766"/><text fill="#000000" font-family="sans-serif" font-size="14" font-style="italic" lengthAdjust="spacingAndGlyphs" textLength="112" x="332.5" y="877.0352">«project-group»</text><text fill="#000000" font-family="sans-serif" font-size="14" lengthAdjust="spacingAndGlyphs" textLength="218" x="279.5" y="893.5234">project-group.project-template</text><!--entity project.domain-model--><rect fill="#FEFECE" filter="url(#f1mjnpyg1qx3cx)" height="52.9766" style="stroke: #A80036; stroke-width: 1.5;" width="175" x="301" y="677.5"/><rect fill="#FEFECE" height="5" style="stroke: #A80036; stroke-width: 1.5;" width="10" x="296" y="682.5"/><rect fill="#FEFECE" height="5" style="stroke: #A80036; stroke-width: 1.5;" width="10" x="296" y="720.4766"/><text fill="#000000" font-family="sans-serif" font-size="14" font-style="italic" lengthAdjust="spacingAndGlyphs" textLength="117" x="330" y="701.0352">«domain-model»</text><text fill="#000000" font-family="sans-serif" font-size="14" lengthAdjust="spacingAndGlyphs" textLength="155" x="311" y="717.5234">project.domain-model</text><!--entity project.project-types--><rect fill="#FEFECE" filter="url(#f1mjnpyg1qx3cx)" height="52.9766" style="stroke: #A80036; stroke-width: 1.5;" width="164" x="306.5" y="589.5"/><rect fill="#FEFECE" height="5" style="stroke: #A80036; stroke-width: 1.5;" width="10" x="301.5" y="594.5"/><rect fill="#FEFECE" height="5" style="stroke: #A80036; stroke-width: 1.5;" width="10" x="301.5" y="632.4766"/><text fill="#000000" font-family="sans-serif" font-size="14" font-style="italic" lengthAdjust="spacingAndGlyphs" textLength="57" x="360" y="613.0352">«model»</text><text fill="#000000" font-family="sans-serif" font-size="14" lengthAdjust="spacingAndGlyphs" textLength="144" x="316.5" y="629.5234">project.project-types</text><!--entity arch-model--><rect fill="#FEFECE" filter="url(#f1mjnpyg1qx3cx)" height="52.9766" style="stroke: #A80036; stroke-width: 1.5;" width="115" x="331" y="1633.5"/><rect fill="#FEFECE" height="5" style="stroke: #A80036; stroke-width: 1.5;" width="10" x="326" y="1638.5"/><rect fill="#FEFECE" height="5" style="stroke: #A80036; stroke-width: 1.5;" width="10" x="326" y="1676.4766"/><text fill="#000000" font-family="sans-serif" font-size="14" font-style="italic" lengthAdjust="spacingAndGlyphs" textLength="95" x="341" y="1657.0352">«project type»</text><text fill="#000000" font-family="sans-serif" font-size="14" lengthAdjust="spacingAndGlyphs" textLength="81" x="348" y="1673.5234">arch-model</text><!--entity domain-model-plugin--><rect fill="#FEFECE" filter="url(#f1mjnpyg1qx3cx)" height="52.9766" style="stroke: #A80036; stroke-width: 1.5;" width="175" x="6" y="633.5"/><rect fill="#FEFECE" height="5" style="stroke: #A80036; stroke-width: 1.5;" width="10" x="1" y="638.5"/><rect fill="#FEFECE" height="5" style="stroke: #A80036; stroke-width: 1.5;" width="10" x="1" y="676.4766"/><text fill="#000000" font-family="sans-serif" font-size="14" font-style="italic" lengthAdjust="spacingAndGlyphs" textLength="95" x="46" y="657.0352">«project type»</text><text fill="#000000" font-family="sans-serif" font-size="14" lengthAdjust="spacingAndGlyphs" textLength="155" x="16" y="673.5234">domain-model-plugin</text><!--entity domain-model--><rect fill="#FEFECE" filter="url(#f1mjnpyg1qx3cx)" height="52.9766" style="stroke: #A80036; stroke-width: 1.5;" width="123" x="327" y="1314.5"/><rect fill="#FEFECE" height="5" style="stroke: #A80036; stroke-width: 1.5;" width="10" x="322" y="1319.5"/><rect fill="#FEFECE" height="5" style="stroke: #A80036; stroke-width: 1.5;" width="10" x="322" y="1357.4766"/><text fill="#000000" font-family="sans-serif" font-size="14" font-style="italic" lengthAdjust="spacingAndGlyphs" textLength="95" x="341" y="1338.0352">«project type»</text><text fill="#000000" font-family="sans-serif" font-size="14" lengthAdjust="spacingAndGlyphs" textLength="103" x="337" y="1354.5234">domain-model</text><!--entity generator--><rect fill="#FEFECE" filter="url(#f1mjnpyg1qx3cx)" height="52.9766" style="stroke: #A80036; stroke-width: 1.5;" width="115" x="941" y="389.5"/><rect fill="#FEFECE" height="5" style="stroke: #A80036; stroke-width: 1.5;" width="10" x="936" y="394.5"/><rect fill="#FEFECE" height="5" style="stroke: #A80036; stroke-width: 1.5;" width="10" x="936" y="432.4766"/><text fill="#000000" font-family="sans-serif" font-size="14" font-style="italic" lengthAdjust="spacingAndGlyphs" textLength="95" x="951" y="413.0352">«project type»</text><text fill="#000000" font-family="sans-serif" font-size="14" lengthAdjust="spacingAndGlyphs" textLength="68" x="964.5" y="429.5234">generator</text><!--entity model--><rect fill="#FEFECE" filter="url(#f1mjnpyg1qx3cx)" height="52.9766" style="stroke: #A80036; stroke-width: 1.5;" width="115" x="681" y="1358.5"/><rect fill="#FEFECE" height="5" style="stroke: #A80036; stroke-width: 1.5;" width="10" x="676" y="1363.5"/><rect fill="#FEFECE" height="5" style="stroke: #A80036; stroke-width: 1.5;" width="10" x="676" y="1401.4766"/><text fill="#000000" font-family="sans-serif" font-size="14" font-style="italic" lengthAdjust="spacingAndGlyphs" textLength="95" x="691" y="1382.0352">«project type»</text><text fill="#000000" font-family="sans-serif" font-size="14" lengthAdjust="spacingAndGlyphs" textLength="43" x="717" y="1398.5234">model</text><!--entity plugin--><rect fill="#FEFECE" filter="url(#f1mjnpyg1qx3cx)" height="52.9766" style="stroke: #A80036; stroke-width: 1.5;" width="115" x="331" y="132.5"/><rect fill="#FEFECE" height="5" style="stroke: #A80036; stroke-width: 1.5;" width="10" x="326" y="137.5"/><rect fill="#FEFECE" height="5" style="stroke: #A80036; stroke-width: 1.5;" width="10" x="326" y="175.4766"/><text fill="#000000" font-family="sans-serif" font-size="14" font-style="italic" lengthAdjust="spacingAndGlyphs" textLength="95" x="341" y="156.0352">«project type»</text><text fill="#000000" font-family="sans-serif" font-size="14" lengthAdjust="spacingAndGlyphs" textLength="44" x="366.5" y="172.5234">plugin</text><!--entity project-group--><rect fill="#FEFECE" filter="url(#f1mjnpyg1qx3cx)" height="52.9766" style="stroke: #A80036; stroke-width: 1.5;" width="118" x="329.5" y="1402.5"/><rect fill="#FEFECE" height="5" style="stroke: #A80036; stroke-width: 1.5;" width="10" x="324.5" y="1407.5"/><rect fill="#FEFECE" height="5" style="stroke: #A80036; stroke-width: 1.5;" width="10" x="324.5" y="1445.4766"/><text fill="#000000" font-family="sans-serif" font-size="14" font-style="italic" lengthAdjust="spacingAndGlyphs" textLength="95" x="341" y="1426.0352">«project type»</text><text fill="#000000" font-family="sans-serif" font-size="14" lengthAdjust="spacingAndGlyphs" textLength="98" x="339.5" y="1442.5234">project-group</text><!--entity schema-model--><rect fill="#FEFECE" filter="url(#f1mjnpyg1qx3cx)" height="52.9766" style="stroke: #A80036; stroke-width: 1.5;" width="123" x="32" y="1358.5"/><rect fill="#FEFECE" height="5" style="stroke: #A80036; stroke-width: 1.5;" width="10" x="27" y="1363.5"/><rect fill="#FEFECE" height="5" style="stroke: #A80036; stroke-width: 1.5;" width="10" x="27" y="1401.4766"/><text fill="#000000" font-family="sans-serif" font-size="14" font-style="italic" lengthAdjust="spacingAndGlyphs" textLength="95" x="46" y="1382.0352">«project type»</text><text fill="#000000" font-family="sans-serif" font-size="14" lengthAdjust="spacingAndGlyphs" textLength="103" x="42" y="1398.5234">schema-model</text><!--entity schema-plugin--><rect fill="#FEFECE" filter="url(#f1mjnpyg1qx3cx)" height="52.9766" style="stroke: #A80036; stroke-width: 1.5;" width="124" x="31.5" y="1017.5"/><rect fill="#FEFECE" height="5" style="stroke: #A80036; stroke-width: 1.5;" width="10" x="26.5" y="1022.5"/><rect fill="#FEFECE" height="5" style="stroke: #A80036; stroke-width: 1.5;" width="10" x="26.5" y="1060.4766"/><text fill="#000000" font-family="sans-serif" font-size="14" font-style="italic" lengthAdjust="spacingAndGlyphs" textLength="95" x="46" y="1041.0352">«project type»</text><text fill="#000000" font-family="sans-serif" font-size="14" lengthAdjust="spacingAndGlyphs" textLength="104" x="41.5" y="1057.5234">schema-plugin</text><!--entity service-generator--><rect fill="#FEFECE" filter="url(#f1mjnpyg1qx3cx)" height="52.9766" style="stroke: #A80036; stroke-width: 1.5;" width="143" x="317" y="1721.5"/><rect fill="#FEFECE" height="5" style="stroke: #A80036; stroke-width: 1.5;" width="10" x="312" y="1726.5"/><rect fill="#FEFECE" height="5" style="stroke: #A80036; stroke-width: 1.5;" width="10" x="312" y="1764.4766"/><text fill="#000000" font-family="sans-serif" font-size="14" font-style="italic" lengthAdjust="spacingAndGlyphs" textLength="95" x="341" y="1745.0352">«project type»</text><text fill="#000000" font-family="sans-serif" font-size="14" lengthAdjust="spacingAndGlyphs" textLength="123" x="327" y="1761.5234">service-generator</text><!--entity template--><rect fill="#FEFECE" filter="url(#f1mjnpyg1qx3cx)" height="52.9766" style="stroke: #A80036; stroke-width: 1.5;" width="115" x="681" y="389.5"/><rect fill="#FEFECE" height="5" style="stroke: #A80036; stroke-width: 1.5;" width="10" x="676" y="394.5"/><rect fill="#FEFECE" height="5" style="stroke: #A80036; stroke-width: 1.5;" width="10" x="676" y="432.4766"/><text fill="#000000" font-family="sans-serif" font-size="14" font-style="italic" lengthAdjust="spacingAndGlyphs" textLength="95" x="691" y="413.0352">«project type»</text><text fill="#000000" font-family="sans-serif" font-size="14" lengthAdjust="spacingAndGlyphs" textLength="60" x="708.5" y="429.5234">template</text><!--entity datasource.schema-plugin--><rect fill="#FEFECE" filter="url(#f1mjnpyg1qx3cx)" height="36.4883" style="stroke: #A80036; stroke-width: 1.5;" width="204" x="636.5" y="1579"/><rect fill="#FEFECE" height="5" style="stroke: #A80036; stroke-width: 1.5;" width="10" x="631.5" y="1584"/><rect fill="#FEFECE" height="5" style="stroke: #A80036; stroke-width: 1.5;" width="10" x="631.5" y="1605.4883"/><text fill="#000000" font-family="sans-serif" font-size="14" lengthAdjust="spacingAndGlyphs" textLength="184" x="646.5" y="1602.5352">datasource.schema-plugin</text><!--entity service-api.schema-plugin--><rect fill="#FEFECE" filter="url(#f1mjnpyg1qx3cx)" height="36.4883" style="stroke: #A80036; stroke-width: 1.5;" width="204" x="636.5" y="1650"/><rect fill="#FEFECE" height="5" style="stroke: #A80036; stroke-width: 1.5;" width="10" x="631.5" y="1655"/><rect fill="#FEFECE" height="5" style="stroke: #A80036; stroke-width: 1.5;" width="10" x="631.5" y="1676.4883"/><text fill="#000000" font-family="sans-serif" font-size="14" lengthAdjust="spacingAndGlyphs" textLength="184" x="646.5" y="1673.5352">service-api.schema-plugin</text><!--entity metamodel-plugin--><rect fill="#FEFECE" filter="url(#f1mjnpyg1qx3cx)" height="36.4883" style="stroke: #A80036; stroke-width: 1.5;" width="149" x="664" y="1243"/><rect fill="#FEFECE" height="5" style="stroke: #A80036; stroke-width: 1.5;" width="10" x="659" y="1248"/><rect fill="#FEFECE" height="5" style="stroke: #A80036; stroke-width: 1.5;" width="10" x="659" y="1269.4883"/><text fill="#000000" font-family="sans-serif" font-size="14" lengthAdjust="spacingAndGlyphs" textLength="129" x="674" y="1266.5352">metamodel-plugin</text><!--entity common-model-plugin--><rect fill="#FEFECE" filter="url(#f1mjnpyg1qx3cx)" height="36.4883" style="stroke: #A80036; stroke-width: 1.5;" width="183" x="1138" y="182"/><rect fill="#FEFECE" height="5" style="stroke: #A80036; stroke-width: 1.5;" width="10" x="1133" y="187"/><rect fill="#FEFECE" height="5" style="stroke: #A80036; stroke-width: 1.5;" width="10" x="1133" y="208.4883"/><text fill="#000000" font-family="sans-serif" font-size="14" lengthAdjust="spacingAndGlyphs" textLength="163" x="1148" y="205.5352">common-model-plugin</text><!--entity project.domain-model-plugin--><rect fill="#FEFECE" filter="url(#f1mjnpyg1qx3cx)" height="36.4883" style="stroke: #A80036; stroke-width: 1.5;" width="227" x="1116" y="398"/><rect fill="#FEFECE" height="5" style="stroke: #A80036; stroke-width: 1.5;" width="10" x="1111" y="403"/><rect fill="#FEFECE" height="5" style="stroke: #A80036; stroke-width: 1.5;" width="10" x="1111" y="424.4883"/><text fill="#000000" font-family="sans-serif" font-size="14" lengthAdjust="spacingAndGlyphs" textLength="207" x="1126" y="421.5352">project.domain-model-plugin</text><!--entity schema.document-template--><rect fill="#FEFECE" filter="url(#f1mjnpyg1qx3cx)" height="36.4883" style="stroke: #A80036; stroke-width: 1.5;" width="213" x="282" y="1491"/><rect fill="#FEFECE" height="5" style="stroke: #A80036; stroke-width: 1.5;" width="10" x="277" y="1496"/><rect fill="#FEFECE" height="5" style="stroke: #A80036; stroke-width: 1.5;" width="10" x="277" y="1517.4883"/><text fill="#000000" font-family="sans-serif" font-size="14" lengthAdjust="spacingAndGlyphs" textLength="193" x="292" y="1514.5352">schema.document-template</text><!--entity schema.plugin-template--><rect fill="#FEFECE" filter="url(#f1mjnpyg1qx3cx)" height="36.4883" style="stroke: #A80036; stroke-width: 1.5;" width="188" x="294.5" y="1172"/><rect fill="#FEFECE" height="5" style="stroke: #A80036; stroke-width: 1.5;" width="10" x="289.5" y="1177"/><rect fill="#FEFECE" height="5" style="stroke: #A80036; stroke-width: 1.5;" width="10" x="289.5" y="1198.4883"/><text fill="#000000" font-family="sans-serif" font-size="14" lengthAdjust="spacingAndGlyphs" textLength="168" x="304.5" y="1195.5352">schema.plugin-template</text><!--entity datasource.flyway-migration-template--><rect fill="#FEFECE" filter="url(#f1mjnpyg1qx3cx)" height="36.4883" style="stroke: #A80036; stroke-width: 1.5;" width="285" x="596" y="1792"/><rect fill="#FEFECE" height="5" style="stroke: #A80036; stroke-width: 1.5;" width="10" x="591" y="1797"/><rect fill="#FEFECE" height="5" style="stroke: #A80036; stroke-width: 1.5;" width="10" x="591" y="1818.4883"/><text fill="#000000" font-family="sans-serif" font-size="14" lengthAdjust="spacingAndGlyphs" textLength="265" x="606" y="1815.5352">datasource.flyway-migration-template</text><!--entity service-api.springboot2-template--><rect fill="#FEFECE" filter="url(#f1mjnpyg1qx3cx)" height="36.4883" style="stroke: #A80036; stroke-width: 1.5;" width="253" x="612" y="1863"/><rect fill="#FEFECE" height="5" style="stroke: #A80036; stroke-width: 1.5;" width="10" x="607" y="1868"/><rect fill="#FEFECE" height="5" style="stroke: #A80036; stroke-width: 1.5;" width="10" x="607" y="1889.4883"/><text fill="#000000" font-family="sans-serif" font-size="14" lengthAdjust="spacingAndGlyphs" textLength="233" x="622" y="1886.5352">service-api.springboot2-template</text><!--link arch-model to model--><path d="M446.16,1650.74 C481.24,1643 525.93,1629.33 560,1606 C562.48,1604.3 664.49,1476.56 712.72,1416.08 " fill="none" id="arch-model-model" style="stroke: #A80036; stroke-width: 1.0;"/><polygon fill="#A80036" points="716.1,1411.85,707.3664,1416.4024,712.987,1415.7627,713.6267,1421.3833,716.1,1411.85" style="stroke: #A80036; stroke-width: 1.0;"/><!--link domain-model-plugin to plugin--><path d="M94.01,633.31 C94.09,558.15 104.63,342.33 217,221 C245.05,190.71 289.06,175.19 325.35,167.25 " fill="none" id="domain-model-plugin-plugin" style="stroke: #A80036; stroke-width: 1.0;"/><polygon fill="#A80036" points="330.64,166.13,321.0102,164.0642,325.7466,167.1572,322.6537,171.8936,330.64,166.13" style="stroke: #A80036; stroke-width: 1.0;"/><!--link domain-model to model--><path d="M450.12,1348.66 C513.29,1356.65 611.77,1369.1 675.46,1377.16 " fill="none" id="domain-model-model" style="stroke: #A80036; stroke-width: 1.0;"/><polygon fill="#A80036" points="680.75,1377.82,672.3247,1372.7196,675.7897,1377.191,671.3183,1380.6561,680.75,1377.82" style="stroke: #A80036; stroke-width: 1.0;"/><!--link model to generator--><path d="M796.26,1363.83 C826.38,1349.6 861.16,1327.75 881,1297 C974.52,1152.04 993.55,588.08 996.87,447.75 " fill="none" id="model-generator" style="stroke: #A80036; stroke-width: 1.0;"/><polygon fill="#A80036" points="996.99,442.55,992.7854,451.4562,996.8757,447.5487,1000.7833,451.6391,996.99,442.55" style="stroke: #A80036; stroke-width: 1.0;"/><!--link plugin to generator--><path d="M446.06,168.48 C540.87,186.09 735.77,229.76 881,312 C915.49,331.53 948.57,362.67 970.62,385.79 " fill="none" id="plugin-generator" style="stroke: #A80036; stroke-width: 1.0;"/><polygon fill="#A80036" points="974.06,389.42,970.7863,380.1311,970.626,385.7857,964.9715,385.6255,974.06,389.42" style="stroke: #A80036; stroke-width: 1.0;"/><!--link project-group to model--><path d="M447.75,1421.64 C510.92,1413.65 611.35,1400.95 675.83,1392.8 " fill="none" id="project-group-model" style="stroke: #A80036; stroke-width: 1.0;"/><polygon fill="#A80036" points="680.8,1392.17,671.3683,1389.3339,675.8397,1392.799,672.3747,1397.2704,680.8,1392.17" style="stroke: #A80036; stroke-width: 1.0;"/><!--link schema-model to model--><path d="M105.55,1411.56 C122.91,1449.34 160.54,1517.12 217,1545 C353.69,1612.5 417.7,1599.67 560,1545 C627.45,1519.09 685.27,1454.38 715.35,1415.66 " fill="none" id="schema-model-model" style="stroke: #A80036; stroke-width: 1.0;"/><polygon fill="#A80036" points="718.53,1411.53,709.8811,1416.2413,715.489,1415.499,716.2314,1421.1069,718.53,1411.53" style="stroke: #A80036; stroke-width: 1.0;"/><!--link schema-plugin to plugin--><path d="M102.95,1017.45 C120.66,960.62 161.63,822.72 181,704 C189.67,650.89 184.51,263.9 217,221 C242.48,187.36 287.99,171.95 325.59,164.9 " fill="none" id="schema-plugin-plugin" style="stroke: #A80036; stroke-width: 1.0;"/><polygon fill="#A80036" points="330.6,164,321.0344,161.655,325.6788,164.8844,322.4494,169.5288,330.6,164" style="stroke: #A80036; stroke-width: 1.0;"/><!--link service-generator to generator--><path d="M460.14,1752.25 C581.85,1757.92 823.58,1761.37 881,1704 C972.76,1612.32 993.79,636.65 997.01,447.62 " fill="none" id="service-generator-generator" style="stroke: #A80036; stroke-width: 1.0;"/><polygon fill="#A80036" points="997.1,442.52,992.9718,451.4619,997.0286,447.5195,1000.971,451.5762,997.1,442.52" style="stroke: #A80036; stroke-width: 1.0;"/><!--link template to generator--><path d="M796.12,416 C837.31,416 893.07,416 935.47,416 " fill="none" id="template-generator" style="stroke: #A80036; stroke-width: 1.0;"/><polygon fill="#A80036" points="940.57,416,931.57,412,935.57,416,931.57,420,940.57,416" style="stroke: #A80036; stroke-width: 1.0;"/><!--link common-model to domain-model--><path d="M319.63,790.88 C273.54,794.48 217.98,808.58 199,853.5 C183.65,889.83 183.65,1172.17 199,1208.5 C221.13,1260.88 276.78,1295.85 322.08,1316.65 " fill="none" id="common-model-domain-model" style="stroke: #A80036; stroke-width: 1.0;"/><polygon fill="#A80036" points="326.71,1318.75,320.1719,1311.3843,322.1582,1316.681,316.8615,1318.6672,326.71,1318.75" style="stroke: #A80036; stroke-width: 1.0;"/><!--link domain-model to common-model--><path d="M326.71,1318.75 C280.64,1298.24 221.89,1262.67 199,1208.5 C183.65,1172.17 183.65,889.83 199,853.5 C217.28,810.24 269.47,795.57 314.46,791.33 " fill="none" id="domain-model-common-model" style="stroke: #A80036; stroke-width: 1.0; stroke-dasharray: 7.0,7.0;"/><polygon fill="#A80036" points="319.63,790.88,310.3205,787.6655,314.6484,791.3082,311.0056,795.6361,319.63,790.88" style="stroke: #A80036; stroke-width: 1.0;"/><!--link domain-model-plugin.project-template to template--><path d="M500.08,501.41 C520.14,496.04 540.78,490.14 560,484 C599.1,471.51 642.11,455.1 675.99,441.54 " fill="none" id="domain-model-plugin.project-template-template" style="stroke: #A80036; stroke-width: 1.0;"/><polygon fill="#A80036" points="680.93,439.56,671.0872,439.2147,676.2926,441.4292,674.078,446.6346,680.93,439.56" style="stroke: #A80036; stroke-width: 1.0;"/><!--link domain-model.project-template to template--><path d="M510.24,431.67 C566,427.83 629.84,423.42 675.63,420.27 " fill="none" id="domain-model.project-template-template" style="stroke: #A80036; stroke-width: 1.0;"/><polygon fill="#A80036" points="680.84,419.91,671.5868,416.5369,675.8518,420.253,672.1356,424.518,680.84,419.91" style="stroke: #A80036; stroke-width: 1.0;"/><!--link generator.model-validator-template to template--><path d="M524.05,376.74 C576.43,386.38 633.84,396.94 675.92,404.68 " fill="none" id="generator.model-validator-template-template" style="stroke: #A80036; stroke-width: 1.0;"/><polygon fill="#A80036" points="680.98,405.6,672.8478,400.0441,676.0618,404.6993,671.4067,407.9133,680.98,405.6" style="stroke: #A80036; stroke-width: 1.0;"/><!--link generator.project-template to template--><path d="M492.73,282.83 C515.59,289.11 539.19,297.33 560,308 C578.53,317.5 578.8,326.25 596,338 C622.28,355.95 653.05,373.31 679.17,387.07 " fill="none" id="generator.project-template-template" style="stroke: #A80036; stroke-width: 1.0;"/><polygon fill="#A80036" points="683.66,389.42,677.5361,381.7065,679.2286,387.1042,673.8309,388.7967,683.66,389.42" style="stroke: #A80036; stroke-width: 1.0;"/><!--link metamodel to domain-model--><path d="M319.82,970.67 C273.82,976.78 218.3,993.83 199,1039.5 C184.38,1074.09 184.38,1173.91 199,1208.5 C221.13,1260.88 276.78,1295.85 322.08,1316.65 " fill="none" id="metamodel-domain-model" style="stroke: #A80036; stroke-width: 1.0;"/><polygon fill="#A80036" points="326.71,1318.75,320.1719,1311.3843,322.1582,1316.681,316.8615,1318.6672,326.71,1318.75" style="stroke: #A80036; stroke-width: 1.0;"/><!--link domain-model to metamodel--><path d="M326.71,1318.75 C280.64,1298.24 221.89,1262.67 199,1208.5 C184.38,1173.91 184.38,1074.09 199,1039.5 C217.58,995.52 269.75,978.08 314.66,971.4 " fill="none" id="domain-model-metamodel" style="stroke: #A80036; stroke-width: 1.0; stroke-dasharray: 7.0,7.0;"/><polygon fill="#A80036" points="319.82,970.67,310.348,967.9715,314.8694,971.3711,311.4698,975.8925,319.82,970.67" style="stroke: #A80036; stroke-width: 1.0;"/><!--link project-group.project-template to project-group--><path d="M269.33,887.51 C238.89,896.27 211.28,912.43 199,941.5 C180.58,985.1 180.58,1323.9 199,1367.5 C218.61,1413.92 277.28,1427.42 324.19,1430.44 " fill="none" id="project-group.project-template-project-group" style="stroke: #A80036; stroke-width: 1.0;"/><polygon fill="#A80036" points="329.27,1430.73,320.5136,1426.2216,324.2782,1430.4439,320.0559,1434.2085,329.27,1430.73" style="stroke: #A80036; stroke-width: 1.0;"/><!--link project-group to project-group.project-template--><path d="M329.27,1430.73 C281.6,1428.36 219.33,1415.61 199,1367.5 C180.58,1323.9 180.58,985.1 199,941.5 C210.61,914.02 235.91,898.07 264.36,889.01 " fill="none" id="project-group-project-group.project-template" style="stroke: #A80036; stroke-width: 1.0; stroke-dasharray: 7.0,7.0;"/><polygon fill="#A80036" points="269.33,887.51,259.5585,886.2782,264.5428,888.9533,261.8677,893.9377,269.33,887.51" style="stroke: #A80036; stroke-width: 1.0;"/><!--link project.domain-model to domain-model--><path d="M300.85,704.92 C259.41,710.77 215.46,726.55 199,765.5 C179.84,810.84 179.84,1163.16 199,1208.5 C221.13,1260.88 276.78,1295.85 322.08,1316.65 " fill="none" id="project.domain-model-domain-model" style="stroke: #A80036; stroke-width: 1.0;"/><polygon fill="#A80036" points="326.71,1318.75,320.1719,1311.3843,322.1582,1316.681,316.8615,1318.6672,326.71,1318.75" style="stroke: #A80036; stroke-width: 1.0;"/><!--link project.project-types to model--><path d="M470.91,617.11 C503.56,622.02 538.47,633.77 560,660 C649.96,769.59 523.66,1175.06 596,1297 C613.93,1327.23 646.72,1348.59 676.22,1362.68 " fill="none" id="project.project-types-model" style="stroke: #A80036; stroke-width: 1.0;"/><polygon fill="#A80036" points="680.92,1364.89,674.4572,1357.4582,676.3894,1362.7748,671.0728,1364.7071,680.92,1364.89" style="stroke: #A80036; stroke-width: 1.0;"/><!--link arch-model to datasource.schema-plugin--><path d="M446.19,1649.74 C496.58,1640.62 571.54,1627.04 632.81,1615.95 " fill="none" id="arch-model-datasource.schema-plugin" style="stroke: #A80036; stroke-width: 1.0; stroke-dasharray: 7.0,7.0;"/><polygon fill="#A80036" points="637.94,1615.02,628.3744,1612.675,633.0188,1615.9044,629.7894,1620.5488,637.94,1615.02" style="stroke: #A80036; stroke-width: 1.0;"/><!--link arch-model to service-api.schema-plugin--><path d="M446.19,1661.3 C496.11,1662.45 570.15,1664.15 631.09,1665.55 " fill="none" id="arch-model-service-api.schema-plugin" style="stroke: #A80036; stroke-width: 1.0; stroke-dasharray: 7.0,7.0;"/><polygon fill="#A80036" points="636.2,1665.67,627.2938,1661.4654,631.2013,1665.5557,627.1109,1669.4633,636.2,1665.67" style="stroke: #A80036; stroke-width: 1.0;"/><!--link domain-model-plugin to metamodel--><path d="M99.07,686.67 C109.68,740.16 141.1,860.78 217,924 C244.2,946.66 281.68,957.82 314.58,963.25 " fill="none" id="domain-model-plugin-metamodel" style="stroke: #A80036; stroke-width: 1.0; stroke-dasharray: 7.0,7.0;"/><polygon fill="#A80036" points="319.82,964.07,311.5445,958.73,314.8798,963.299,310.3108,966.6343,319.82,964.07" style="stroke: #A80036; stroke-width: 1.0;"/><!--link domain-model-plugin to common-model--><path d="M124.71,686.61 C148.36,706.17 182.85,732.02 217,748 C247.75,762.39 283.91,772.58 315,779.5 " fill="none" id="domain-model-plugin-common-model" style="stroke: #A80036; stroke-width: 1.0; stroke-dasharray: 7.0,7.0;"/><polygon fill="#A80036" points="319.94,780.58,312.0057,774.745,315.0561,779.509,310.2921,782.5593,319.94,780.58" style="stroke: #A80036; stroke-width: 1.0;"/><!--link domain-model-plugin to domain-model-plugin.project-template--><path d="M124.71,633.39 C148.36,613.83 182.85,587.98 217,572 C229.7,566.06 243.32,560.83 257.13,556.25 " fill="none" id="domain-model-plugin-domain-model-plugin.project-template" style="stroke: #A80036; stroke-width: 1.0; stroke-dasharray: 7.0,7.0;"/><polygon fill="#A80036" points="262.22,554.6,252.425,553.5717,257.4639,556.1425,254.893,561.1814,262.22,554.6" style="stroke: #A80036; stroke-width: 1.0;"/><!--link domain-model-plugin to metamodel-plugin--><path d="M95.44,686.72 C99.28,752.52 118.7,923.4 217,1011 C333.64,1114.95 422.64,1013.55 560,1088 C630.71,1126.33 692.78,1200.9 721.14,1238.37 " fill="none" id="domain-model-plugin-metamodel-plugin" style="stroke: #A80036; stroke-width: 1.0; stroke-dasharray: 7.0,7.0;"/><polygon fill="#A80036" points="724.43,1242.75,722.23,1233.15,721.43,1238.75,715.83,1237.95,724.43,1242.75" style="stroke: #A80036; stroke-width: 1.0;"/><!--link domain-model-plugin to common-model-plugin--><path d="M96.24,633.29 C103.38,533.02 134.09,181.35 217,115 C517.48,-125.44 1041.37,106.18 1188.85,179.45 " fill="none" id="domain-model-plugin-common-model-plugin" style="stroke: #A80036; stroke-width: 1.0; stroke-dasharray: 7.0,7.0;"/><polygon fill="#A80036" points="1193.52,181.78,1187.2493,174.1854,1189.045,179.5497,1183.6807,181.3454,1193.52,181.78" style="stroke: #A80036; stroke-width: 1.0;"/><!--link domain-model to domain-model.project-template--><path d="M326.71,1318.75 C280.64,1298.24 221.89,1262.67 199,1208.5 C183.71,1172.32 183.71,537.68 199,501.5 C210.26,474.84 234.4,459.04 261.8,449.85 " fill="none" id="domain-model-domain-model.project-template" style="stroke: #A80036; stroke-width: 1.0; stroke-dasharray: 7.0,7.0;"/><polygon fill="#A80036" points="266.58,448.32,256.7917,447.2299,261.8142,449.8325,259.2116,454.8551,266.58,448.32" style="stroke: #A80036; stroke-width: 1.0;"/><!--link domain-model to metamodel-plugin--><path d="M450.12,1327.07 C508.1,1313.74 595.83,1293.57 659.1,1279.02 " fill="none" id="domain-model-metamodel-plugin" style="stroke: #A80036; stroke-width: 1.0; stroke-dasharray: 7.0,7.0;"/><polygon fill="#A80036" points="664,1277.9,654.3294,1276.0345,659.129,1279.0285,656.135,1283.828,664,1277.9" style="stroke: #A80036; stroke-width: 1.0;"/><!--link generator to project.project-types--><path d="M940.72,437.77 C921.77,444.96 900.51,452.91 881,460 C738.98,511.59 704.61,528.19 560,572 C532.73,580.26 502.72,588.34 475.58,595.27 " fill="none" id="generator-project.project-types" style="stroke: #A80036; stroke-width: 1.0; stroke-dasharray: 7.0,7.0;"/><polygon fill="#A80036" points="470.54,596.55,480.2473,598.2141,475.3865,595.3205,478.2801,590.4597,470.54,596.55" style="stroke: #A80036; stroke-width: 1.0;"/><!--link generator to generator.project-template--><path d="M940.88,392.73 C922.03,385.49 900.79,377.88 881,372 C751.08,333.41 598.13,301.93 497.77,283.12 " fill="none" id="generator-generator.project-template" style="stroke: #A80036; stroke-width: 1.0; stroke-dasharray: 7.0,7.0;"/><polygon fill="#A80036" points="492.74,282.17,500.8565,287.7487,497.6557,283.0845,502.3198,279.8837,492.74,282.17" style="stroke: #A80036; stroke-width: 1.0;"/><!--link generator to project.domain-model-plugin--><path d="M1056.11,416 C1072.69,416 1091.48,416 1110.39,416 " fill="none" id="generator-project.domain-model-plugin" style="stroke: #A80036; stroke-width: 1.0; stroke-dasharray: 7.0,7.0;"/><polygon fill="#A80036" points="1115.73,416,1106.73,412,1110.73,416,1106.73,420,1115.73,416" style="stroke: #A80036; stroke-width: 1.0;"/><!--link generator to common-model-plugin--><path d="M1028.04,389.08 C1074.01,345.72 1163.55,261.26 1205.62,221.58 " fill="none" id="generator-common-model-plugin" style="stroke: #A80036; stroke-width: 1.0; stroke-dasharray: 7.0,7.0;"/><polygon fill="#A80036" points="1209.3,218.11,1200.0111,221.3837,1205.6657,221.544,1205.5055,227.1985,1209.3,218.11" style="stroke: #A80036; stroke-width: 1.0;"/><!--link schema-model to metamodel--><path d="M106.09,1358.24 C125.81,1314.02 168.5,1223.76 217,1155 C259.27,1095.07 318.9,1033.79 355.29,998.4 " fill="none" id="schema-model-metamodel" style="stroke: #A80036; stroke-width: 1.0; stroke-dasharray: 7.0,7.0;"/><polygon fill="#A80036" points="359.17,994.64,349.9218,998.0268,355.5779,998.1181,355.4867,1003.7742,359.17,994.64" style="stroke: #A80036; stroke-width: 1.0;"/><!--link schema-model to schema.document-template--><path d="M124.03,1411.64 C147.57,1431.48 182.26,1457.67 217,1473 C235.71,1481.25 256.42,1487.66 276.77,1492.61 " fill="none" id="schema-model-schema.document-template" style="stroke: #A80036; stroke-width: 1.0; stroke-dasharray: 7.0,7.0;"/><polygon fill="#A80036" points="281.66,1493.78,273.832,1487.8032,276.7961,1492.6213,271.978,1495.5854,281.66,1493.78" style="stroke: #A80036; stroke-width: 1.0;"/><!--link schema-model to metamodel-plugin--><path d="M122.04,1358.25 C145.3,1337.5 180.54,1310.14 217,1297 C365.95,1243.3 554.16,1246.15 658.58,1253.36 " fill="none" id="schema-model-metamodel-plugin" style="stroke: #A80036; stroke-width: 1.0; stroke-dasharray: 7.0,7.0;"/><polygon fill="#A80036" points="663.79,1253.73,655.0988,1249.0972,658.8028,1253.3727,654.5272,1257.0767,663.79,1253.73" style="stroke: #A80036; stroke-width: 1.0;"/><!--link schema-plugin to metamodel--><path d="M155.57,1028.16 C201.94,1016.13 265.87,999.55 314.87,986.84 " fill="none" id="schema-plugin-metamodel" style="stroke: #A80036; stroke-width: 1.0; stroke-dasharray: 7.0,7.0;"/><polygon fill="#A80036" points="319.86,985.54,310.1425,983.9366,315.0213,986.7998,312.1582,991.6786,319.86,985.54" style="stroke: #A80036; stroke-width: 1.0;"/><!--link schema-plugin to schema.plugin-template--><path d="M119.81,1070.55 C143.05,1093.44 179.47,1125.76 217,1145 C239.35,1156.46 264.88,1165.19 289.26,1171.77 " fill="none" id="schema-plugin-schema.plugin-template" style="stroke: #A80036; stroke-width: 1.0; stroke-dasharray: 7.0,7.0;"/><polygon fill="#A80036" points="294.12,1173.06,286.4523,1166.8789,289.2884,1171.7735,284.3938,1174.6096,294.12,1173.06" style="stroke: #A80036; stroke-width: 1.0;"/><!--link schema-plugin to metamodel-plugin--><path d="M155.54,1059.05 C175.16,1063.86 196.99,1069.19 217,1074 C369.29,1110.63 414.84,1096.16 560,1155 C615.71,1177.58 674.5,1215.99 708.49,1239.84 " fill="none" id="schema-plugin-metamodel-plugin" style="stroke: #A80036; stroke-width: 1.0; stroke-dasharray: 7.0,7.0;"/><polygon fill="#A80036" points="712.92,1242.97,707.8763,1234.5106,708.836,1240.0855,703.2611,1241.0451,712.92,1242.97" style="stroke: #A80036; stroke-width: 1.0;"/><!--link service-generator to datasource.flyway-migration-template--><path d="M460.34,1760.62 C509.53,1769.39 575.94,1781.22 631.42,1791.1 " fill="none" id="service-generator-datasource.flyway-migration-template" style="stroke: #A80036; stroke-width: 1.0; stroke-dasharray: 7.0,7.0;"/><polygon fill="#A80036" points="636.41,1791.99,628.2594,1786.4612,631.4888,1791.1056,626.8444,1794.335,636.41,1791.99" style="stroke: #A80036; stroke-width: 1.0;"/><!--link service-generator to service-api.springboot2-template--><path d="M438.38,1774.63 C479.49,1796.19 540.31,1826.13 596,1846 C612.45,1851.87 630.31,1857.12 647.63,1861.65 " fill="none" id="service-generator-service-api.springboot2-template" style="stroke: #A80036; stroke-width: 1.0; stroke-dasharray: 7.0,7.0;"/><polygon fill="#A80036" points="652.5,1862.91,644.7938,1856.777,647.6604,1861.6537,642.7837,1864.5203,652.5,1862.91" style="stroke: #A80036; stroke-width: 1.0;"/><!--link service-generator to metamodel-plugin--><path d="M460.36,1747.78 C495.54,1743.73 535.63,1732.44 560,1704 C612.75,1642.45 551.74,1408.91 596,1341 C614.35,1312.83 646.27,1293.56 675.15,1281 " fill="none" id="service-generator-metamodel-plugin" style="stroke: #A80036; stroke-width: 1.0; stroke-dasharray: 7.0,7.0;"/><polygon fill="#A80036" points="679.75,1279.04,669.9024,1278.8828,675.1491,1280.9975,673.0344,1286.2442,679.75,1279.04" style="stroke: #A80036; stroke-width: 1.0;"/><!--link service-generator to datasource.schema-plugin--><path d="M460.21,1743.13 C493.46,1737.71 531.88,1726.6 560,1704 C587.58,1681.83 568.39,1655.12 596,1633 C606.48,1624.6 618.69,1618.14 631.46,1613.17 " fill="none" id="service-generator-datasource.schema-plugin" style="stroke: #A80036; stroke-width: 1.0; stroke-dasharray: 7.0,7.0;"/><polygon fill="#A80036" points="636.19,1611.4,626.3601,1610.7885,631.5037,1613.1431,629.1491,1618.2866,636.19,1611.4" style="stroke: #A80036; stroke-width: 1.0;"/><!--link service-generator to service-api.schema-plugin--><path d="M460.34,1731.71 C516.5,1718.81 595.08,1700.74 654.24,1687.14 " fill="none" id="service-generator-service-api.schema-plugin" style="stroke: #A80036; stroke-width: 1.0; stroke-dasharray: 7.0,7.0;"/><polygon fill="#A80036" points="659.18,1686,649.5094,1684.1345,654.309,1687.1285,651.315,1691.928,659.18,1686" style="stroke: #A80036; stroke-width: 1.0;"/><!--
@startuml
left to right direction

[arch-model] <<project type>>
[domain-model-plugin] <<project type>>
[domain-model] <<project type>>
[generator] <<project type>>
[model] <<project type>>
[plugin] <<project type>>
[project-group] <<project type>>
[schema-model] <<project type>>
[schema-plugin] <<project type>>
[service-generator] <<project type>>
[template] <<project type>>


[arch-model] - -> [model]
[domain-model-plugin] - -> [plugin]
[domain-model] - -> [model]
[model] - -> [generator]
[plugin] - -> [generator]
[project-group] - -> [model]
[schema-model] - -> [model]
[schema-plugin] - -> [plugin]
[service-generator] - -> [generator]
[template] - -> [generator]


package "laplacian" {
  [common-model] <<domain-model>>
  [common-model] - -> [domain-model]
  [domain-model-plugin.project-template] <<template>>
  [domain-model-plugin.project-template] - -> [template]
  [domain-model.project-template] <<template>>
  [domain-model.project-template] - -> [template]
  [generator.model-validator-template] <<template>>
  [generator.model-validator-template] - -> [template]
  [generator.project-template] <<template>>
  [generator.project-template] - -> [template]
  [metamodel] <<domain-model>>
  [metamodel] - -> [domain-model]
  [project-group.project-template] <<project-group>>
  [project-group.project-template] - -> [project-group]
  [project.domain-model] <<domain-model>>
  [project.domain-model] - -> [domain-model]
  [project.project-types] <<model>>
  [project.project-types] - -> [model]
}



  [arch-model] ..> [datasource.schema-plugin]
  [arch-model] ..> [service-api.schema-plugin]

  [domain-model-plugin] ..> [metamodel]
  [domain-model-plugin] ..> [common-model]
  [domain-model-plugin] ..> [domain-model-plugin.project-template]
  [domain-model-plugin] ..> [metamodel-plugin]
  [domain-model-plugin] ..> [common-model-plugin]

  [domain-model] ..> [metamodel]
  [domain-model] ..> [common-model]
  [domain-model] ..> [domain-model.project-template]
  [domain-model] ..> [metamodel-plugin]

  [generator] ..> [project.project-types]
  [generator] ..> [generator.project-template]
  [generator] ..> [project.domain-model-plugin]
  [generator] ..> [common-model-plugin]



  [project-group] ..> [project-group.project-template]

  [schema-model] ..> [metamodel]
  [schema-model] ..> [schema.document-template]
  [schema-model] ..> [metamodel-plugin]

  [schema-plugin] ..> [metamodel]
  [schema-plugin] ..> [schema.plugin-template]
  [schema-plugin] ..> [metamodel-plugin]

  [service-generator] ..> [datasource.flyway-migration-template]
  [service-generator] ..> [service-api.springboot2-template]
  [service-generator] ..> [metamodel-plugin]
  [service-generator] ..> [datasource.schema-plugin]
  [service-generator] ..> [service-api.schema-plugin]



@enduml

PlantUML version 1.2019.05(Sun Apr 21 01:45:36 JST 2019)
(GPL source distribution)
Java Runtime: OpenJDK Runtime Environment
JVM: OpenJDK 64-Bit Server VM
Java Version: 1.8.0_222-b10
Operating System: Mac OS X
OS Version: 10.15.4
Default Encoding: UTF-8
Language: en
Country: JP
--></g></svg>