<?xml version="1.0" encoding="UTF-8" standalone="no"?><svg xmlns="http://www.w3.org/2000/svg" xmlns:xlink="http://www.w3.org/1999/xlink" contentScriptType="application/ecmascript" contentStyleType="text/css" height="1182px" preserveAspectRatio="none" style="width:1165px;height:1182px;" version="1.1" viewBox="0 0 1165 1182" width="1165px" zoomAndPan="magnify"><defs><filter height="300%" id="f1k1dt3wlfljdp" width="300%" x="-1" y="-1"><feGaussianBlur result="blurOut" stdDeviation="2.0"/><feColorMatrix in="blurOut" result="blurOut2" type="matrix" values="0 0 0 0 0 0 0 0 0 0 0 0 0 0 0 0 0 0 .4 0"/><feOffset dx="4.0" dy="4.0" in="blurOut2" result="blurOut3"/><feBlend in="SourceGraphic" in2="blurOut3" mode="normal"/></filter></defs><g><!--cluster laplacian--><polygon fill="#FFFFFF" filter="url(#f1k1dt3wlfljdp)" points="247.5,317.7205,321.5,317.7205,328.5,340.0174,500.5,340.0174,500.5,1110.7205,247.5,1110.7205,247.5,317.7205" style="stroke: #000000; stroke-width: 1.5;"/><line style="stroke: #000000; stroke-width: 1.5;" x1="247.5" x2="328.5" y1="340.0174" y2="340.0174"/><text fill="#000000" font-family="sans-serif" font-size="14" font-weight="bold" lengthAdjust="spacingAndGlyphs" textLength="68" x="251.5" y="332.7156">laplacian</text><!--entity common-model--><rect fill="#FEFECE" filter="url(#f1k1dt3wlfljdp)" height="52.5938" style="stroke: #A80036; stroke-width: 1.5;" width="137" x="305.5" y="433.2205"/><rect fill="#FEFECE" height="5" style="stroke: #A80036; stroke-width: 1.5;" width="10" x="300.5" y="438.2205"/><rect fill="#FEFECE" height="5" style="stroke: #A80036; stroke-width: 1.5;" width="10" x="300.5" y="475.8143"/><text fill="#000000" font-family="sans-serif" font-size="14" font-style="italic" lengthAdjust="spacingAndGlyphs" textLength="117" x="315.5" y="456.2156">«domain-model»</text><text fill="#000000" font-family="sans-serif" font-size="14" lengthAdjust="spacingAndGlyphs" textLength="109" x="319.5" y="472.5125">common-model</text><!--entity domain-model.project-template--><rect fill="#FEFECE" filter="url(#f1k1dt3wlfljdp)" height="52.5938" style="stroke: #A80036; stroke-width: 1.5;" width="237" x="255.5" y="961.2205"/><rect fill="#FEFECE" height="5" style="stroke: #A80036; stroke-width: 1.5;" width="10" x="250.5" y="966.2205"/><rect fill="#FEFECE" height="5" style="stroke: #A80036; stroke-width: 1.5;" width="10" x="250.5" y="1003.8143"/><text fill="#000000" font-family="sans-serif" font-size="14" font-style="italic" lengthAdjust="spacingAndGlyphs" textLength="79" x="334.5" y="984.2156">«template»</text><text fill="#000000" font-family="sans-serif" font-size="14" lengthAdjust="spacingAndGlyphs" textLength="217" x="265.5" y="1000.5125">domain-model.project-template</text><!--entity generator.project-template--><rect fill="#FEFECE" filter="url(#f1k1dt3wlfljdp)" height="52.5938" style="stroke: #A80036; stroke-width: 1.5;" width="206" x="271" y="785.2205"/><rect fill="#FEFECE" height="5" style="stroke: #A80036; stroke-width: 1.5;" width="10" x="266" y="790.2205"/><rect fill="#FEFECE" height="5" style="stroke: #A80036; stroke-width: 1.5;" width="10" x="266" y="827.8143"/><text fill="#000000" font-family="sans-serif" font-size="14" font-style="italic" lengthAdjust="spacingAndGlyphs" textLength="79" x="334.5" y="808.2156">«template»</text><text fill="#000000" font-family="sans-serif" font-size="14" lengthAdjust="spacingAndGlyphs" textLength="186" x="281" y="824.5125">generator.project-template</text><!--entity metamodel--><rect fill="#FEFECE" filter="url(#f1k1dt3wlfljdp)" height="52.5938" style="stroke: #A80036; stroke-width: 1.5;" width="98" x="325" y="345.2205"/><rect fill="#FEFECE" height="5" style="stroke: #A80036; stroke-width: 1.5;" width="10" x="320" y="350.2205"/><rect fill="#FEFECE" height="5" style="stroke: #A80036; stroke-width: 1.5;" width="10" x="320" y="387.8143"/><text fill="#000000" font-family="sans-serif" font-size="14" font-style="italic" lengthAdjust="spacingAndGlyphs" textLength="61" x="343.5" y="368.2156">«model»</text><text fill="#000000" font-family="sans-serif" font-size="14" lengthAdjust="spacingAndGlyphs" textLength="78" x="335" y="384.5125">metamodel</text><!--entity model.project-template--><rect fill="#FEFECE" filter="url(#f1k1dt3wlfljdp)" height="52.5938" style="stroke: #A80036; stroke-width: 1.5;" width="181" x="283.5" y="697.2205"/><rect fill="#FEFECE" height="5" style="stroke: #A80036; stroke-width: 1.5;" width="10" x="278.5" y="702.2205"/><rect fill="#FEFECE" height="5" style="stroke: #A80036; stroke-width: 1.5;" width="10" x="278.5" y="739.8143"/><text fill="#000000" font-family="sans-serif" font-size="14" font-style="italic" lengthAdjust="spacingAndGlyphs" textLength="79" x="334.5" y="720.2156">«template»</text><text fill="#000000" font-family="sans-serif" font-size="14" lengthAdjust="spacingAndGlyphs" textLength="161" x="293.5" y="736.5125">model.project-template</text><!--entity project-group.project-template--><rect fill="#FEFECE" filter="url(#f1k1dt3wlfljdp)" height="52.5938" style="stroke: #A80036; stroke-width: 1.5;" width="232" x="258" y="873.2205"/><rect fill="#FEFECE" height="5" style="stroke: #A80036; stroke-width: 1.5;" width="10" x="253" y="878.2205"/><rect fill="#FEFECE" height="5" style="stroke: #A80036; stroke-width: 1.5;" width="10" x="253" y="915.8143"/><text fill="#000000" font-family="sans-serif" font-size="14" font-style="italic" lengthAdjust="spacingAndGlyphs" textLength="79" x="334.5" y="896.2156">«template»</text><text fill="#000000" font-family="sans-serif" font-size="14" lengthAdjust="spacingAndGlyphs" textLength="212" x="268" y="912.5125">project-group.project-template</text><!--entity project.domain-model--><rect fill="#FEFECE" filter="url(#f1k1dt3wlfljdp)" height="52.5938" style="stroke: #A80036; stroke-width: 1.5;" width="171" x="288.5" y="521.2205"/><rect fill="#FEFECE" height="5" style="stroke: #A80036; stroke-width: 1.5;" width="10" x="283.5" y="526.2205"/><rect fill="#FEFECE" height="5" style="stroke: #A80036; stroke-width: 1.5;" width="10" x="283.5" y="563.8143"/><text fill="#000000" font-family="sans-serif" font-size="14" font-style="italic" lengthAdjust="spacingAndGlyphs" textLength="117" x="315.5" y="544.2156">«domain-model»</text><text fill="#000000" font-family="sans-serif" font-size="14" lengthAdjust="spacingAndGlyphs" textLength="151" x="298.5" y="560.5125">project.domain-model</text><!--entity project.project-types--><rect fill="#FEFECE" filter="url(#f1k1dt3wlfljdp)" height="52.5938" style="stroke: #A80036; stroke-width: 1.5;" width="163" x="292.5" y="609.2205"/><rect fill="#FEFECE" height="5" style="stroke: #A80036; stroke-width: 1.5;" width="10" x="287.5" y="614.2205"/><rect fill="#FEFECE" height="5" style="stroke: #A80036; stroke-width: 1.5;" width="10" x="287.5" y="651.8143"/><text fill="#000000" font-family="sans-serif" font-size="14" font-style="italic" lengthAdjust="spacingAndGlyphs" textLength="109" x="319.5" y="632.2156">«project-types»</text><text fill="#000000" font-family="sans-serif" font-size="14" lengthAdjust="spacingAndGlyphs" textLength="143" x="302.5" y="648.5125">project.project-types</text><!--entity template.project-template--><rect fill="#FEFECE" filter="url(#f1k1dt3wlfljdp)" height="52.5938" style="stroke: #A80036; stroke-width: 1.5;" width="199" x="274.5" y="1049.2205"/><rect fill="#FEFECE" height="5" style="stroke: #A80036; stroke-width: 1.5;" width="10" x="269.5" y="1054.2205"/><rect fill="#FEFECE" height="5" style="stroke: #A80036; stroke-width: 1.5;" width="10" x="269.5" y="1091.8143"/><text fill="#000000" font-family="sans-serif" font-size="14" font-style="italic" lengthAdjust="spacingAndGlyphs" textLength="79" x="334.5" y="1072.2156">«template»</text><text fill="#000000" font-family="sans-serif" font-size="14" lengthAdjust="spacingAndGlyphs" textLength="179" x="284.5" y="1088.5125">template.project-template</text><!--entity domain-model-plugin--><rect fill="#FEFECE" filter="url(#f1k1dt3wlfljdp)" height="52.5938" style="stroke: #A80036; stroke-width: 1.5;" width="166" x="6" y="88.2205"/><rect fill="#FEFECE" height="5" style="stroke: #A80036; stroke-width: 1.5;" width="10" x="1" y="93.2205"/><rect fill="#FEFECE" height="5" style="stroke: #A80036; stroke-width: 1.5;" width="10" x="1" y="130.8142"/><text fill="#000000" font-family="sans-serif" font-size="14" font-style="italic" lengthAdjust="spacingAndGlyphs" textLength="100" x="39" y="111.2156">«project type»</text><text fill="#000000" font-family="sans-serif" font-size="14" lengthAdjust="spacingAndGlyphs" textLength="146" x="16" y="127.5125">domain-model-plugin</text><!--entity domain-model--><rect fill="#FEFECE" filter="url(#f1k1dt3wlfljdp)" height="52.5938" style="stroke: #A80036; stroke-width: 1.5;" width="120" x="314" y="168.2205"/><rect fill="#FEFECE" height="5" style="stroke: #A80036; stroke-width: 1.5;" width="10" x="309" y="173.2205"/><rect fill="#FEFECE" height="5" style="stroke: #A80036; stroke-width: 1.5;" width="10" x="309" y="210.8143"/><text fill="#000000" font-family="sans-serif" font-size="14" font-style="italic" lengthAdjust="spacingAndGlyphs" textLength="100" x="324" y="191.2156">«project type»</text><text fill="#000000" font-family="sans-serif" font-size="14" lengthAdjust="spacingAndGlyphs" textLength="99" x="324.5" y="207.5125">domain-model</text><!--entity generator--><rect fill="#FEFECE" filter="url(#f1k1dt3wlfljdp)" height="52.5938" style="stroke: #A80036; stroke-width: 1.5;" width="120" x="756" y="561.2205"/><rect fill="#FEFECE" height="5" style="stroke: #A80036; stroke-width: 1.5;" width="10" x="751" y="566.2205"/><rect fill="#FEFECE" height="5" style="stroke: #A80036; stroke-width: 1.5;" width="10" x="751" y="603.8143"/><text fill="#000000" font-family="sans-serif" font-size="14" font-style="italic" lengthAdjust="spacingAndGlyphs" textLength="100" x="766" y="584.2156">«project type»</text><text fill="#000000" font-family="sans-serif" font-size="14" lengthAdjust="spacingAndGlyphs" textLength="68" x="782" y="600.5125">generator</text><!--entity model--><rect fill="#FEFECE" filter="url(#f1k1dt3wlfljdp)" height="52.5938" style="stroke: #A80036; stroke-width: 1.5;" width="120" x="576" y="345.2205"/><rect fill="#FEFECE" height="5" style="stroke: #A80036; stroke-width: 1.5;" width="10" x="571" y="350.2205"/><rect fill="#FEFECE" height="5" style="stroke: #A80036; stroke-width: 1.5;" width="10" x="571" y="387.8143"/><text fill="#000000" font-family="sans-serif" font-size="14" font-style="italic" lengthAdjust="spacingAndGlyphs" textLength="100" x="586" y="368.2156">«project type»</text><text fill="#000000" font-family="sans-serif" font-size="14" lengthAdjust="spacingAndGlyphs" textLength="43" x="614.5" y="384.5125">model</text><!--entity plugin--><rect fill="#FEFECE" filter="url(#f1k1dt3wlfljdp)" height="52.5938" style="stroke: #A80036; stroke-width: 1.5;" width="120" x="314" y="8.2205"/><rect fill="#FEFECE" height="5" style="stroke: #A80036; stroke-width: 1.5;" width="10" x="309" y="13.2205"/><rect fill="#FEFECE" height="5" style="stroke: #A80036; stroke-width: 1.5;" width="10" x="309" y="50.8142"/><text fill="#000000" font-family="sans-serif" font-size="14" font-style="italic" lengthAdjust="spacingAndGlyphs" textLength="100" x="324" y="31.2156">«project type»</text><text fill="#000000" font-family="sans-serif" font-size="14" lengthAdjust="spacingAndGlyphs" textLength="42" x="353" y="47.5125">plugin</text><!--entity project-group--><rect fill="#FEFECE" filter="url(#f1k1dt3wlfljdp)" height="52.5938" style="stroke: #A80036; stroke-width: 1.5;" width="120" x="29" y="1001.2205"/><rect fill="#FEFECE" height="5" style="stroke: #A80036; stroke-width: 1.5;" width="10" x="24" y="1006.2205"/><rect fill="#FEFECE" height="5" style="stroke: #A80036; stroke-width: 1.5;" width="10" x="24" y="1043.8143"/><text fill="#000000" font-family="sans-serif" font-size="14" font-style="italic" lengthAdjust="spacingAndGlyphs" textLength="100" x="39" y="1024.2156">«project type»</text><text fill="#000000" font-family="sans-serif" font-size="14" lengthAdjust="spacingAndGlyphs" textLength="94" x="42" y="1040.5125">project-group</text><!--entity project-types--><rect fill="#FEFECE" filter="url(#f1k1dt3wlfljdp)" height="52.5938" style="stroke: #A80036; stroke-width: 1.5;" width="120" x="314" y="256.2205"/><rect fill="#FEFECE" height="5" style="stroke: #A80036; stroke-width: 1.5;" width="10" x="309" y="261.2205"/><rect fill="#FEFECE" height="5" style="stroke: #A80036; stroke-width: 1.5;" width="10" x="309" y="298.8143"/><text fill="#000000" font-family="sans-serif" font-size="14" font-style="italic" lengthAdjust="spacingAndGlyphs" textLength="100" x="324" y="279.2156">«project type»</text><text fill="#000000" font-family="sans-serif" font-size="14" lengthAdjust="spacingAndGlyphs" textLength="91" x="328.5" y="295.5125">project-types</text><!--entity template--><rect fill="#FEFECE" filter="url(#f1k1dt3wlfljdp)" height="52.5938" style="stroke: #A80036; stroke-width: 1.5;" width="120" x="576" y="843.2205"/><rect fill="#FEFECE" height="5" style="stroke: #A80036; stroke-width: 1.5;" width="10" x="571" y="848.2205"/><rect fill="#FEFECE" height="5" style="stroke: #A80036; stroke-width: 1.5;" width="10" x="571" y="885.8143"/><text fill="#000000" font-family="sans-serif" font-size="14" font-style="italic" lengthAdjust="spacingAndGlyphs" textLength="100" x="586" y="866.2156">«project type»</text><text fill="#000000" font-family="sans-serif" font-size="14" lengthAdjust="spacingAndGlyphs" textLength="61" x="605.5" y="882.5125">template</text><!--entity domain-model-plugin.project-template--><rect fill="#FEFECE" filter="url(#f1k1dt3wlfljdp)" height="36.2969" style="stroke: #A80036; stroke-width: 1.5;" width="284" x="232" y="96.7205"/><rect fill="#FEFECE" height="5" style="stroke: #A80036; stroke-width: 1.5;" width="10" x="227" y="101.7205"/><rect fill="#FEFECE" height="5" style="stroke: #A80036; stroke-width: 1.5;" width="10" x="227" y="123.0174"/><text fill="#000000" font-family="sans-serif" font-size="14" lengthAdjust="spacingAndGlyphs" textLength="264" x="242" y="119.7156">domain-model-plugin.project-template</text><!--entity metamodel-plugin--><rect fill="#FEFECE" filter="url(#f1k1dt3wlfljdp)" height="36.2969" style="stroke: #A80036; stroke-width: 1.5;" width="145" x="972.5" y="498.7205"/><rect fill="#FEFECE" height="5" style="stroke: #A80036; stroke-width: 1.5;" width="10" x="967.5" y="503.7205"/><rect fill="#FEFECE" height="5" style="stroke: #A80036; stroke-width: 1.5;" width="10" x="967.5" y="525.0174"/><text fill="#000000" font-family="sans-serif" font-size="14" lengthAdjust="spacingAndGlyphs" textLength="125" x="982.5" y="521.7156">metamodel-plugin</text><!--entity project.domain-model-plugin--><rect fill="#FEFECE" filter="url(#f1k1dt3wlfljdp)" height="36.2969" style="stroke: #A80036; stroke-width: 1.5;" width="218" x="936" y="569.7205"/><rect fill="#FEFECE" height="5" style="stroke: #A80036; stroke-width: 1.5;" width="10" x="931" y="574.7205"/><rect fill="#FEFECE" height="5" style="stroke: #A80036; stroke-width: 1.5;" width="10" x="931" y="596.0174"/><text fill="#000000" font-family="sans-serif" font-size="14" lengthAdjust="spacingAndGlyphs" textLength="198" x="946" y="592.7156">project.domain-model-plugin</text><!--entity common-model-plugin--><rect fill="#FEFECE" filter="url(#f1k1dt3wlfljdp)" height="36.2969" style="stroke: #A80036; stroke-width: 1.5;" width="176" x="957" y="640.7205"/><rect fill="#FEFECE" height="5" style="stroke: #A80036; stroke-width: 1.5;" width="10" x="952" y="645.7205"/><rect fill="#FEFECE" height="5" style="stroke: #A80036; stroke-width: 1.5;" width="10" x="952" y="667.0174"/><text fill="#000000" font-family="sans-serif" font-size="14" lengthAdjust="spacingAndGlyphs" textLength="156" x="967" y="663.7156">common-model-plugin</text><!--link domain-model-plugin to plugin--><path d="M172.1999,91.3661 C215.7754,79.1344 268.3552,64.3751 308.9181,52.9891 " fill="none" id="domain-model-plugin-plugin" style="stroke: #A80036; stroke-width: 1.0;"/><polygon fill="#A80036" points="313.8038,51.6176,304.0576,50.199,308.9899,52.969,306.2199,57.9013,313.8038,51.6176" style="stroke: #A80036; stroke-width: 1.0;"/><!--link domain-model to model--><path d="M434.0678,205.7808 C460.607,212.5114 491.3159,222.9472 516,238.7205 C557.8378,265.455 594.1625,310.5698 615.5792,340.7428 " fill="none" id="domain-model-model" style="stroke: #A80036; stroke-width: 1.0;"/><polygon fill="#A80036" points="618.6297,345.0821,616.726,335.419,615.7542,340.9917,610.1814,340.0198,618.6297,345.0821" style="stroke: #A80036; stroke-width: 1.0;"/><!--link model to generator--><path d="M658.4332,398.6403 C692.0306,438.9572 755.2323,514.7992 790.5234,557.1485 " fill="none" id="model-generator" style="stroke: #A80036; stroke-width: 1.0;"/><polygon fill="#A80036" points="793.8496,561.1399,791.161,551.6651,790.6487,557.2987,785.0151,556.7865,793.8496,561.1399" style="stroke: #A80036; stroke-width: 1.0;"/><!--link plugin to generator--><path d="M434.1888,44.3916 C461.0563,50.866 491.9947,61.4857 516,78.7205 C690.7998,204.2187 780.5723,465.8413 807.2889,556.2133 " fill="none" id="plugin-generator" style="stroke: #A80036; stroke-width: 1.0;"/><polygon fill="#A80036" points="808.7367,561.1532,810.0436,551.3914,807.3303,556.3551,802.3666,553.6417,808.7367,561.1532" style="stroke: #A80036; stroke-width: 1.0;"/><!--link project-group to generator--><path d="M119.3634,1054.3818 C146.6939,1076.4785 189.0548,1106.2148 232,1118.7205 C353.1885,1154.0106 401.013,1170.7784 516,1118.7205 C721.635,1025.6235 792.8272,719.3414 810.8884,619.4977 " fill="none" id="project-group-generator" style="stroke: #A80036; stroke-width: 1.0;"/><polygon fill="#A80036" points="811.8073,614.3389,806.2907,622.4978,810.9303,619.2614,814.1667,623.901,811.8073,614.3389" style="stroke: #A80036; stroke-width: 1.0;"/><!--link project-types to model--><path d="M434.3148,292.0339 C459.9004,296.8599 489.8022,303.6714 516,312.7205 C539.0523,320.683 563.393,332.0462 584.0827,342.678 " fill="none" id="project-types-model" style="stroke: #A80036; stroke-width: 1.0;"/><polygon fill="#A80036" points="588.7122,345.0759,582.5604,337.3847,584.2724,342.7762,578.8809,344.4883,588.7122,345.0759" style="stroke: #A80036; stroke-width: 1.0;"/><!--link template to generator--><path d="M654.3762,843.0189 C666.3871,825.4311 682.3248,801.8357 696,780.7205 C732.5831,724.2342 773.6881,657.3417 797.0492,618.9853 " fill="none" id="template-generator" style="stroke: #A80036; stroke-width: 1.0;"/><polygon fill="#A80036" points="799.8087,614.4518,791.7124,620.0598,797.209,618.7228,798.546,624.2194,799.8087,614.4518" style="stroke: #A80036; stroke-width: 1.0;"/><!--link common-model to domain-model--><path d="M305.3804,455.7451 C266.9057,449.3876 222.6122,434.107 202,398.2205 C170.5668,343.4941 170.5668,310.9468 202,256.2205 C223.1625,219.3757 269.2879,204.252 308.4492,198.2055 " fill="none" id="common-model-domain-model" style="stroke: #A80036; stroke-width: 1.0;"/><polygon fill="#A80036" points="313.679,197.4448,304.1969,194.7822,308.7311,198.1647,305.3487,202.6989,313.679,197.4448" style="stroke: #A80036; stroke-width: 1.0;"/><!--link domain-model.project-template to template--><path d="M471.4634,961.1047 C486.612,955.9475 501.9019,950.127 516,943.7205 C543.1576,931.3792 571.6548,914.0168 594.0608,899.2113 " fill="none" id="domain-model.project-template-template" style="stroke: #A80036; stroke-width: 1.0;"/><polygon fill="#A80036" points="598.4586,896.2865,588.7495,897.9399,594.2953,899.0554,593.1798,904.6012,598.4586,896.2865" style="stroke: #A80036; stroke-width: 1.0;"/><!--link generator.project-template to template--><path d="M477.1732,834.5603 C508.5834,841.5137 542.2313,848.9625 570.4345,855.206 " fill="none" id="generator.project-template-template" style="stroke: #A80036; stroke-width: 1.0;"/><polygon fill="#A80036" points="575.6356,856.3573,567.7129,850.5066,570.7538,855.2766,565.9838,858.3175,575.6356,856.3573" style="stroke: #A80036; stroke-width: 1.0;"/><!--link metamodel to model--><path d="M423.2802,371.7205 C464.9578,371.7205 525.0097,371.7205 570.687,371.7205 " fill="none" id="metamodel-model" style="stroke: #A80036; stroke-width: 1.0;"/><polygon fill="#A80036" points="575.9022,371.7205,566.9022,367.7205,570.9022,371.7205,566.9022,375.7205,575.9022,371.7205" style="stroke: #A80036; stroke-width: 1.0;"/><!--link model.project-template to template--><path d="M464.5055,745.7442 C482.1211,751.684 500.0537,758.9574 516,767.7205 C550.5736,786.7198 584.2932,816.7028 607.1393,839.2536 " fill="none" id="model.project-template-template" style="stroke: #A80036; stroke-width: 1.0;"/><polygon fill="#A80036" points="610.711,842.8063,607.1508,833.6234,607.166,839.2803,601.5091,839.2955,610.711,842.8063" style="stroke: #A80036; stroke-width: 1.0;"/><!--link project-group.project-template to template--><path d="M490.0612,886.431 C517.663,883.2705 546.1611,880.0073 570.5678,877.2127 " fill="none" id="project-group.project-template-template" style="stroke: #A80036; stroke-width: 1.0;"/><polygon fill="#A80036" points="575.7121,876.6236,566.3155,873.6735,570.7446,877.1925,567.2256,881.6216,575.7121,876.6236" style="stroke: #A80036; stroke-width: 1.0;"/><!--link project.domain-model to domain-model--><path d="M288.2964,540.3647 C254.51,532.5013 219.6112,516.8822 202,486.2205 C176.5436,441.8999 176.5436,300.5411 202,256.2205 C223.1625,219.3757 269.2879,204.252 308.4492,198.2055 " fill="none" id="project.domain-model-domain-model" style="stroke: #A80036; stroke-width: 1.0;"/><polygon fill="#A80036" points="313.679,197.4448,304.1969,194.7822,308.7311,198.1647,305.3487,202.6989,313.679,197.4448" style="stroke: #A80036; stroke-width: 1.0;"/><!--link project.project-types to project-types--><path d="M292.3804,629.2794 C257.3551,621.7375 220.3219,606.1196 202,574.2205 C174.994,527.2021 174.994,377.2388 202,330.2205 C222.7468,294.0996 269.1511,282.8189 308.5363,280.2492 " fill="none" id="project.project-types-project-types" style="stroke: #A80036; stroke-width: 1.0;"/><polygon fill="#A80036" points="313.7958,279.9543,304.5859,276.4646,308.8036,280.2343,305.0339,284.452,313.7958,279.9543" style="stroke: #A80036; stroke-width: 1.0;"/><!--link template.project-template to template--><path d="M473.672,1070.5103 C488.6158,1064.9739 503.2633,1057.7531 516,1048.7205 C569.2233,1010.9754 608.5659,942.296 626.0202,901.1867 " fill="none" id="template.project-template-template" style="stroke: #A80036; stroke-width: 1.0;"/><polygon fill="#A80036" points="628.0397,896.314,620.8986,903.0966,626.1253,900.933,628.2889,906.1597,628.0397,896.314" style="stroke: #A80036; stroke-width: 1.0;"/><!--link template to template.project-template--><path d="M615.5646,896.4958 C595.1325,929.2287 560.3951,982.2362 516,1013.7205 C493.6976,1029.537 465.5365,1039.798 440.1849,1047.6684 " fill="none" id="template-template.project-template" style="stroke: #A80036; stroke-width: 1.0; stroke-dasharray: 7.0,7.0;"/><polygon fill="#A80036" points="435.1546,1049.2116,444.932,1050.3959,439.9347,1047.745,442.5855,1042.7477,435.1546,1049.2116" style="stroke: #A80036; stroke-width: 1.0;"/><!--link domain-model-plugin to metamodel--><path d="M99.9177,141.4254 C119.6141,186.3151 165.3377,276.8664 232,326.7205 C257.5406,345.8212 291.4273,356.9621 319.6918,363.3794 " fill="none" id="domain-model-plugin-metamodel" style="stroke: #A80036; stroke-width: 1.0; stroke-dasharray: 7.0,7.0;"/><polygon fill="#A80036" points="324.9007,364.5236,316.9686,358.6856,320.0172,363.4507,315.252,366.4993,324.9007,364.5236" style="stroke: #A80036; stroke-width: 1.0;"/><!--link domain-model-plugin to domain-model-plugin.project-template--><path d="M172.1999,114.7205 C189.3956,114.7205 207.9935,114.7205 226.7017,114.7205 " fill="none" id="domain-model-plugin-domain-model-plugin.project-template" style="stroke: #A80036; stroke-width: 1.0; stroke-dasharray: 7.0,7.0;"/><polygon fill="#A80036" points="231.9803,114.7205,222.9803,110.7205,226.9803,114.7205,222.9803,118.7205,231.9803,114.7205" style="stroke: #A80036; stroke-width: 1.0;"/><!--link domain-model to metamodel--><path d="M313.679,197.4448 C273.4801,202.9378 224.1127,217.7214 202,256.2205 C190.2679,276.6465 190.2679,288.7944 202,309.2205 C225.2178,349.6436 278.3222,364.2611 319.4276,369.3748 " fill="none" id="domain-model-metamodel" style="stroke: #A80036; stroke-width: 1.0; stroke-dasharray: 7.0,7.0;"/><polygon fill="#A80036" points="324.6327,369.9801,316.1551,364.967,319.6662,369.4024,315.2308,372.9134,324.6327,369.9801" style="stroke: #A80036; stroke-width: 1.0;"/><!--link domain-model to domain-model.project-template--><path d="M313.679,197.4448 C273.4801,202.9378 224.1127,217.7214 202,256.2205 C164.9221,320.7744 164.9221,861.6665 202,926.2205 C213.0132,945.3948 230.7869,958.6865 250.8213,967.8776 " fill="none" id="domain-model-domain-model.project-template" style="stroke: #A80036; stroke-width: 1.0; stroke-dasharray: 7.0,7.0;"/><polygon fill="#A80036" points="255.4038,969.8934,248.7763,962.6081,250.8271,967.8801,245.555,969.9309,255.4038,969.8934" style="stroke: #A80036; stroke-width: 1.0;"/><!--link generator to project.project-types--><path d="M755.8071,594.2572 C679.6041,602.5327 547.7883,616.8475 460.7331,626.3015 " fill="none" id="generator-project.project-types" style="stroke: #A80036; stroke-width: 1.0; stroke-dasharray: 7.0,7.0;"/><polygon fill="#A80036" points="455.5847,626.8606,464.964,629.8655,460.5555,626.3207,464.1002,621.9122,455.5847,626.8606" style="stroke: #A80036; stroke-width: 1.0;"/><!--link generator to project.domain-model--><path d="M755.992,582.2899 C681.0227,575.5053 552.0204,563.8309 464.9018,555.9469 " fill="none" id="generator-project.domain-model" style="stroke: #A80036; stroke-width: 1.0; stroke-dasharray: 7.0,7.0;"/><polygon fill="#A80036" points="459.7461,555.4803,468.3489,560.2753,464.7257,555.931,469.07,552.3079,459.7461,555.4803" style="stroke: #A80036; stroke-width: 1.0;"/><!--link generator to common-model--><path d="M755.8636,565.672 C736.8187,558.9592 715.6177,551.7638 696,545.7205 C611.5214,519.6963 513.1987,494.106 447.6396,477.6996 " fill="none" id="generator-common-model" style="stroke: #A80036; stroke-width: 1.0; stroke-dasharray: 7.0,7.0;"/><polygon fill="#A80036" points="442.5833,476.4361,450.3451,482.4986,447.4341,477.6482,452.2845,474.7373,442.5833,476.4361" style="stroke: #A80036; stroke-width: 1.0;"/><!--link generator to generator.project-template--><path d="M778.3063,614.4133 C722.978,652.6284 615.5311,723.2191 516,767.7205 C503.1996,773.4437 489.4369,778.7193 475.6968,783.4797 " fill="none" id="generator-generator.project-template" style="stroke: #A80036; stroke-width: 1.0; stroke-dasharray: 7.0,7.0;"/><polygon fill="#A80036" points="470.6376,785.2101,480.4478,786.0822,475.3685,783.592,477.8588,778.5127,470.6376,785.2101" style="stroke: #A80036; stroke-width: 1.0;"/><!--link generator to metamodel-plugin--><path d="M876.1671,569.066 C908.7538,558.9627 948.9841,546.4896 981.9988,536.2536 " fill="none" id="generator-metamodel-plugin" style="stroke: #A80036; stroke-width: 1.0; stroke-dasharray: 7.0,7.0;"/><polygon fill="#A80036" points="986.8157,534.7601,977.0348,533.6051,982.04,536.2409,979.4042,541.2462,986.8157,534.7601" style="stroke: #A80036; stroke-width: 1.0;"/><!--link generator to project.domain-model-plugin--><path d="M876.1671,587.7205 C892.8828,587.7205 911.6099,587.7205 930.3425,587.7205 " fill="none" id="generator-project.domain-model-plugin" style="stroke: #A80036; stroke-width: 1.0; stroke-dasharray: 7.0,7.0;"/><polygon fill="#A80036" points="935.6246,587.7205,926.6246,583.7205,930.6246,587.7205,926.6246,591.7205,935.6246,587.7205" style="stroke: #A80036; stroke-width: 1.0;"/><!--link generator to common-model-plugin--><path d="M876.1671,606.3749 C908.7538,616.4782 948.9841,628.9513 981.9988,639.1873 " fill="none" id="generator-common-model-plugin" style="stroke: #A80036; stroke-width: 1.0; stroke-dasharray: 7.0,7.0;"/><polygon fill="#A80036" points="986.8157,640.6808,979.4042,634.1947,982.04,639.2,977.0348,641.8358,986.8157,640.6808" style="stroke: #A80036; stroke-width: 1.0;"/><!--link model to model.project-template--><path d="M633.3426,398.2578 C625.9873,457.5089 599.9889,601.4958 516,679.7205 C502.8798,691.9401 486.4238,700.768 469.4085,707.1449 " fill="none" id="model-model.project-template" style="stroke: #A80036; stroke-width: 1.0; stroke-dasharray: 7.0,7.0;"/><polygon fill="#A80036" points="464.5967,708.8794,474.4199,709.5903,469.3004,707.1838,471.7069,702.0644,464.5967,708.8794" style="stroke: #A80036; stroke-width: 1.0;"/><!--link project-group to project-group.project-template--><path d="M128.6664,1001.0567 C156.6565,983.0932 195.5198,959.8279 232,943.7205 C244.8269,938.0569 258.6049,932.8155 272.3525,928.0722 " fill="none" id="project-group-project-group.project-template" style="stroke: #A80036; stroke-width: 1.0; stroke-dasharray: 7.0,7.0;"/><polygon fill="#A80036" points="277.4142,926.3474,267.605,925.4643,272.6815,927.9602,270.1855,933.0367,277.4142,926.3474" style="stroke: #A80036; stroke-width: 1.0;"/><!--
@startuml
left to right direction

[domain-model-plugin] <<project type>>
[domain-model] <<project type>>
[generator] <<project type>>
[model] <<project type>>
[plugin] <<project type>>
[project-group] <<project type>>
[project-types] <<project type>>
[template] <<project type>>


[domain-model-plugin] - -> [plugin]
[domain-model] - -> [model]
[model] - -> [generator]
[plugin] - -> [generator]
[project-group] - -> [generator]
[project-types] - -> [model]
[template] - -> [generator]


package "laplacian" {
  [common-model] <<domain-model>>
  [common-model] - -> [domain-model]
  [domain-model.project-template] <<template>>
  [domain-model.project-template] - -> [template]
  [generator.project-template] <<template>>
  [generator.project-template] - -> [template]
  [metamodel] <<model>>
  [metamodel] - -> [model]
  [model.project-template] <<template>>
  [model.project-template] - -> [template]
  [project-group.project-template] <<template>>
  [project-group.project-template] - -> [template]
  [project.domain-model] <<domain-model>>
  [project.domain-model] - -> [domain-model]
  [project.project-types] <<project-types>>
  [project.project-types] - -> [project-types]
  [template.project-template] <<template>>
  [template.project-template] - -> [template]
}



  [domain-model-plugin] ..> [metamodel]
  [domain-model-plugin] ..> [domain-model-plugin.project-template]

  [domain-model] ..> [metamodel]
  [domain-model] ..> [domain-model.project-template]

  [generator] ..> [project.project-types]
  [generator] ..> [project.domain-model]
  [generator] ..> [common-model]
  [generator] ..> [generator.project-template]
  [generator] ..> [metamodel-plugin]
  [generator] ..> [project.domain-model-plugin]
  [generator] ..> [common-model-plugin]

  [model] ..> [model.project-template]


  [project-group] ..> [project-group.project-template]


  [template] ..> [template.project-template]


@enduml

PlantUML version 1.2019.05(Sun Apr 21 01:45:36 JST 2019)
(GPL source distribution)
Java Runtime: OpenJDK Runtime Environment
JVM: OpenJDK 64-Bit Server VM
Java Version: 11.0.8+10
Operating System: Linux
OS Version: 4.4.0-18362-Microsoft
Default Encoding: UTF-8
Language: en
Country: 
--></g></svg>